<svg width="138" height="39" viewBox="0 0 138 39" fill="none" xmlns="http://www.w3.org/2000/svg">
<path d="M31.8708 0.647217H27.4986V23.4716H31.8708V0.647217Z" fill="white"/>
<path d="M42.4272 6.90344C37.5661 6.90344 34.0281 10.4558 34.0281 15.3601C34.0281 20.3363 37.4942 23.8168 42.456 23.8168C47.4322 23.8168 50.9127 20.3363 50.9127 15.3601C50.927 10.4702 47.3459 6.90344 42.4272 6.90344ZM42.4704 19.7323C39.6946 19.7323 38.4434 17.5318 38.4434 15.3601C38.4434 13.2316 39.709 10.9592 42.4704 10.9592C44.9872 10.9592 46.4974 13.2028 46.4974 15.3601C46.483 17.5462 45.2461 19.7323 42.4704 19.7323Z" fill="white"/>
<path d="M69.7963 3.82566H62.2026V23.486H58.5639V3.82566H50.9414V0.647217H69.7963V3.82566Z" fill="white"/>
<path d="M78.3249 9.70796C76.9586 9.75111 75.7362 10.0675 74.6719 10.6572C73.6076 11.2468 72.8597 12.0954 72.3995 13.1884V23.486H68.8615V6.65896H72.1406V10.4271C72.7159 9.26212 73.4782 8.34166 74.413 7.65132C75.3478 6.96098 76.3546 6.57267 77.4189 6.51514C77.6346 6.51514 77.8072 6.51514 77.951 6.51514C78.0948 6.51514 78.2099 6.52952 78.3249 6.5439V9.70796Z" fill="white"/>
<path d="M97.7264 15.0581C97.7264 13.8788 97.9277 12.757 98.3304 11.7071C98.7331 10.6572 99.3228 9.73675 100.085 8.94573C100.847 8.15472 101.768 7.52191 102.832 7.06168C103.911 6.60145 105.104 6.37134 106.442 6.37134C108.182 6.37134 109.678 6.74527 110.929 7.50752C112.18 8.26978 113.115 9.27652 113.748 10.5421L110.311 11.6352C109.908 10.9305 109.362 10.3696 108.671 9.98125C107.981 9.57855 107.219 9.39158 106.384 9.39158C105.68 9.39158 105.018 9.5354 104.4 9.80866C103.781 10.0819 103.263 10.4846 102.803 10.988C102.357 11.4914 101.998 12.081 101.739 12.7714C101.48 13.4617 101.351 14.224 101.351 15.0581C101.351 15.8779 101.48 16.6258 101.753 17.3305C102.027 18.0208 102.386 18.6393 102.846 19.1426C103.307 19.6604 103.839 20.0631 104.457 20.3507C105.061 20.6384 105.723 20.7822 106.399 20.7822C106.83 20.7822 107.262 20.7247 107.693 20.6096C108.125 20.4946 108.513 20.322 108.873 20.1062C109.232 19.8905 109.534 19.646 109.807 19.3728C110.081 19.0995 110.268 18.7975 110.397 18.4667L113.877 19.5022C113.317 20.7678 112.382 21.8033 111.073 22.6087C109.764 23.4141 108.225 23.8168 106.442 23.8168C105.133 23.8168 103.939 23.5867 102.875 23.1121C101.797 22.6375 100.89 22.0047 100.128 21.1993C99.3659 20.3939 98.7763 19.4734 98.3592 18.4092C97.9277 17.3449 97.7264 16.2375 97.7264 15.0581Z" fill="white"/>
<path d="M134.214 23.486L128.835 15.734L126.03 18.3659V23.486H122.492V0H126.03V14.8999L133.754 6.70206H137.622L131.093 13.7493L137.982 23.5004H134.214V23.486Z" fill="white"/>
<path d="M120.465 14.5115C120.465 6.70203 114.136 0.373901 106.327 0.373901C101.797 0.373901 97.7552 2.51683 95.1664 5.8391H100.488C102.199 4.7173 104.256 4.05572 106.456 4.05572C112.468 4.05572 117.344 8.93125 117.344 14.943C117.344 20.9547 112.468 25.8302 106.456 25.8302C106.442 25.8302 106.413 25.8302 106.399 25.8302C106.384 25.8302 106.356 25.8302 106.341 25.8302C103.436 25.8302 100.804 24.6653 98.877 22.7812L97.108 26.161C99.2078 29.2675 102.559 34.028 106.327 38.7741C106.327 38.7741 114.079 28.8073 117.876 22.6662C117.876 22.6662 117.876 22.6662 117.861 22.6805C119.501 20.365 120.465 17.5461 120.465 14.5115Z" fill="#F79420"/>
<path d="M98.7907 7.20544H94.2316C93.8432 7.85264 93.5125 8.5286 93.2248 9.21894C91.7578 7.95331 89.8738 7.20544 87.8172 7.20544C83.1286 7.20544 79.3173 11.1605 79.3173 16.0361C79.3173 20.9116 83.1142 24.8667 87.8172 24.8667C90.3772 24.8667 92.6783 23.6873 94.2316 21.8177C94.4042 22.1053 94.5911 22.3929 94.7925 22.6662C94.7925 22.6662 95.3246 23.486 96.2451 24.8667L97.899 21.6882C97.8846 21.6738 97.8702 21.6451 97.8559 21.6307C96.4176 19.7898 95.5547 17.4743 95.5547 14.943C95.5547 11.9228 96.7916 9.19017 98.7907 7.20544ZM92.779 18.481C91.9736 20.4945 90.0608 21.9183 87.8172 21.9183C84.8544 21.9183 82.4526 19.4302 82.4526 16.3525C82.4526 13.2747 84.8544 10.7722 87.8172 10.7722C89.6724 10.7722 91.2976 11.7502 92.2612 13.2172C92.8365 14.1089 93.1817 15.1875 93.1817 16.3381C93.1817 17.1003 93.0379 17.8194 92.779 18.481Z" fill="white"/>
<path d="M15.1731 0.618408H10.2544L0 23.4716H4.5016V23.486H6.94656C6.93218 23.2558 6.81712 20.0918 10.4414 20.0055C10.4414 20.0055 11.3043 21.1417 11.9803 22.4936L12.9295 21.7457L13.6486 22.3641C13.6486 22.3641 14.4253 20.5951 15.5471 20.0055C15.5471 20.0055 19.157 20.6383 18.7686 23.4716H21.0554H25.4276L15.1731 0.618408ZM16.2374 15.921L12.7138 20.8684V21.0985C12.7138 21.0985 10.1538 17.3736 9.39151 15.8778C9.39151 15.8778 8.90252 14.9717 9.62163 14.4684L9.93804 12.5124L12.7282 13.4185L15.8922 12.5124V14.4108C15.8778 14.4252 16.6689 14.9861 16.2374 15.921ZM12.8001 12.6994L8.54297 11.4481V13.1452H8.80185V13.6198H8.54297V14.5547C8.71556 14.6553 8.83061 14.8423 8.83061 15.058C8.83061 15.3888 8.57174 15.6477 8.24095 15.6477C7.91016 15.6477 7.65128 15.3888 7.65128 15.058C7.65128 14.8135 7.7951 14.5978 8.01083 14.5115V13.6198H7.75196V13.1452H8.01083V11.3043L12.7857 9.72228L18.1646 11.3043L12.8001 12.6994Z" fill="white"/>
<path d="M2.51689 28.1457C2.50251 28.1313 2.47374 28.1026 2.40183 28.0594C2.34431 28.0163 2.25801 27.9875 2.17172 27.9444C2.07104 27.9012 1.97037 27.8725 1.85531 27.8293C1.74026 27.8006 1.6252 27.7862 1.52453 27.7862C1.20812 27.7862 1.0643 27.8869 1.0643 28.1026C1.0643 28.1601 1.07868 28.2176 1.10744 28.2608C1.13621 28.3039 1.19374 28.3471 1.25127 28.3758C1.32318 28.4046 1.39509 28.4334 1.49576 28.4621C1.59644 28.4909 1.71149 28.5197 1.84093 28.5628C2.01352 28.606 2.1861 28.6635 2.32992 28.721C2.47374 28.7785 2.60318 28.8505 2.68948 28.9367C2.79015 29.023 2.86206 29.1237 2.91959 29.2532C2.97712 29.3826 3.00588 29.5264 3.00588 29.699C3.00588 29.9147 2.96274 30.0873 2.89082 30.2311C2.80453 30.375 2.70386 30.49 2.57442 30.5907C2.44498 30.677 2.30116 30.7489 2.12857 30.792C1.95599 30.8352 1.7834 30.8496 1.61082 30.8496C1.467 30.8496 1.33756 30.8352 1.19374 30.8208C1.04992 30.8064 0.906095 30.7633 0.776656 30.7345C0.632835 30.6914 0.503396 30.6482 0.373957 30.5907C0.244518 30.5332 0.129461 30.4756 0.0144043 30.3893L0.388339 29.6127C0.402721 29.6271 0.445867 29.6702 0.53216 29.7134C0.60407 29.7565 0.704745 29.8141 0.819802 29.8572C0.934859 29.9003 1.0643 29.9435 1.20812 29.9866C1.35194 30.0298 1.49576 30.0442 1.63958 30.0442C1.94161 30.0442 2.09981 29.9579 2.09981 29.7709C2.09981 29.699 2.07104 29.6415 2.0279 29.5983C1.98475 29.5552 1.91284 29.512 1.84093 29.4689C1.75464 29.4257 1.66835 29.397 1.55329 29.3682C1.43823 29.3394 1.32318 29.2963 1.19374 29.2675C1.02115 29.21 0.87733 29.1525 0.747892 29.0949C0.618453 29.0374 0.517778 28.9655 0.431485 28.8792C0.345193 28.7929 0.287664 28.7066 0.244518 28.606C0.201372 28.5053 0.18699 28.3758 0.18699 28.232C0.18699 28.0307 0.230136 27.8581 0.302046 27.7143C0.373957 27.5704 0.474632 27.441 0.60407 27.326C0.733509 27.2253 0.87733 27.139 1.04992 27.0958C1.2225 27.0383 1.39509 27.0239 1.58205 27.0239C1.71149 27.0239 1.84093 27.0383 1.97037 27.0671C2.09981 27.0958 2.21487 27.1246 2.32992 27.1677C2.44498 27.2109 2.56004 27.254 2.66071 27.2972C2.76139 27.3403 2.84768 27.3979 2.93397 27.441L2.51689 28.1457Z" fill="white"/>
<path d="M4.53036 27.0527L5.33575 28.7642L6.15553 27.0527H7.10475L5.76722 29.5265V30.8065H4.90429V29.5265L3.59552 27.0671H4.53036V27.0527Z" fill="white"/>
<path d="M10.125 28.1458C10.1106 28.1314 10.0818 28.1026 10.0099 28.0595C9.9524 28.0163 9.86611 27.9876 9.77981 27.9444C9.67914 27.9013 9.57846 27.8725 9.46341 27.8294C9.34835 27.8006 9.23329 27.7862 9.13262 27.7862C8.81621 27.7862 8.67239 27.8869 8.67239 28.1026C8.67239 28.1602 8.68677 28.2177 8.71554 28.2608C8.7443 28.304 8.80183 28.3471 8.85936 28.3759C8.93127 28.4047 9.00318 28.4334 9.10385 28.4622C9.20453 28.4909 9.31959 28.5197 9.44902 28.5629C9.62161 28.606 9.7942 28.6635 9.93802 28.7211C10.0818 28.7786 10.2113 28.8505 10.2976 28.9368C10.3982 29.0231 10.4702 29.1238 10.5277 29.2532C10.5852 29.3826 10.614 29.5265 10.614 29.699C10.614 29.9148 10.5708 30.0874 10.4989 30.2312C10.4126 30.375 10.312 30.4901 10.1825 30.5907C10.0531 30.677 9.90925 30.7489 9.73667 30.7921C9.56408 30.8352 9.3915 30.8496 9.21891 30.8496C9.07509 30.8496 8.94565 30.8352 8.80183 30.8208C8.65801 30.8065 8.51419 30.7633 8.38475 30.7346C8.24093 30.6914 8.11149 30.6483 7.98205 30.5907C7.85261 30.5332 7.73755 30.4757 7.6225 30.3894L7.99643 29.6415C8.01081 29.6559 8.05396 29.699 8.14025 29.7422C8.21216 29.7853 8.31284 29.8429 8.4279 29.886C8.54295 29.9292 8.67239 29.9723 8.81621 30.0154C8.96003 30.0586 9.10385 30.073 9.24768 30.073C9.5497 30.073 9.7079 29.9867 9.7079 29.7997C9.7079 29.7278 9.67914 29.6703 9.63599 29.6271C9.59285 29.584 9.52094 29.5408 9.44902 29.4977C9.36273 29.4545 9.27644 29.4258 9.16138 29.397C9.04633 29.3683 8.93127 29.3251 8.80183 29.2963C8.62924 29.2388 8.48542 29.1813 8.35599 29.1238C8.22655 29.0662 8.12587 28.9943 8.03958 28.908C7.95329 28.8217 7.89576 28.7354 7.85261 28.6348C7.80947 28.5341 7.79508 28.4047 7.79508 28.2608C7.79508 28.0595 7.83823 27.8869 7.91014 27.7431C7.98205 27.5993 8.08273 27.4698 8.21216 27.3548C8.3416 27.2541 8.48542 27.1678 8.65801 27.1246C8.83059 27.0671 9.00318 27.0527 9.19015 27.0527C9.31959 27.0527 9.44903 27.0671 9.57846 27.0959C9.7079 27.1246 9.82296 27.1534 9.93802 27.1966C10.0531 27.2397 10.1681 27.2828 10.2688 27.326C10.3695 27.3691 10.4558 27.4267 10.5421 27.4698L10.125 28.1458Z" fill="white"/>
<path d="M14.4685 27.815H13.3323V30.7921H12.4694V27.815H11.3188V27.0527H14.4685V27.815Z" fill="white"/>
<path d="M18.0496 30.0298V30.7921H15.4177V27.0527H18.0064V27.815H16.2806V28.5485H17.7619V29.2532H16.2806V30.0442H18.0496V30.0298Z" fill="white"/>
<path d="M22.0622 30.792V28.5484L21.2424 30.1879H20.7822L19.9768 28.5628V30.8064H19.1138V27.067H20.0487L21.0123 29.023L21.9903 27.067H22.9251V30.8064H22.0622V30.792Z" fill="white"/>
<path d="M27.5561 30.8208C27.2828 30.8208 27.024 30.7633 26.7938 30.6626C26.5637 30.5476 26.3768 30.4037 26.2042 30.2312C26.046 30.0586 25.9165 29.8572 25.8302 29.6271C25.744 29.397 25.7008 29.1669 25.7008 28.9224C25.7008 28.6779 25.744 28.4334 25.8446 28.2177C25.9309 27.9875 26.0747 27.7862 26.2329 27.6136C26.4055 27.441 26.5925 27.2972 26.8226 27.1965C27.0527 27.0959 27.2972 27.0383 27.5705 27.0383C27.8437 27.0383 28.1026 27.0959 28.3327 27.1965C28.5628 27.3116 28.7498 27.4554 28.9224 27.628C29.0806 27.8006 29.21 28.0163 29.2963 28.232C29.3826 28.4622 29.4258 28.6923 29.4258 28.9224C29.4258 29.1669 29.3826 29.4114 29.2819 29.6271C29.1957 29.8572 29.0662 30.0586 28.8936 30.2312C28.7354 30.4037 28.5341 30.5476 28.304 30.6482C28.0739 30.7777 27.8294 30.8208 27.5561 30.8208ZM26.5781 28.9224C26.5781 29.0662 26.5925 29.21 26.6356 29.3395C26.6788 29.4689 26.7363 29.5983 26.8226 29.699C26.9089 29.7997 27.0096 29.886 27.1246 29.9579C27.2541 30.0154 27.3835 30.0586 27.5417 30.0586C27.6999 30.0586 27.8581 30.0298 27.9732 29.9579C28.1026 29.886 28.2033 29.7997 28.2752 29.699C28.3615 29.5983 28.419 29.4689 28.4622 29.3395C28.5053 29.21 28.5197 29.0662 28.5197 28.9224C28.5197 28.7786 28.5053 28.6347 28.4622 28.5053C28.419 28.3759 28.3615 28.2464 28.2752 28.1458C28.1889 28.0451 28.0882 27.9588 27.9732 27.9013C27.8581 27.8437 27.7143 27.815 27.5561 27.815C27.3979 27.815 27.2541 27.8437 27.1246 27.9156C27.0096 27.9875 26.8945 28.0595 26.8226 28.1745C26.7363 28.2752 26.6788 28.4046 26.6356 28.5341C26.6069 28.6491 26.5781 28.7929 26.5781 28.9224Z" fill="white"/>
<path d="M30.447 30.7921V27.0527H32.9926V27.815H31.3099V28.6204H32.6906V29.3251H31.3099V30.8065H30.447V30.7921Z" fill="white"/>
<path d="M37.8681 28.1458C37.8537 28.1314 37.825 28.1026 37.7531 28.0595C37.6955 28.0163 37.6092 27.9876 37.5086 27.9444C37.4079 27.9013 37.3072 27.8725 37.1922 27.8294C37.0771 27.8006 36.9621 27.7862 36.8614 27.7862C36.545 27.7862 36.4011 27.8869 36.4011 28.1026C36.4011 28.1602 36.4155 28.2177 36.4443 28.2608C36.4731 28.304 36.5306 28.3471 36.5881 28.3759C36.66 28.4047 36.7319 28.4334 36.8326 28.4622C36.9333 28.4909 37.0483 28.5197 37.1778 28.5629C37.3504 28.606 37.523 28.6635 37.6668 28.7211C37.8106 28.7786 37.94 28.8505 38.0263 28.9368C38.127 29.0231 38.1989 29.1238 38.2564 29.2532C38.314 29.3826 38.3427 29.5265 38.3427 29.699C38.3427 29.9148 38.2996 30.0874 38.2277 30.2312C38.1414 30.375 38.0407 30.4901 37.9113 30.5907C37.7818 30.677 37.638 30.7489 37.4654 30.7921C37.2928 30.8352 37.1203 30.8496 36.9477 30.8496C36.8039 30.8496 36.6744 30.8352 36.5306 30.8208C36.3868 30.8065 36.2429 30.7633 36.1135 30.7346C35.9697 30.6914 35.8402 30.6483 35.7108 30.5907C35.5814 30.5332 35.4663 30.4757 35.3513 30.3894L35.7252 29.6415C35.7396 29.6559 35.7827 29.699 35.869 29.7422C35.9409 29.7853 36.0416 29.8429 36.1567 29.886C36.2717 29.9292 36.4011 29.9723 36.545 30.0154C36.6888 30.0586 36.8326 30.073 36.9764 30.073C37.2785 30.073 37.4367 29.9867 37.4367 29.7997C37.4367 29.7278 37.4079 29.6703 37.3648 29.6271C37.3216 29.584 37.2497 29.5408 37.1778 29.4977C37.0915 29.4545 37.0052 29.4258 36.8901 29.397C36.7751 29.3683 36.66 29.3251 36.5306 29.2963C36.358 29.2388 36.2142 29.1813 36.0847 29.1238C35.9553 29.0662 35.8546 28.9943 35.7683 28.908C35.682 28.8217 35.6245 28.7354 35.5814 28.6348C35.5382 28.5341 35.5238 28.4047 35.5238 28.2608C35.5238 28.0595 35.567 27.8869 35.6389 27.7431C35.7108 27.5993 35.8115 27.4698 35.9409 27.3548C36.0704 27.2541 36.2142 27.1678 36.3868 27.1246C36.5594 27.0671 36.7319 27.0527 36.9189 27.0527C37.0483 27.0527 37.1778 27.0671 37.3072 27.0959C37.4367 27.1246 37.5517 27.1534 37.6668 27.1966C37.7818 27.2397 37.8969 27.2828 37.9976 27.326C38.0982 27.3691 38.1845 27.4267 38.2708 27.4698L37.8681 28.1458Z" fill="white"/>
<path d="M40.9889 30.0585C41.1328 30.0585 41.2622 30.0297 41.3629 29.9722C41.4635 29.9147 41.5498 29.8284 41.6074 29.7277C41.6649 29.627 41.7224 29.512 41.7368 29.3825C41.7656 29.2531 41.78 29.1237 41.78 28.9798V27.067H42.6429V28.9798C42.6429 29.2387 42.6141 29.4832 42.5422 29.7133C42.4703 29.9434 42.384 30.1304 42.2402 30.303C42.1107 30.4756 41.9382 30.605 41.7224 30.7057C41.5067 30.8064 41.2622 30.8495 40.9746 30.8495C40.6725 30.8495 40.428 30.792 40.2123 30.6913C39.9966 30.5906 39.824 30.4468 39.6945 30.2886C39.5651 30.116 39.4644 29.9147 39.4069 29.6989C39.3494 29.4688 39.3206 29.2387 39.3206 28.9942V27.0814H40.1835V28.9942C40.1835 29.138 40.1979 29.2819 40.2267 29.4113C40.2555 29.5407 40.2986 29.6558 40.3705 29.7565C40.428 29.8571 40.5143 29.9434 40.615 30.001C40.7301 30.0297 40.8451 30.0585 40.9889 30.0585Z" fill="white"/>
<path d="M43.8511 30.7921V27.0527H45.4475C45.6201 27.0527 45.7927 27.0959 45.9365 27.1678C46.0803 27.2397 46.2097 27.3404 46.3248 27.4554C46.4255 27.5705 46.5118 27.7143 46.5837 27.8581C46.6412 28.002 46.67 28.1602 46.67 28.3184C46.67 28.4766 46.6412 28.6348 46.5837 28.793C46.5261 28.9512 46.4399 29.0806 46.3392 29.1957C46.2385 29.3107 46.1091 29.4114 45.9652 29.4833C45.8214 29.5552 45.6488 29.584 45.4763 29.584H44.714V30.7921H43.8511ZM44.714 28.8361H45.4187C45.5194 28.8361 45.6057 28.793 45.6776 28.7067C45.7495 28.6204 45.7927 28.4909 45.7927 28.3184C45.7927 28.2321 45.7783 28.1602 45.7639 28.0882C45.7351 28.0307 45.7064 27.9732 45.6776 27.93C45.6345 27.8869 45.5913 27.8581 45.5482 27.8438C45.505 27.8294 45.4475 27.815 45.4043 27.815H44.7284V28.8361H44.714Z" fill="white"/>
<path d="M47.6623 30.7921V27.0527H49.2587C49.4313 27.0527 49.6039 27.0959 49.7477 27.1678C49.8915 27.2397 50.021 27.3404 50.136 27.4554C50.2367 27.5705 50.323 27.7143 50.3949 27.8581C50.4524 28.002 50.4812 28.1602 50.4812 28.3184C50.4812 28.4766 50.4524 28.6348 50.3949 28.793C50.3374 28.9512 50.2511 29.0806 50.1504 29.1957C50.0497 29.3107 49.9203 29.4114 49.7765 29.4833C49.6326 29.5552 49.4601 29.584 49.2875 29.584H48.5252V30.7921H47.6623ZM48.5252 28.8361H49.2299C49.3306 28.8361 49.4169 28.793 49.4888 28.7067C49.5607 28.6204 49.6039 28.4909 49.6039 28.3184C49.6039 28.2321 49.5895 28.1602 49.5751 28.0882C49.5463 28.0307 49.5176 27.9732 49.4888 27.93C49.4457 27.8869 49.4025 27.8581 49.3594 27.8438C49.3162 27.8294 49.2587 27.815 49.2156 27.815H48.5396V28.8361H48.5252Z" fill="white"/>
<path d="M53.1132 30.8208C52.8399 30.8208 52.581 30.7633 52.3509 30.6626C52.1208 30.5476 51.9338 30.4037 51.7612 30.2312C51.603 30.0586 51.4736 29.8572 51.3873 29.6271C51.301 29.397 51.2579 29.1669 51.2579 28.9224C51.2579 28.6779 51.301 28.4334 51.4017 28.2177C51.488 27.9875 51.6318 27.7862 51.79 27.6136C51.9626 27.441 52.1496 27.2972 52.3797 27.1965C52.6098 27.0959 52.8543 27.0383 53.1275 27.0383C53.4008 27.0383 53.6597 27.0959 53.8898 27.1965C54.1199 27.3116 54.3069 27.4554 54.4795 27.628C54.6377 27.8006 54.7671 28.0163 54.8534 28.232C54.9397 28.4622 54.9828 28.6923 54.9828 28.9224C54.9828 29.1669 54.9397 29.4114 54.839 29.6271C54.7527 29.8572 54.6233 30.0586 54.4507 30.2312C54.2925 30.4037 54.0911 30.5476 53.861 30.6482C53.6309 30.7777 53.3864 30.8208 53.1132 30.8208ZM52.1352 28.9224C52.1352 29.0662 52.1496 29.21 52.1927 29.3395C52.2359 29.4689 52.2934 29.5983 52.3797 29.699C52.466 29.7997 52.5666 29.886 52.6817 29.9579C52.8111 30.0154 52.9406 30.0586 53.0988 30.0586C53.257 30.0586 53.4008 30.0298 53.5302 29.9579C53.6597 29.886 53.7604 29.7997 53.8323 29.699C53.9186 29.5983 53.9761 29.4689 54.0192 29.3395C54.0624 29.21 54.0768 29.0662 54.0768 28.9224C54.0768 28.7786 54.0624 28.6347 54.0192 28.5053C53.9761 28.3759 53.9186 28.2464 53.8323 28.1458C53.746 28.0451 53.6453 27.9588 53.5302 27.9013C53.4152 27.8437 53.2714 27.815 53.1132 27.815C52.955 27.815 52.8111 27.8437 52.6817 27.9156C52.5666 27.9875 52.4516 28.0595 52.3797 28.1745C52.2934 28.2752 52.2359 28.4046 52.1927 28.5341C52.1639 28.6491 52.1352 28.7929 52.1352 28.9224Z" fill="white"/>
<path d="M56.0039 30.7921V27.0527H57.6866C57.8592 27.0527 58.0318 27.0959 58.1756 27.1678C58.3194 27.2397 58.4489 27.3404 58.5639 27.4554C58.679 27.5705 58.7653 27.7143 58.8228 27.8581C58.8803 28.002 58.9091 28.1602 58.9091 28.3184C58.9091 28.4334 58.8947 28.5485 58.8659 28.6491C58.8372 28.7498 58.794 28.8505 58.7509 28.9512C58.6934 29.0518 58.6358 29.1381 58.5639 29.2101C58.492 29.282 58.4057 29.3539 58.305 29.397L59.1248 30.7921H58.1468L57.4277 29.584H56.8668V30.7921H56.0039ZM56.8668 28.8361H57.6578C57.7585 28.8361 57.8448 28.793 57.9167 28.6923C57.9886 28.5916 58.0318 28.4766 58.0318 28.3184C58.0318 28.1602 57.9886 28.0451 57.9023 27.9444C57.816 27.8581 57.7298 27.8006 57.6291 27.8006H56.8668V28.8361Z" fill="white"/>
<path d="M62.8642 27.815H61.728V30.7921H60.865V27.815H59.7145V27.0527H62.8642V27.815Z" fill="white"/>
<path d="M68.1137 27.815H66.9775V30.7921H66.1146V27.815H64.964V27.0527H68.1137V27.815Z" fill="white"/>
<path d="M69.0629 30.7921V27.0527H70.7456C70.9182 27.0527 71.0908 27.0959 71.2346 27.1678C71.3784 27.2397 71.5079 27.3404 71.6229 27.4554C71.738 27.5705 71.8099 27.7143 71.8818 27.8581C71.9393 28.002 71.9681 28.1602 71.9681 28.3184C71.9681 28.4334 71.9537 28.5485 71.925 28.6491C71.8962 28.7498 71.8531 28.8505 71.8099 28.9512C71.7524 29.0518 71.6949 29.1381 71.6229 29.2101C71.551 29.282 71.4647 29.3539 71.3641 29.397L72.1838 30.7921H71.2059L70.4868 29.584H69.9259V30.7921H69.0629ZM69.9259 28.8361H70.7169C70.8175 28.8361 70.9038 28.793 70.9757 28.6923C71.0477 28.5916 71.0908 28.4766 71.0908 28.3184C71.0908 28.1602 71.0477 28.0451 70.9614 27.9444C70.8751 27.8581 70.7888 27.8006 70.6881 27.8006H69.9259V28.8361Z" fill="white"/>
<path d="M74.0822 27.0527H74.8589L76.2252 30.7921H75.3335L75.0458 29.9579H73.8809L73.5932 30.7921H72.7015L74.0822 27.0527ZM74.9164 29.3539L74.4849 28.0307L74.0391 29.3539H74.9164Z" fill="white"/>
<path d="M76.7717 28.8936C76.7717 28.6635 76.8149 28.4478 76.9012 28.2176C76.9875 27.9875 77.1025 27.8006 77.2751 27.6136C77.4333 27.441 77.6347 27.2972 77.8648 27.1821C78.0949 27.0671 78.3538 27.0239 78.6558 27.0239C79.001 27.0239 79.3174 27.0958 79.5762 27.254C79.8351 27.4122 80.0221 27.5992 80.1515 27.8437L79.4899 28.3039C79.4468 28.2033 79.3893 28.117 79.3318 28.0594C79.2598 27.9875 79.2023 27.9444 79.116 27.9012C79.0441 27.8581 78.9578 27.8293 78.8859 27.8149C78.7996 27.8006 78.7277 27.7862 78.6558 27.7862C78.4832 27.7862 78.3394 27.8149 78.2243 27.8869C78.0949 27.9588 77.9942 28.0451 77.9223 28.1457C77.836 28.2464 77.7785 28.3758 77.7497 28.5053C77.7066 28.6347 77.6922 28.7785 77.6922 28.908C77.6922 29.0518 77.721 29.1956 77.7641 29.3394C77.8072 29.4833 77.8792 29.5983 77.9655 29.699C78.0517 29.7997 78.1524 29.886 78.2818 29.9435C78.3969 30.001 78.5407 30.0298 78.6846 30.0298C78.7565 30.0298 78.8428 30.0154 78.929 30.001C79.0153 29.9866 79.0873 29.9579 79.1592 29.9147C79.2311 29.8716 79.303 29.8284 79.3605 29.7565C79.418 29.6846 79.4756 29.6127 79.5187 29.512L80.2234 29.9291C80.1659 30.0729 80.0796 30.188 79.9789 30.303C79.8639 30.4181 79.7344 30.5044 79.5906 30.5763C79.4468 30.6482 79.2886 30.7057 79.1304 30.7489C78.9722 30.792 78.814 30.8064 78.6558 30.8064C78.3825 30.8064 78.138 30.7489 77.9079 30.6338C77.6778 30.5188 77.4908 30.375 77.3183 30.188C77.1601 30.001 77.0306 29.7997 76.9443 29.5696C76.8149 29.3682 76.7717 29.1237 76.7717 28.8936Z" fill="white"/>
<path d="M81.1438 30.7921V27.0527H82.0067V28.6635L83.373 27.0527H84.3366L82.9416 28.7211L84.4373 30.7921H83.4449L82.3807 29.282L81.9923 29.6847V30.7921H81.1438Z" fill="white"/>
<path d="M85.2571 30.7921V27.0527H86.1201V30.7921H85.2571Z" fill="white"/>
<path d="M88.2199 28.6491V30.7921H87.3569V27.0527H88.0329L89.7731 29.2532V27.0527H90.6361V30.7921H89.9457L88.2199 28.6491Z" fill="white"/>
<path d="M94.4616 30.4181C94.174 30.677 93.8432 30.8208 93.4693 30.8208C93.2248 30.8208 92.9947 30.7777 92.7789 30.677C92.5632 30.5907 92.3762 30.4469 92.2036 30.2887C92.0454 30.1161 91.916 29.9147 91.8153 29.6846C91.7147 29.4401 91.6715 29.1813 91.6715 28.908C91.6715 28.6491 91.7147 28.4046 91.8153 28.1745C91.916 27.9444 92.0454 27.7431 92.2036 27.5848C92.3762 27.4123 92.5632 27.2828 92.7933 27.1822C93.0234 27.0815 93.2679 27.0383 93.5268 27.0383C93.872 27.0383 94.174 27.1102 94.4329 27.2541C94.6918 27.3979 94.8931 27.5992 95.0225 27.8581L94.3753 28.3471C94.2891 28.1745 94.174 28.0451 94.0158 27.9588C93.8576 27.8725 93.685 27.815 93.498 27.815C93.3542 27.815 93.2248 27.8437 93.1097 27.9013C92.9947 27.9588 92.894 28.0451 92.8077 28.1458C92.7214 28.2464 92.6639 28.3759 92.6063 28.5053C92.5632 28.6491 92.5344 28.7929 92.5344 28.9511C92.5344 29.1094 92.5632 29.2676 92.6063 29.397C92.6495 29.5408 92.7214 29.6559 92.8077 29.7565C92.894 29.8572 92.9947 29.9291 93.1241 29.9867C93.2392 30.0442 93.383 30.073 93.5268 30.073C93.8576 30.073 94.174 29.9147 94.4329 29.5983V29.4689H93.7281V28.8361H95.1664V30.7921H94.4473V30.4181H94.4616Z" fill="white"/>
</svg>
