<svg width="27" height="24" viewBox="0 0 27 24" fill="none" xmlns="http://www.w3.org/2000/svg">
<path d="M15.8369 0H10.703L0 23.8529H4.69853V23.8679H7.25044C7.23543 23.6277 7.11534 20.3253 10.8982 20.2352C10.8982 20.2352 11.7989 21.4211 12.5044 22.8321L13.4951 22.0515L14.2457 22.697C14.2457 22.697 15.0563 20.8506 16.2272 20.2352C16.2272 20.2352 19.995 20.8957 19.5897 23.8529H21.9765H26.5399L15.8369 0ZM16.9477 15.972L13.27 21.1359V21.376C13.27 21.376 10.598 17.4881 9.80235 15.9269C9.80235 15.9269 9.29197 14.9812 10.0425 14.4558L10.3728 12.4143L13.285 13.36L16.5874 12.4143V14.3958C16.5724 14.4108 17.3981 14.9963 16.9477 15.972ZM13.36 12.6095L8.91669 11.3035V13.0748H9.18689V13.5702H8.91669V14.5459C9.09683 14.651 9.21692 14.8461 9.21692 15.0713C9.21692 15.4166 8.94671 15.6868 8.60145 15.6868C8.2562 15.6868 7.98599 15.4166 7.98599 15.0713C7.98599 14.8161 8.13611 14.5909 8.36127 14.5009V13.5702H8.09107V13.0748H8.36127V11.1534L13.345 9.50213L18.9592 11.1534L13.36 12.6095Z" fill="#E4E7EB"/>
</svg>
