<?xml version="1.0" encoding="utf-8"?>
<!-- Generator: Adobe Illustrator 25.0.1, SVG Export Plug-In . SVG Version: 6.00 Build 0)  -->
<svg version="1.1" id="Layer_1" xmlns="http://www.w3.org/2000/svg" xmlns:xlink="http://www.w3.org/1999/xlink" x="0px" y="0px"
	 viewBox="0 0 960 269.71" style="enable-background:new 0 0 960 269.71;" xml:space="preserve">
<style type="text/css">
	.st0{fill:#184871;}
	.st1{fill:#F79420;}
	.st2{display:none;}
	.st3{display:inline;fill:#F79420;}
</style>
<g>
	<rect x="191.49" y="4.63" class="st0" width="30.4" height="158.67"/>
	<path class="st0" d="M295.34,48.13c-33.82,0-58.36,24.73-58.36,58.81c0,34.62,24.09,58.8,58.58,58.8
		c34.62,0,58.81-24.18,58.81-58.8C354.37,72.86,329.55,48.13,295.34,48.13z M295.56,137.34c-19.32,0-27.96-15.27-27.96-30.41
		c0-14.75,8.75-30.63,27.96-30.63c17.5,0,27.97,15.57,27.97,30.63C323.53,122.07,314.88,137.34,295.56,137.34z"/>
	<path class="st0" d="M485.6,26.71h-52.8V163.4h-25.28V26.71h-53.02V4.56h131.1V26.71z"/>
	<path class="st0" d="M544.88,67.65c-9.55,0.3-18.01,2.5-25.39,6.6c-7.38,4.11-12.64,9.96-15.77,17.56v71.59h-24.61v-117h22.82
		v26.17c4.02-8.05,9.28-14.5,15.77-19.35c6.49-4.84,13.46-7.5,20.92-7.94c1.49,0,2.72,0,3.69,0c0.97,0,1.82,0.07,2.57,0.22V67.65z"
		/>
	<path class="st0" d="M679.79,104.78c0-8.2,1.42-15.96,4.25-23.26c2.83-7.31,6.9-13.72,12.2-19.24c5.3-5.52,11.67-9.88,19.13-13.09
		c7.46-3.21,15.81-4.81,25.06-4.81c12.08,0,22.48,2.65,31.21,7.94c8.72,5.3,15.25,12.34,19.58,21.14l-23.94,7.61
		c-2.83-4.92-6.64-8.76-11.4-11.52c-4.78-2.75-10.07-4.14-15.89-4.14c-4.92,0-9.51,0.97-13.76,2.91c-4.25,1.94-7.95,4.66-11.07,8.17
		c-3.13,3.51-5.59,7.65-7.39,12.42c-1.79,4.77-2.68,10.07-2.68,15.88c0,5.67,0.93,10.93,2.8,15.77c1.86,4.85,4.39,9.06,7.6,12.64
		c3.21,3.58,6.94,6.38,11.19,8.39c4.25,2.01,8.76,3.02,13.53,3.02c2.99,0,5.97-0.41,8.95-1.23c2.98-0.82,5.71-1.97,8.17-3.47
		c2.46-1.49,4.62-3.21,6.49-5.14c1.86-1.94,3.25-4.03,4.14-6.27l24.16,7.16c-3.88,8.81-10.37,15.99-19.47,21.58
		c-9.1,5.59-19.84,8.4-32.21,8.4c-9.1,0-17.38-1.65-24.84-4.92c-7.46-3.29-13.83-7.72-19.13-13.31c-5.29-5.6-9.4-12.04-12.3-19.35
		C681.24,120.74,679.79,112.99,679.79,104.78z"/>
	<path class="st0" d="M933.51,163.4l-37.36-53.91l-19.47,18.34v35.57h-24.61V0.08h24.61v103.58l53.69-57.05h26.85l-45.42,48.99
		l47.87,67.78H933.51z"/>
	<path class="st1" d="M837.88,100.96c0-54.27-43.99-98.26-98.25-98.26c-31.54,0-59.59,14.88-77.57,37.98h36.9
		c11.91-7.82,26.16-12.38,41.47-12.38c41.82,0,75.72,33.9,75.72,75.72c0,41.82-33.9,75.72-75.72,75.72c-0.14,0-0.27-0.01-0.4-0.01
		c-0.14,0-0.27,0.01-0.4,0.01c-20.22,0-38.54-8.1-51.91-21.23l-12.2,23.45c14.64,21.57,37.9,54.69,64.11,87.66
		c0,0,53.9-69.34,80.26-111.99c0,0-0.04,0.03-0.08,0.07C831.18,141.68,837.88,122.11,837.88,100.96z"/>
	<path class="st0" d="M687.15,50.23h-31.68c-2.69,4.45-4.99,9.16-6.95,14.03c-10.21-8.76-23.31-14.03-37.59-14.03
		c-32.63,0-59.07,27.47-59.07,61.35c0,33.88,26.44,61.35,59.07,61.35c17.83,0,33.79-8.22,44.63-21.19c1.22,2.02,2.5,3.99,3.87,5.91
		c-0.01-0.01-0.02-0.02-0.03-0.02c0,0,3.65,5.72,10.05,15.3l11.49-22.08c-0.09-0.12-0.17-0.26-0.27-0.38
		c-9.99-12.83-15.95-28.94-15.95-46.46C664.71,82.99,673.3,63.96,687.15,50.23z M645.39,128.57c-5.6,14.04-18.92,23.93-34.47,23.93
		c-20.61,0-37.31-17.35-37.31-38.75S590.32,75,610.93,75c12.86,0,24.19,6.76,30.9,17.04c4.04,6.19,6.4,13.66,6.4,21.71
		C648.23,119,647.21,124,645.39,128.57z"/>
	<path class="st0" d="M105.84,4.41H71.59L0.31,163.3H31.6l-0.04,0.09l16.98-0.02c-0.09-1.6-0.93-23.57,24.28-24.18
		c0,0,5.99,7.88,10.72,17.35l6.62-5.2l5.05,4.26c0,0,5.36-12.3,13.24-16.4c0,0,25.08,4.39,22.41,24.11l15.88-0.01h30.37L105.84,4.41
		z M113.19,110.82l-24.48,34.38v1.57c0,0-17.78-25.86-23.14-36.26c0,0-3.42-6.3,1.58-9.78l2.21-13.55l19.36,6.3l21.95-6.3v13.24
		C110.67,100.42,116.21,104.26,113.19,110.82z M89.35,88.43l-29.61-8.71v11.78h1.81v3.32h-1.81v6.48c1.22,0.71,2.05,2.02,2.05,3.53
		c0,2.26-1.83,4.1-4.1,4.1c-2.26,0-4.1-1.84-4.1-4.1c0-1.71,1.04-3.17,2.52-3.79v-6.22H54.3v-3.32h1.81V78.66l33.24-11.03
		l37.4,11.03L89.35,88.43z"/>
	<g class="st2">
		<path class="st3" d="M17.76,195.81c-0.07-0.1-0.33-0.28-0.77-0.55c-0.44-0.27-0.99-0.55-1.65-0.84c-0.66-0.29-1.38-0.55-2.16-0.77
			c-0.78-0.22-1.56-0.33-2.35-0.33c-2.15,0-3.23,0.72-3.23,2.16c0,0.44,0.12,0.81,0.35,1.1c0.23,0.29,0.57,0.56,1.03,0.79
			c0.45,0.23,1.02,0.45,1.71,0.64c0.68,0.2,1.48,0.42,2.38,0.66c1.25,0.34,2.37,0.71,3.37,1.12c1,0.4,1.85,0.9,2.55,1.5
			c0.7,0.6,1.23,1.33,1.61,2.18c0.38,0.85,0.57,1.88,0.57,3.08c0,1.47-0.27,2.71-0.82,3.72c-0.55,1.01-1.28,1.83-2.18,2.45
			c-0.9,0.63-1.94,1.08-3.11,1.36c-1.17,0.28-2.38,0.42-3.63,0.42c-0.95,0-1.93-0.07-2.93-0.22c-1-0.15-1.98-0.36-2.93-0.64
			c-0.95-0.28-1.88-0.62-2.77-1.01c-0.89-0.39-1.72-0.84-2.48-1.36l2.64-5.24c0.1,0.12,0.41,0.36,0.95,0.7
			c0.54,0.34,1.2,0.69,2,1.03c0.8,0.34,1.68,0.65,2.66,0.92c0.98,0.27,1.97,0.4,2.97,0.4c2.12,0,3.19-0.65,3.19-1.94
			c0-0.49-0.16-0.89-0.48-1.21c-0.32-0.32-0.76-0.6-1.32-0.86c-0.56-0.26-1.23-0.49-2-0.71c-0.77-0.22-1.61-0.46-2.51-0.73
			c-1.2-0.37-2.24-0.76-3.11-1.19c-0.88-0.43-1.61-0.92-2.18-1.49c-0.57-0.56-1-1.21-1.28-1.94c-0.28-0.73-0.42-1.59-0.42-2.57
			c0-1.37,0.26-2.58,0.77-3.63c0.51-1.05,1.21-1.93,2.09-2.66c0.88-0.72,1.9-1.26,3.06-1.63c1.16-0.37,2.39-0.55,3.68-0.55
			c0.9,0,1.8,0.09,2.68,0.26c0.88,0.17,1.72,0.39,2.53,0.66c0.81,0.27,1.56,0.57,2.25,0.92c0.7,0.34,1.34,0.68,1.92,1.03
			L17.76,195.81z"/>
		<path class="st3" d="M31.83,188.19l5.61,11.95l5.68-11.95h6.56l-9.27,17.15v8.87h-5.97v-8.94l-9.12-17.08H31.83z"/>
		<path class="st3" d="M70.68,195.81c-0.07-0.1-0.33-0.28-0.77-0.55c-0.44-0.27-0.99-0.55-1.65-0.84c-0.66-0.29-1.38-0.55-2.16-0.77
			c-0.78-0.22-1.56-0.33-2.35-0.33c-2.15,0-3.23,0.72-3.23,2.16c0,0.44,0.12,0.81,0.35,1.1c0.23,0.29,0.57,0.56,1.03,0.79
			c0.45,0.23,1.02,0.45,1.71,0.64c0.68,0.2,1.48,0.42,2.38,0.66c1.25,0.34,2.37,0.71,3.37,1.12c1,0.4,1.85,0.9,2.55,1.5
			c0.7,0.6,1.23,1.33,1.61,2.18c0.38,0.85,0.57,1.88,0.57,3.08c0,1.47-0.27,2.71-0.82,3.72c-0.55,1.01-1.28,1.83-2.18,2.45
			c-0.9,0.63-1.94,1.08-3.11,1.36c-1.17,0.28-2.38,0.42-3.63,0.42c-0.95,0-1.93-0.07-2.93-0.22c-1-0.15-1.98-0.36-2.93-0.64
			c-0.95-0.28-1.88-0.62-2.77-1.01c-0.89-0.39-1.72-0.84-2.47-1.36l2.64-5.24c0.1,0.12,0.42,0.36,0.95,0.7
			c0.54,0.34,1.2,0.69,2,1.03c0.79,0.34,1.68,0.65,2.66,0.92c0.98,0.27,1.97,0.4,2.97,0.4c2.12,0,3.19-0.65,3.19-1.94
			c0-0.49-0.16-0.89-0.48-1.21c-0.32-0.32-0.76-0.6-1.32-0.86c-0.56-0.26-1.23-0.49-2-0.71c-0.77-0.22-1.61-0.46-2.51-0.73
			c-1.2-0.37-2.24-0.76-3.11-1.19c-0.88-0.43-1.61-0.92-2.18-1.49c-0.58-0.56-1-1.21-1.28-1.94c-0.28-0.73-0.42-1.59-0.42-2.57
			c0-1.37,0.26-2.58,0.77-3.63c0.51-1.05,1.21-1.93,2.09-2.66c0.88-0.72,1.9-1.26,3.06-1.63c1.16-0.37,2.39-0.55,3.68-0.55
			c0.9,0,1.8,0.09,2.68,0.26c0.88,0.17,1.72,0.39,2.53,0.66c0.8,0.27,1.56,0.57,2.25,0.92c0.7,0.34,1.34,0.68,1.92,1.03
			L70.68,195.81z"/>
		<path class="st3" d="M100.92,193.46H93v20.74h-6.01v-20.74h-7.95v-5.28h21.88V193.46z"/>
		<path class="st3" d="M125.81,208.93v5.28h-18.29v-26.02h17.96v5.28h-11.95v5.06h10.26v4.87h-10.26v5.53H125.81z"/>
		<path class="st3" d="M153.66,214.21v-15.57l-5.64,11.32h-3.23l-5.64-11.32v15.57h-6.01v-26.02h6.52l6.74,13.6l6.78-13.6h6.49
			v26.02H153.66z"/>
		<path class="st3" d="M191.92,214.43c-1.93,0-3.69-0.38-5.28-1.14c-1.59-0.76-2.94-1.75-4.07-2.99c-1.13-1.23-2-2.65-2.62-4.23
			c-0.62-1.59-0.94-3.22-0.94-4.91c0-1.71,0.33-3.36,0.97-4.95c0.65-1.59,1.55-2.99,2.71-4.2c1.16-1.21,2.53-2.17,4.12-2.89
			c1.59-0.72,3.32-1.08,5.21-1.08c1.93,0,3.69,0.38,5.28,1.14c1.59,0.76,2.94,1.76,4.07,3.01c1.12,1.25,1.99,2.66,2.6,4.25
			c0.61,1.59,0.92,3.2,0.92,4.84c0,1.71-0.32,3.36-0.97,4.95c-0.65,1.59-1.55,2.99-2.69,4.2c-1.15,1.21-2.52,2.18-4.11,2.92
			C195.54,214.06,193.8,214.43,191.92,214.43z M185.14,201.23c0,1,0.15,1.97,0.44,2.91c0.29,0.94,0.73,1.78,1.3,2.51
			c0.57,0.73,1.29,1.32,2.14,1.76c0.85,0.44,1.83,0.66,2.93,0.66c1.15,0,2.15-0.23,3.01-0.7c0.86-0.46,1.56-1.07,2.13-1.81
			c0.56-0.75,0.98-1.59,1.26-2.53c0.28-0.94,0.42-1.9,0.42-2.88c0-1-0.15-1.97-0.44-2.91c-0.29-0.94-0.73-1.77-1.32-2.49
			c-0.59-0.72-1.3-1.3-2.14-1.73c-0.84-0.42-1.81-0.64-2.91-0.64c-1.15,0-2.14,0.23-2.99,0.68c-0.84,0.45-1.55,1.04-2.13,1.78
			c-0.57,0.73-1,1.57-1.28,2.51C185.28,199.3,185.14,200.26,185.14,201.23z"/>
		<path class="st3" d="M212.04,214.21v-26.02h17.66v5.28h-11.66v5.61h9.6v4.87h-9.6v10.26H212.04z"/>
		<path class="st3" d="M263.57,195.81c-0.07-0.1-0.33-0.28-0.77-0.55c-0.44-0.27-0.99-0.55-1.65-0.84
			c-0.66-0.29-1.38-0.55-2.16-0.77c-0.78-0.22-1.56-0.33-2.35-0.33c-2.15,0-3.23,0.72-3.23,2.16c0,0.44,0.12,0.81,0.35,1.1
			c0.23,0.29,0.57,0.56,1.03,0.79c0.45,0.23,1.02,0.45,1.7,0.64c0.68,0.2,1.48,0.42,2.38,0.66c1.25,0.34,2.37,0.71,3.37,1.12
			c1,0.4,1.85,0.9,2.55,1.5c0.7,0.6,1.23,1.33,1.61,2.18c0.38,0.85,0.57,1.88,0.57,3.08c0,1.47-0.28,2.71-0.82,3.72
			c-0.55,1.01-1.28,1.83-2.18,2.45c-0.91,0.63-1.94,1.08-3.11,1.36c-1.17,0.28-2.38,0.42-3.63,0.42c-0.95,0-1.93-0.07-2.93-0.22
			c-1-0.15-1.98-0.36-2.93-0.64c-0.95-0.28-1.88-0.62-2.77-1.01c-0.89-0.39-1.72-0.84-2.47-1.36l2.64-5.24
			c0.1,0.12,0.42,0.36,0.95,0.7c0.54,0.34,1.2,0.69,2,1.03c0.79,0.34,1.68,0.65,2.66,0.92c0.98,0.27,1.97,0.4,2.97,0.4
			c2.12,0,3.19-0.65,3.19-1.94c0-0.49-0.16-0.89-0.48-1.21c-0.32-0.32-0.76-0.6-1.32-0.86c-0.56-0.26-1.23-0.49-2-0.71
			c-0.77-0.22-1.61-0.46-2.51-0.73c-1.2-0.37-2.23-0.76-3.11-1.19c-0.88-0.43-1.61-0.92-2.18-1.49c-0.58-0.56-1-1.21-1.28-1.94
			c-0.28-0.73-0.42-1.59-0.42-2.57c0-1.37,0.26-2.58,0.77-3.63c0.51-1.05,1.21-1.93,2.09-2.66c0.88-0.72,1.9-1.26,3.06-1.63
			c1.16-0.37,2.39-0.55,3.68-0.55c0.9,0,1.8,0.09,2.68,0.26c0.88,0.17,1.72,0.39,2.53,0.66c0.81,0.27,1.56,0.57,2.25,0.92
			c0.7,0.34,1.34,0.68,1.92,1.03L263.57,195.81z"/>
		<path class="st3" d="M285.34,209.08c1.03,0,1.89-0.21,2.6-0.64c0.71-0.43,1.28-1,1.72-1.71c0.44-0.71,0.75-1.52,0.93-2.44
			c0.18-0.92,0.27-1.85,0.27-2.8v-13.3h6.01v13.3c0,1.81-0.23,3.49-0.68,5.06c-0.45,1.57-1.15,2.93-2.09,4.11
			c-0.94,1.17-2.14,2.09-3.59,2.77c-1.45,0.67-3.18,1.01-5.19,1.01c-2.08,0-3.85-0.35-5.31-1.06c-1.46-0.71-2.66-1.66-3.57-2.84
			c-0.92-1.19-1.59-2.56-2.02-4.12c-0.43-1.56-0.64-3.2-0.64-4.91v-13.3h6.01v13.3c0,1,0.1,1.95,0.29,2.86
			c0.19,0.91,0.51,1.71,0.95,2.42c0.44,0.71,1.01,1.27,1.71,1.69C283.45,208.87,284.32,209.08,285.34,209.08z"/>
		<path class="st3" d="M305.21,214.21v-26.02h11.11c1.25,0,2.39,0.26,3.43,0.77c1.04,0.51,1.93,1.18,2.68,2.01
			c0.75,0.83,1.33,1.77,1.76,2.82c0.43,1.05,0.64,2.12,0.64,3.19c0,1.15-0.2,2.25-0.6,3.3c-0.4,1.05-0.97,1.99-1.69,2.82
			c-0.72,0.83-1.6,1.49-2.62,1.98c-1.03,0.49-2.16,0.73-3.41,0.73h-5.28v8.39H305.21z M311.22,200.58h4.91
			c0.71,0,1.32-0.31,1.83-0.92c0.51-0.61,0.77-1.5,0.77-2.68c0-0.61-0.08-1.14-0.24-1.58c-0.16-0.44-0.37-0.8-0.64-1.1
			c-0.27-0.29-0.57-0.5-0.92-0.64c-0.34-0.14-0.68-0.2-1.03-0.2h-4.69V200.58z"/>
		<path class="st3" d="M331.7,214.21v-26.02h11.11c1.24,0,2.39,0.26,3.43,0.77c1.04,0.51,1.93,1.18,2.68,2.01
			c0.75,0.83,1.33,1.77,1.76,2.82c0.43,1.05,0.64,2.12,0.64,3.19c0,1.15-0.2,2.25-0.6,3.3c-0.4,1.05-0.97,1.99-1.69,2.82
			c-0.72,0.83-1.59,1.49-2.62,1.98c-1.03,0.49-2.16,0.73-3.41,0.73h-5.28v8.39H331.7z M337.71,200.58h4.91
			c0.71,0,1.32-0.31,1.83-0.92c0.51-0.61,0.77-1.5,0.77-2.68c0-0.61-0.08-1.14-0.24-1.58c-0.16-0.44-0.37-0.8-0.64-1.1
			c-0.27-0.29-0.57-0.5-0.92-0.64c-0.34-0.14-0.68-0.2-1.03-0.2h-4.69V200.58z"/>
		<path class="st3" d="M369.6,214.43c-1.93,0-3.69-0.38-5.28-1.14c-1.59-0.76-2.94-1.75-4.07-2.99c-1.13-1.23-2-2.65-2.62-4.23
			c-0.62-1.59-0.93-3.22-0.93-4.91c0-1.71,0.32-3.36,0.97-4.95c0.65-1.59,1.55-2.99,2.71-4.2c1.16-1.21,2.54-2.17,4.12-2.89
			c1.59-0.72,3.32-1.08,5.21-1.08c1.93,0,3.69,0.38,5.28,1.14c1.59,0.76,2.94,1.76,4.07,3.01c1.12,1.25,1.99,2.66,2.6,4.25
			c0.61,1.59,0.92,3.2,0.92,4.84c0,1.71-0.32,3.36-0.97,4.95c-0.65,1.59-1.54,2.99-2.69,4.2c-1.15,1.21-2.52,2.18-4.11,2.92
			C373.21,214.06,371.48,214.43,369.6,214.43z M362.82,201.23c0,1,0.15,1.97,0.44,2.91c0.29,0.94,0.73,1.78,1.3,2.51
			c0.57,0.73,1.29,1.32,2.14,1.76c0.85,0.44,1.83,0.66,2.93,0.66c1.15,0,2.15-0.23,3-0.7c0.85-0.46,1.56-1.07,2.13-1.81
			c0.56-0.75,0.98-1.59,1.26-2.53c0.28-0.94,0.42-1.9,0.42-2.88c0-1-0.15-1.97-0.44-2.91c-0.29-0.94-0.73-1.77-1.32-2.49
			c-0.59-0.72-1.3-1.3-2.14-1.73c-0.84-0.42-1.81-0.64-2.91-0.64c-1.15,0-2.14,0.23-2.99,0.68c-0.84,0.45-1.55,1.04-2.13,1.78
			c-0.57,0.73-1,1.57-1.28,2.51C362.96,199.3,362.82,200.26,362.82,201.23z"/>
		<path class="st3" d="M389.72,214.21v-26.02h11.73c1.22,0,2.35,0.26,3.39,0.77c1.04,0.51,1.94,1.18,2.69,2.01
			c0.76,0.83,1.35,1.77,1.78,2.82c0.43,1.05,0.64,2.12,0.64,3.19c0,0.81-0.1,1.58-0.29,2.33c-0.2,0.74-0.48,1.45-0.84,2.11
			c-0.37,0.66-0.81,1.25-1.34,1.78c-0.52,0.52-1.12,0.97-1.78,1.34l5.72,9.67h-6.78l-4.98-8.39h-3.92v8.39H389.72z M395.73,200.58
			h5.5c0.71,0,1.32-0.34,1.83-1.01c0.51-0.67,0.77-1.53,0.77-2.58c0-1.07-0.29-1.93-0.88-2.56c-0.59-0.63-1.22-0.95-1.91-0.95h-5.31
			V200.58z"/>
		<path class="st3" d="M437.36,193.46h-7.92v20.74h-6.01v-20.74h-7.95v-5.28h21.88V193.46z"/>
		<path class="st3" d="M473.94,193.46h-7.91v20.74h-6.01v-20.74h-7.95v-5.28h21.88V193.46z"/>
		<path class="st3" d="M480.54,214.21v-26.02h11.73c1.22,0,2.35,0.26,3.39,0.77c1.04,0.51,1.93,1.18,2.69,2.01
			c0.76,0.83,1.35,1.77,1.78,2.82c0.43,1.05,0.64,2.12,0.64,3.19c0,0.81-0.1,1.58-0.29,2.33c-0.2,0.74-0.48,1.45-0.84,2.11
			c-0.37,0.66-0.81,1.25-1.34,1.78c-0.53,0.52-1.12,0.97-1.78,1.34l5.71,9.67h-6.78l-4.98-8.39h-3.92v8.39H480.54z M486.55,200.58
			h5.5c0.71,0,1.32-0.34,1.83-1.01c0.51-0.67,0.77-1.53,0.77-2.58c0-1.07-0.29-1.93-0.88-2.56c-0.59-0.63-1.22-0.95-1.91-0.95h-5.31
			V200.58z"/>
		<path class="st3" d="M515.43,188.19h5.42l9.49,26.02h-6.16l-2.02-5.83h-8.1l-1.98,5.83h-6.16L515.43,188.19z M521.18,204.24
			l-3.04-9.2l-3.12,9.2H521.18z"/>
		<path class="st3" d="M534.12,200.98c0-1.56,0.29-3.12,0.88-4.67c0.58-1.55,1.44-2.94,2.56-4.16c1.12-1.22,2.49-2.21,4.11-2.97
			c1.61-0.76,3.45-1.14,5.5-1.14c2.44,0,4.56,0.53,6.36,1.58c1.79,1.05,3.13,2.42,4.01,4.11l-4.62,3.22
			c-0.29-0.68-0.67-1.25-1.12-1.7c-0.45-0.46-0.95-0.82-1.48-1.1c-0.54-0.28-1.08-0.48-1.65-0.59c-0.56-0.11-1.11-0.17-1.65-0.17
			c-1.15,0-2.15,0.24-3.01,0.7c-0.85,0.47-1.56,1.06-2.12,1.8c-0.56,0.73-0.98,1.56-1.25,2.49c-0.27,0.93-0.4,1.87-0.4,2.82
			c0,1.02,0.16,2.01,0.48,2.97c0.32,0.95,0.77,1.8,1.37,2.53c0.6,0.73,1.32,1.31,2.16,1.74c0.84,0.43,1.79,0.64,2.84,0.64
			c0.54,0,1.09-0.07,1.67-0.2c0.57-0.13,1.12-0.34,1.65-0.62c0.53-0.28,1.01-0.65,1.45-1.1c0.44-0.45,0.8-1.01,1.06-1.67l4.91,2.9
			c-0.39,0.95-0.97,1.81-1.74,2.56c-0.77,0.76-1.65,1.39-2.66,1.91c-1,0.51-2.06,0.9-3.18,1.17c-1.12,0.27-2.23,0.4-3.3,0.4
			c-1.88,0-3.61-0.38-5.19-1.16c-1.58-0.77-2.93-1.79-4.07-3.06c-1.14-1.27-2.02-2.71-2.64-4.33
			C534.44,204.28,534.12,202.64,534.12,200.98z"/>
		<path class="st3" d="M564.5,214.21v-26.02h6.01v11.21l9.53-11.21h6.74l-9.75,11.62l10.41,14.4h-6.85l-7.37-10.48l-2.71,2.82v7.66
			H564.5z"/>
		<path class="st3" d="M593.05,214.21v-26.02h6.01v26.02H593.05z"/>
		<path class="st3" d="M613.72,199.33v14.88h-6.01v-26.02h4.69l12.13,15.28v-15.28h6.01v26.02h-4.84L613.72,199.33z"/>
		<path class="st3" d="M657.08,211.64c-1.98,1.83-4.26,2.75-6.85,2.75c-1.71,0-3.32-0.32-4.83-0.97c-1.52-0.65-2.84-1.56-3.98-2.73
			c-1.14-1.17-2.03-2.58-2.7-4.23c-0.66-1.65-0.99-3.46-0.99-5.44c0-1.78,0.33-3.47,0.99-5.06c0.66-1.59,1.57-2.97,2.73-4.14
			c1.16-1.17,2.54-2.1,4.12-2.79c1.59-0.68,3.3-1.02,5.13-1.02c2.42,0,4.54,0.51,6.34,1.52c1.81,1.01,3.16,2.4,4.07,4.16l-4.47,3.37
			c-0.58-1.17-1.43-2.08-2.55-2.73c-1.11-0.65-2.32-0.97-3.61-0.97c-1,0-1.91,0.2-2.73,0.6c-0.82,0.4-1.52,0.97-2.11,1.69
			c-0.59,0.72-1.04,1.56-1.36,2.51c-0.32,0.95-0.47,1.98-0.47,3.08c0,1.12,0.17,2.16,0.51,3.12c0.34,0.95,0.82,1.78,1.43,2.47
			c0.61,0.7,1.34,1.24,2.18,1.63c0.84,0.39,1.78,0.59,2.8,0.59c2.35,0,4.46-1.09,6.34-3.26v-0.81h-5.06v-4.36h10.04v13.6h-4.98
			V211.64z"/>
	</g>
</g>
<g>
	<path class="st1" d="M20.17,207.41c-0.19-0.19-0.54-0.45-1.05-0.78c-0.51-0.33-1.12-0.65-1.85-0.96c-0.72-0.31-1.51-0.58-2.36-0.8
		c-0.85-0.22-1.71-0.33-2.58-0.33c-1.56,0-2.72,0.29-3.48,0.86c-0.77,0.57-1.15,1.38-1.15,2.42c0,0.6,0.14,1.1,0.43,1.5
		c0.29,0.4,0.7,0.75,1.25,1.04c0.55,0.3,1.24,0.57,2.07,0.82c0.83,0.25,1.8,0.51,2.89,0.78c1.42,0.38,2.71,0.79,3.87,1.23
		c1.16,0.44,2.15,0.98,2.95,1.64c0.81,0.66,1.43,1.44,1.87,2.36c0.44,0.92,0.66,2.04,0.66,3.38c0,1.56-0.29,2.89-0.88,4
		c-0.59,1.11-1.38,2-2.38,2.69c-1,0.68-2.15,1.18-3.44,1.5c-1.3,0.31-2.66,0.47-4.08,0.47c-2.19,0-4.35-0.33-6.48-0.98
		c-2.13-0.66-4.05-1.58-5.74-2.79l2.5-4.88c0.25,0.25,0.69,0.57,1.33,0.96c0.64,0.4,1.4,0.79,2.28,1.19c0.87,0.4,1.84,0.73,2.91,1
		c1.07,0.27,2.16,0.41,3.28,0.41c3.12,0,4.67-1,4.67-2.99c0-0.63-0.18-1.16-0.53-1.6c-0.36-0.44-0.86-0.82-1.52-1.15
		c-0.66-0.33-1.45-0.63-2.38-0.9c-0.93-0.27-1.97-0.57-3.12-0.9c-1.39-0.38-2.6-0.8-3.63-1.25s-1.88-0.98-2.56-1.6
		c-0.68-0.62-1.2-1.33-1.54-2.13c-0.34-0.81-0.51-1.77-0.51-2.89c0-1.48,0.27-2.79,0.82-3.94c0.55-1.15,1.3-2.1,2.28-2.87
		c0.97-0.77,2.1-1.35,3.38-1.74c1.28-0.4,2.67-0.59,4.14-0.59c2.05,0,3.94,0.32,5.66,0.96c1.72,0.64,3.22,1.4,4.51,2.28
		L20.17,207.41z"/>
	<path class="st1" d="M52.11,204.74H42.8v24.15h-5.62v-24.15h-9.31v-4.96h24.23V204.74z"/>
	<path class="st1" d="M70.6,224.1c1.34,0,2.47-0.27,3.38-0.82c0.92-0.55,1.65-1.26,2.21-2.13c0.56-0.87,0.96-1.88,1.19-3.01
		c0.23-1.13,0.35-2.3,0.35-3.5v-14.84h5.62v14.84c0,2-0.24,3.87-0.72,5.62c-0.48,1.75-1.23,3.28-2.26,4.59
		c-1.02,1.31-2.34,2.35-3.96,3.12c-1.61,0.77-3.54,1.15-5.78,1.15c-2.32,0-4.3-0.4-5.92-1.21c-1.63-0.81-2.95-1.87-3.96-3.2
		c-1.01-1.33-1.74-2.86-2.19-4.61c-0.45-1.75-0.68-3.57-0.68-5.45v-14.84h5.66v14.84c0,1.23,0.12,2.41,0.35,3.55
		c0.23,1.13,0.63,2.14,1.19,3.01c0.56,0.88,1.29,1.58,2.19,2.11C68.18,223.83,69.29,224.1,70.6,224.1z"/>
	<path class="st1" d="M91.64,228.89v-29.11h10.58c2.38,0,4.46,0.38,6.25,1.15c1.79,0.77,3.29,1.8,4.49,3.12
		c1.2,1.31,2.1,2.85,2.71,4.61c0.6,1.76,0.9,3.64,0.9,5.64c0,2.21-0.33,4.22-1,6.01c-0.67,1.79-1.63,3.32-2.89,4.59
		c-1.26,1.27-2.77,2.25-4.53,2.95c-1.76,0.7-3.74,1.05-5.92,1.05H91.64z M110.86,214.3c0-1.39-0.19-2.68-0.57-3.85
		c-0.38-1.17-0.94-2.19-1.68-3.03c-0.74-0.85-1.65-1.5-2.73-1.97c-1.08-0.46-2.3-0.7-3.67-0.7h-4.92v19.19h4.92
		c1.39,0,2.63-0.25,3.71-0.74c1.08-0.49,1.98-1.17,2.71-2.03c0.72-0.86,1.28-1.88,1.66-3.05
		C110.67,216.93,110.86,215.66,110.86,214.3z"/>
	<path class="st1" d="M143.79,223.93v4.96h-20.21v-29.11h19.84v4.96h-14.19v7.01h12.26v4.59h-12.26v7.58H143.79z"/>
	<path class="st1" d="M156.46,210.24v18.66h-5.66v-29.11h4.39l15.17,19.11v-19.07h5.66v29.07h-4.59L156.46,210.24z"/>
	<path class="st1" d="M206.43,204.74h-9.31v24.15h-5.62v-24.15h-9.31v-4.96h24.23V204.74z"/>
	<path class="st1" d="M241.24,207.41c-0.19-0.19-0.54-0.45-1.05-0.78c-0.51-0.33-1.12-0.65-1.85-0.96c-0.72-0.31-1.51-0.58-2.36-0.8
		c-0.85-0.22-1.71-0.33-2.58-0.33c-1.56,0-2.72,0.29-3.48,0.86c-0.77,0.57-1.15,1.38-1.15,2.42c0,0.6,0.14,1.1,0.43,1.5
		c0.29,0.4,0.7,0.75,1.25,1.04c0.55,0.3,1.24,0.57,2.07,0.82c0.83,0.25,1.8,0.51,2.89,0.78c1.42,0.38,2.71,0.79,3.87,1.23
		c1.16,0.44,2.15,0.98,2.95,1.64c0.81,0.66,1.43,1.44,1.87,2.36c0.44,0.92,0.66,2.04,0.66,3.38c0,1.56-0.29,2.89-0.88,4
		c-0.59,1.11-1.38,2-2.38,2.69c-1,0.68-2.15,1.18-3.44,1.5c-1.3,0.31-2.66,0.47-4.08,0.47c-2.19,0-4.35-0.33-6.48-0.98
		c-2.13-0.66-4.05-1.58-5.74-2.79l2.5-4.88c0.25,0.25,0.69,0.57,1.33,0.96c0.64,0.4,1.4,0.79,2.28,1.19c0.87,0.4,1.84,0.73,2.91,1
		c1.07,0.27,2.16,0.41,3.28,0.41c3.12,0,4.67-1,4.67-2.99c0-0.63-0.18-1.16-0.53-1.6c-0.36-0.44-0.86-0.82-1.52-1.15
		c-0.66-0.33-1.45-0.63-2.38-0.9c-0.93-0.27-1.97-0.57-3.12-0.9c-1.39-0.38-2.6-0.8-3.63-1.25s-1.88-0.98-2.56-1.6
		c-0.68-0.62-1.2-1.33-1.54-2.13c-0.34-0.81-0.51-1.77-0.51-2.89c0-1.48,0.27-2.79,0.82-3.94c0.55-1.15,1.3-2.1,2.28-2.87
		c0.97-0.77,2.1-1.35,3.38-1.74c1.28-0.4,2.67-0.59,4.14-0.59c2.05,0,3.94,0.32,5.66,0.96c1.72,0.64,3.22,1.4,4.51,2.28
		L241.24,207.41z"/>
	<path class="st1" d="M263.91,224.1c1.34,0,2.47-0.27,3.38-0.82c0.92-0.55,1.65-1.26,2.21-2.13c0.56-0.87,0.96-1.88,1.19-3.01
		c0.23-1.13,0.35-2.3,0.35-3.5v-14.84h5.62v14.84c0,2-0.24,3.87-0.72,5.62c-0.48,1.75-1.23,3.28-2.26,4.59
		c-1.02,1.31-2.34,2.35-3.96,3.12c-1.61,0.77-3.54,1.15-5.78,1.15c-2.32,0-4.3-0.4-5.92-1.21c-1.63-0.81-2.95-1.87-3.96-3.2
		c-1.01-1.33-1.74-2.86-2.19-4.61c-0.45-1.75-0.68-3.57-0.68-5.45v-14.84h5.66v14.84c0,1.23,0.12,2.41,0.35,3.55
		c0.23,1.13,0.63,2.14,1.19,3.01c0.56,0.88,1.29,1.58,2.19,2.11C261.5,223.83,262.6,224.1,263.91,224.1z"/>
	<path class="st1" d="M284.95,228.89v-29.11h12.34c1.34,0,2.58,0.28,3.71,0.84c1.13,0.56,2.11,1.3,2.93,2.21
		c0.82,0.92,1.46,1.96,1.93,3.12c0.46,1.16,0.7,2.33,0.7,3.51c0,1.23-0.22,2.43-0.66,3.59c-0.44,1.16-1.05,2.19-1.84,3.1
		c-0.79,0.9-1.75,1.63-2.87,2.17c-1.12,0.55-2.35,0.82-3.69,0.82h-6.89v9.76H284.95z M290.61,214.17h6.56c1.04,0,1.91-0.42,2.6-1.27
		c0.7-0.85,1.05-2,1.05-3.44c0-0.74-0.11-1.4-0.33-1.99c-0.22-0.59-0.51-1.09-0.86-1.5c-0.36-0.41-0.77-0.72-1.25-0.92
		c-0.48-0.21-0.96-0.31-1.46-0.31h-6.31V214.17z"/>
	<path class="st1" d="M313.07,228.89v-29.11h12.34c1.34,0,2.58,0.28,3.71,0.84c1.13,0.56,2.11,1.3,2.93,2.21
		c0.82,0.92,1.46,1.96,1.93,3.12c0.46,1.16,0.7,2.33,0.7,3.51c0,1.23-0.22,2.43-0.66,3.59c-0.44,1.16-1.05,2.19-1.84,3.1
		c-0.79,0.9-1.75,1.63-2.87,2.17c-1.12,0.55-2.35,0.82-3.69,0.82h-6.89v9.76H313.07z M318.73,214.17h6.56c1.04,0,1.91-0.42,2.6-1.27
		c0.7-0.85,1.05-2,1.05-3.44c0-0.74-0.11-1.4-0.33-1.99c-0.22-0.59-0.51-1.09-0.86-1.5c-0.36-0.41-0.77-0.72-1.25-0.92
		c-0.48-0.21-0.96-0.31-1.46-0.31h-6.31V214.17z"/>
	<path class="st1" d="M353.62,229.1c-2.13,0-4.07-0.42-5.8-1.25c-1.74-0.83-3.23-1.94-4.47-3.32c-1.24-1.38-2.21-2.96-2.89-4.74
		c-0.68-1.78-1.02-3.59-1.02-5.45c0-1.94,0.36-3.8,1.09-5.58c0.72-1.78,1.72-3.35,2.99-4.71s2.78-2.45,4.53-3.26
		c1.75-0.81,3.65-1.21,5.7-1.21c2.1,0,4.02,0.43,5.76,1.29s3.22,1.99,4.45,3.38c1.23,1.39,2.19,2.98,2.87,4.76
		c0.68,1.78,1.02,3.58,1.02,5.41c0,1.94-0.36,3.79-1.07,5.55c-0.71,1.76-1.7,3.32-2.95,4.67c-1.26,1.35-2.76,2.43-4.51,3.24
		C357.57,228.69,355.67,229.1,353.62,229.1z M345.18,214.34c0,1.26,0.19,2.47,0.57,3.65c0.38,1.18,0.94,2.21,1.66,3.12
		c0.72,0.9,1.61,1.63,2.67,2.17c1.05,0.55,2.25,0.82,3.59,0.82c1.37,0,2.58-0.28,3.63-0.84c1.05-0.56,1.94-1.3,2.67-2.23
		c0.72-0.93,1.27-1.97,1.64-3.14c0.37-1.16,0.55-2.34,0.55-3.55c0-1.26-0.2-2.47-0.59-3.65c-0.4-1.17-0.96-2.21-1.68-3.12
		c-0.72-0.9-1.61-1.62-2.67-2.15c-1.05-0.53-2.23-0.8-3.55-0.8c-1.37,0-2.58,0.28-3.65,0.84c-1.07,0.56-1.95,1.3-2.67,2.21
		c-0.71,0.92-1.25,1.96-1.62,3.12C345.36,211.95,345.18,213.13,345.18,214.34z"/>
	<path class="st1" d="M374.78,228.89v-29.11h12.87c1.34,0,2.58,0.28,3.71,0.84c1.13,0.56,2.11,1.3,2.93,2.21
		c0.82,0.92,1.46,1.96,1.93,3.12c0.46,1.16,0.7,2.33,0.7,3.51c0,1.89-0.47,3.6-1.41,5.15c-0.94,1.54-2.22,2.66-3.83,3.34l6.64,10.95
		h-6.35l-5.94-9.76h-5.58v9.76H374.78z M380.44,214.17h7.09c0.52,0,1-0.12,1.46-0.37c0.45-0.25,0.84-0.58,1.17-1
		c0.33-0.42,0.59-0.92,0.78-1.5c0.19-0.57,0.29-1.19,0.29-1.84c0-0.68-0.11-1.31-0.33-1.89c-0.22-0.57-0.51-1.07-0.88-1.5
		c-0.37-0.42-0.79-0.75-1.27-0.98c-0.48-0.23-0.96-0.35-1.46-0.35h-6.85V214.17z"/>
	<path class="st1" d="M425.95,204.74h-9.31v24.15h-5.62v-24.15h-9.31v-4.96h24.23V204.74z"/>
	<path class="st1" d="M464.03,204.74h-9.31v24.15h-5.62v-24.15h-9.31v-4.96h24.23V204.74z"/>
	<path class="st1" d="M470.22,228.89v-29.11h12.87c1.34,0,2.58,0.28,3.71,0.84c1.13,0.56,2.11,1.3,2.93,2.21
		c0.82,0.92,1.46,1.96,1.93,3.12c0.46,1.16,0.7,2.33,0.7,3.51c0,1.89-0.47,3.6-1.41,5.15c-0.94,1.54-2.22,2.66-3.83,3.34l6.64,10.95
		h-6.36l-5.95-9.76h-5.57v9.76H470.22z M475.88,214.17h7.09c0.52,0,1-0.12,1.46-0.37s0.84-0.58,1.17-1c0.33-0.42,0.59-0.92,0.78-1.5
		c0.19-0.57,0.29-1.19,0.29-1.84c0-0.68-0.11-1.31-0.33-1.89c-0.22-0.57-0.51-1.07-0.88-1.5s-0.79-0.75-1.27-0.98
		c-0.48-0.23-0.96-0.35-1.46-0.35h-6.85V214.17z"/>
	<path class="st1" d="M507.9,199.78h5l11.07,29.11h-5.82l-2.71-7.26h-10.17l-2.67,7.26h-5.82L507.9,199.78z M514.42,217.66
		l-4.02-11.44l-4.18,11.44H514.42z"/>
	<path class="st1" d="M526.93,214.13c0-1.78,0.32-3.53,0.96-5.27c0.64-1.74,1.58-3.29,2.81-4.65c1.23-1.37,2.73-2.47,4.51-3.32
		c1.78-0.85,3.8-1.27,6.07-1.27c2.68,0,5,0.59,6.95,1.76s3.41,2.71,4.37,4.59l-4.35,2.99c-0.38-0.82-0.85-1.51-1.39-2.07
		c-0.55-0.56-1.13-1-1.76-1.33s-1.29-0.57-1.97-0.72c-0.68-0.15-1.35-0.23-2.01-0.23c-1.42,0-2.66,0.29-3.71,0.86
		c-1.05,0.57-1.93,1.32-2.62,2.23c-0.7,0.92-1.22,1.96-1.58,3.12c-0.36,1.16-0.53,2.32-0.53,3.46c0,1.29,0.21,2.52,0.62,3.71
		c0.41,1.19,0.99,2.23,1.74,3.14s1.65,1.63,2.71,2.17c1.05,0.55,2.21,0.82,3.46,0.82c0.66,0,1.34-0.08,2.05-0.25
		s1.39-0.42,2.03-0.78c0.64-0.35,1.24-0.81,1.78-1.37c0.55-0.56,0.98-1.24,1.31-2.03l4.63,2.67c-0.46,1.09-1.13,2.06-1.99,2.89
		c-0.86,0.83-1.83,1.54-2.91,2.11c-1.08,0.57-2.23,1.01-3.46,1.31c-1.23,0.3-2.43,0.45-3.61,0.45c-2.08,0-3.98-0.44-5.7-1.31
		c-1.72-0.87-3.21-2.01-4.45-3.42c-1.24-1.41-2.21-3.01-2.91-4.8S526.93,215.99,526.93,214.13z"/>
	<path class="st1" d="M559.4,228.89v-29.07h5.66v13.82l12.22-13.86h6.23l-11.15,12.92l11.85,16.2h-6.35l-9.06-12.59l-3.73,3.89v8.69
		H559.4z"/>
	<path class="st1" d="M589.41,228.89v-29.11h5.66v29.11H589.41z"/>
	<path class="st1" d="M609.38,210.24v18.66h-5.66v-29.11h4.39l15.17,19.11v-19.07h5.66v29.07h-4.59L609.38,210.24z"/>
	<path class="st1" d="M657.8,225.61c-2.32,2.32-5.03,3.49-8.12,3.49c-1.91,0-3.71-0.38-5.39-1.15c-1.68-0.76-3.14-1.82-4.39-3.16
		c-1.24-1.34-2.23-2.92-2.95-4.74c-0.72-1.82-1.09-3.78-1.09-5.88c0-2,0.36-3.88,1.09-5.64c0.72-1.76,1.72-3.31,2.99-4.63
		c1.27-1.33,2.77-2.38,4.49-3.16s3.59-1.17,5.62-1.17c2.73,0,5.08,0.57,7.03,1.72c1.95,1.15,3.42,2.69,4.41,4.63l-4.22,3.12
		c-0.74-1.45-1.77-2.56-3.1-3.32c-1.33-0.76-2.77-1.15-4.33-1.15c-1.23,0-2.36,0.26-3.38,0.78c-1.02,0.52-1.9,1.23-2.62,2.13
		c-0.72,0.9-1.29,1.94-1.68,3.12c-0.4,1.18-0.59,2.42-0.59,3.73c0,1.37,0.22,2.64,0.66,3.83c0.44,1.19,1.04,2.22,1.8,3.1
		c0.77,0.88,1.67,1.57,2.73,2.07c1.05,0.51,2.19,0.76,3.42,0.76c2.81,0,5.36-1.33,7.63-3.98v-2.05h-5.86v-4.14h10.54v14.96h-4.67
		V225.61z"/>
</g>
</svg>
