<svg width="477" height="16" viewBox="0 0 477 16" fill="none" xmlns="http://www.w3.org/2000/svg">
<path d="M237.39 8.72119C237.39 10.1144 237.155 11.3319 236.687 12.3735C236.218 13.4087 235.554 14.1997 234.694 14.7466C233.835 15.2935 232.832 15.5669 231.687 15.5669C230.567 15.5669 229.574 15.2935 228.708 14.7466C227.842 14.1932 227.168 13.4087 226.687 12.3931C226.211 11.3709 225.967 10.1893 225.954 8.84814V7.82275C225.954 6.45557 226.192 5.24788 226.667 4.19971C227.142 3.15153 227.813 2.35075 228.679 1.79736C229.551 1.23747 230.547 0.95752 231.667 0.95752C232.806 0.95752 233.809 1.23421 234.675 1.7876C235.547 2.33447 236.218 3.132 236.687 4.18018C237.155 5.22184 237.39 6.43604 237.39 7.82275V8.72119ZM235.525 7.80322C235.525 6.11702 235.186 4.82471 234.509 3.92627C233.832 3.02132 232.885 2.56885 231.667 2.56885C230.482 2.56885 229.548 3.02132 228.864 3.92627C228.187 4.82471 227.839 6.07471 227.819 7.67627V8.72119C227.819 10.3553 228.161 11.6411 228.845 12.5786C229.535 13.5096 230.482 13.9751 231.687 13.9751C232.898 13.9751 233.835 13.5356 234.499 12.6567C235.163 11.7713 235.505 10.505 235.525 8.85791V7.80322ZM246.917 9.61963H243.577V15.3716H241.692V1.15283H246.4C248.001 1.15283 249.232 1.51742 250.091 2.24658C250.957 2.97575 251.39 4.03695 251.39 5.43018C251.39 6.31559 251.149 7.08708 250.667 7.74463C250.192 8.40218 249.528 8.89372 248.675 9.21924L252.015 15.2544V15.3716H250.003L246.917 9.61963ZM243.577 8.08643H246.458C247.389 8.08643 248.128 7.84554 248.675 7.36377C249.228 6.882 249.505 6.23747 249.505 5.43018C249.505 4.55127 249.241 3.87744 248.714 3.40869C248.193 2.93994 247.438 2.70231 246.448 2.6958H243.577V8.08643Z" fill="black" fill-opacity="0.38"/>
<rect x="0.588989" y="7.37158" width="210" height="1" fill="black" fill-opacity="0.38"/>
<rect x="266.589" y="7.37158" width="210" height="1" fill="black" fill-opacity="0.38"/>
</svg>
