<svg xmlns="http://www.w3.org/2000/svg" width="64" height="64" viewBox="0 0 64 64">
    <path fill="#7686C5" fill-rule="evenodd" d="M46 6c2.963 0 5.38 2.344 5.496 5.279l.004.221v38c0 2.963-2.344 5.38-5.279 5.496L46 55H27v.5c0 1.869-1.464 3.395-3.308 3.495L23.5 59c-1.933 0-3.5-1.567-3.5-3.5V55h-1.25C15.574 55 13 52.426 13 49.25V11.5c0-2.963 2.344-5.38 5.279-5.496L18.5 6H46zM25 51h-3v4.5c0 .78.595 1.42 1.356 1.493L23.5 57c.828 0 1.5-.672 1.5-1.5V51zm23.5-4.5H18.75c-1.463 0-2.658 1.142-2.745 2.582L16 49.25c0 1.463 1.142 2.658 2.582 2.745l.168.005H20v-3h7v3h19c1.325 0 2.41-1.032 2.495-2.336l.005-.164v-3zM19.5 9h-1c-1.325 0-2.41 1.032-2.495 2.336L16 11.5v32.699c.757-.413 1.616-.66 2.53-.695l.22-.004h.75V9zM46 9H22.5v34.5h26v-32c0-1.325-1.032-2.41-2.336-2.495L46 9zm-9 4c1.105 0 2 .895 2 2v3h2c1.054 0 1.918.816 1.995 1.85L43 20v3c0 1.105-.895 2-2 2h-2v13c0 1.054-.816 1.918-1.85 1.995L37 40h-4.858c-1.105 0-2-.895-2-2l-.001-13H28c-1.054 0-1.918-.816-1.995-1.85L26 23v-3c0-1.105.895-2 2-2h2.141l.001-3c0-1.054.816-1.918 1.85-1.995l.15-.005zm0 2h-4.858v5H28v3h4.142v15H37V23h4v-3h-4v-5z"/>
</svg>
