<svg xmlns="http://www.w3.org/2000/svg" width="72" height="72" viewBox="0 0 72 72">
    <g fill="none" fill-rule="evenodd">
        <rect width="72" height="72" fill="#7686C5" rx="5"/>
        <path fill="#FFF" d="M50 10c2.963 0 5.38 2.344 5.496 5.279l.004.221v38c0 2.963-2.344 5.38-5.279 5.496L50 59H31v.5c0 1.869-1.464 3.395-3.308 3.495L27.5 63c-1.933 0-3.5-1.567-3.5-3.5V59h-1.25C19.574 59 17 56.426 17 53.25V15.5c0-2.963 2.344-5.38 5.279-5.496L22.5 10H50zM29 55h-3v4.5c0 .78.595 1.42 1.356 1.493L27.5 61c.828 0 1.5-.672 1.5-1.5V55zm23.5-4.5H22.75c-1.463 0-2.658 1.142-2.745 2.582L20 53.25c0 1.463 1.142 2.658 2.582 2.745l.168.005H24v-3h7v3h19c1.325 0 2.41-1.032 2.495-2.336l.005-.164v-3zM23.5 13h-1c-1.325 0-2.41 1.032-2.495 2.336L20 15.5v32.699c.757-.413 1.616-.66 2.53-.695l.22-.004h.75V13zM50 13H26.5v34.5h26v-32c0-1.325-1.032-2.41-2.336-2.495L50 13zm-9 4c1.105 0 2 .895 2 2v3h2c1.054 0 1.918.816 1.995 1.85L47 24v3c0 1.105-.895 2-2 2h-2v13c0 1.054-.816 1.918-1.85 1.995L41 44h-4.858c-1.105 0-2-.895-2-2l-.001-13H32c-1.054 0-1.918-.816-1.995-1.85L30 27v-3c0-1.105.895-2 2-2h2.141l.001-3c0-1.054.816-1.918 1.85-1.995l.15-.005zm0 2h-4.858v5H32v3h4.142v15H41V27h4v-3h-4v-5z"/>
    </g>
</svg>
