<svg xmlns="http://www.w3.org/2000/svg" width="72" height="72" viewBox="0 0 72 72">
    <g fill="none" fill-rule="evenodd">
        <rect width="72" height="72" fill="#436579" rx="5"/>
        <path fill="#FFF" d="M35.766 18.948c8.077 0 14.648 6.571 14.648 14.649 0 4.889-2.471 9.47-6.51 12.176v8.982c0 .9-.728 1.627-1.627 1.627h-2.054l-.548 2.181c-.064.686-.644 1.224-1.347 1.224h-5.125c-.702 0-1.28-.538-1.345-1.224l-.531-2.18h-2.071c-.898 0-1.628-.729-1.628-1.628v-8.982c-4.038-2.706-6.51-7.287-6.51-12.176 0-8.078 6.571-14.649 14.648-14.649zm2.738 37.434h-5.476l.438 1.739h4.602l.436-1.739zm2.144-4.967h-9.77v.888h.005v.825h9.766V51.5h-.001v-.085zm9.577-6.626c.381-.381.955-.381 1.288 0l3.58 3.531c.333.382.333.955 0 1.289-.382.381-.956.381-1.289 0l-3.58-3.531c-.332-.382-.332-.955 0-1.289zm-30.206 0c.333-.381.907-.381 1.288 0 .334.334.334.907 0 1.289l-3.579 3.53c-.333.382-.906.382-1.288 0-.333-.333-.333-.906 0-1.288zm20.63 3.208h-9.766l-.005.544V49.7h9.77v-1.455h.001v-.248zm-4.883-25.794c-6.282 0-11.393 5.112-11.393 11.394 0 4.051 2.184 7.831 5.698 9.865.503.291.812.829.812 1.409v1.41h1.366v-7.504h-.876c-.738 0-1.383-.324-1.844-.785-.507-.461-.784-1.153-.784-1.844 0-.738.277-1.384.784-1.89.461-.462 1.106-.738 1.844-.738s1.384.276 1.845.737c.506.507.783 1.153.783 1.89v.876h3.53v-.876c0-.737.277-1.383.784-1.89.46-.461 1.107-.737 1.844-.737.739 0 1.384.276 1.845.737.507.507.784 1.153.784 1.89 0 .692-.277 1.384-.784 1.845-.461.461-1.106.785-1.845.785h-.876v7.505h1.366V44.87c0-.58.31-1.118.812-1.409 3.516-2.034 5.698-5.814 5.698-9.865 0-6.282-5.11-11.394-11.393-11.394zm1.765 16.573H34v7.506h3.53v-7.506zm2.628-3.504c-.23 0-.46.092-.599.23h-.047c-.138.185-.23.369-.23.645v.876h.876c.231 0 .461-.091.6-.276.184-.138.277-.369.277-.6 0-.276-.093-.46-.277-.645-.139-.138-.369-.23-.6-.23zm-8.786 0c-.23 0-.461.092-.645.23-.139.185-.231.369-.231.645 0 .231.092.462.23.6.185.185.416.276.646.276h.876v-.876c0-.276-.092-.46-.276-.645-.139-.138-.37-.23-.6-.23zm-14.456-3.463c.525 0 .906.383.906.908 0 .476-.381.906-.906.906h-5.011c-.524 0-.906-.43-.906-.906 0-.525.382-.908.906-.908zm42.709 0c.477 0 .907.383.907.908 0 .476-.43.906-.907.906h-5.01c-.526 0-.907-.43-.907-.906 0-.525.381-.908.906-.908zM19.112 15.824c.382-.382.955-.382 1.289 0l3.579 3.53c.333.382.333.956 0 1.29-.382.38-.955.38-1.288 0l-3.58-3.532c-.334-.381-.334-.955 0-1.288zm32.02 0c.334-.382.906-.382 1.288 0 .334.333.334.907 0 1.288l-3.578 3.531c-.335.382-.907.382-1.289 0-.334-.333-.334-.907 0-1.288zM35.766 9c.477 0 .907.382.907.906v5.011c0 .525-.43.907-.907.907-.525 0-.906-.382-.906-.907v-5.01c0-.525.381-.907.906-.907z"/>
    </g>
</svg>
