<svg xmlns="http://www.w3.org/2000/svg" width="64" height="64" fill="#7686C5" viewBox="0 0 50 51">
    <path fill-rule="evenodd" clip-rule="evenodd" d="M25.6728 5.91715C25.6728 6.44215 25.2428 6.82382 24.7661 6.82382C24.2411 6.82382 23.8594 6.44215 23.8594 5.91715V0.906322C23.8594 0.382155 24.2411 0.000488281 24.7661 0.000488281C25.2428 0.000488281 25.6728 0.382155 25.6728 0.906322V5.91715ZM12.9798 11.6432C12.5982 12.0248 12.0248 12.0248 11.6915 11.6432L8.11233 8.11232C7.77817 7.73065 7.77817 7.15732 8.11233 6.82399C8.494 6.44232 9.0665 6.44232 9.40067 6.82399L12.9798 10.3548C13.3132 10.7365 13.3132 11.3098 12.9798 11.6432ZM28.2833 27.1475V28.0233H29.1592C29.39 28.0233 29.62 27.9317 29.7592 27.7475C29.9425 27.6092 30.0358 27.3783 30.0358 27.1475C30.0358 26.8708 29.9425 26.6867 29.7592 26.5025C29.62 26.3642 29.39 26.2717 29.1592 26.2717C28.9283 26.2717 28.6983 26.3642 28.56 26.5025H28.5133C28.375 26.6867 28.2833 26.8708 28.2833 27.1475ZM29.6492 35.8708C29.6492 35.2908 29.9592 34.7533 30.4608 34.4625C33.9767 32.4283 36.1592 28.6483 36.1592 24.5967C36.1592 18.315 31.0483 13.2033 24.7658 13.2033C18.4842 13.2033 13.3725 18.315 13.3725 24.5967C13.3725 28.6483 15.5567 32.4283 19.0708 34.4625C19.5742 34.7533 19.8833 35.2908 19.8833 35.8708V37.2817H21.2492V29.7767H20.3733C19.635 29.7767 18.99 29.4533 18.5292 28.9917C18.0217 28.5308 17.745 27.8392 17.745 27.1475C17.745 26.41 18.0217 25.7642 18.5292 25.2575C18.99 24.7958 19.635 24.52 20.3733 24.52C21.1108 24.52 21.7567 24.7958 22.2175 25.2575C22.7242 25.7642 23.0008 26.41 23.0008 27.1475V28.0233H26.5308V27.1475C26.5308 26.41 26.8075 25.7642 27.315 25.2575C27.7758 24.7958 28.4217 24.52 29.1592 24.52C29.8975 24.52 30.5425 24.7958 31.0042 25.2575C31.5108 25.7642 31.7875 26.41 31.7875 27.1475C31.7875 27.8392 31.5108 28.5308 31.0042 28.9917C30.5425 29.4533 29.8975 29.7767 29.1592 29.7767H28.2833V37.2817H29.6492V35.8708ZM19.8833 44.1275H29.6492V42.5H29.6475V42.415H19.8775V43.3033H19.8833V44.1275ZM22.4658 49.1208H27.0675L27.5042 47.3825H22.0283L22.4658 49.1208ZM29.6492 39.245V38.9967H19.8825L19.8775 39.5408V40.7H29.6475V39.245H29.6492ZM26.5308 37.2817H23.0008V29.7758H26.5308V37.2817ZM20.3733 28.0233H21.2492V27.1475C21.2492 26.8708 21.1567 26.6867 20.9725 26.5025C20.8342 26.3642 20.6033 26.2717 20.3733 26.2717C20.1425 26.2717 19.9117 26.3642 19.7275 26.5025C19.5892 26.6867 19.4967 26.8708 19.4967 27.1475C19.4967 27.3783 19.5892 27.6092 19.7275 27.7475C19.9117 27.9317 20.1425 28.0233 20.3733 28.0233ZM10.1175 24.5967C10.1175 16.5192 16.6892 9.94832 24.7658 9.94832C32.8433 9.94832 39.4142 16.5192 39.4142 24.5967C39.4142 29.4858 36.9425 34.0675 32.9042 36.7733V40.8725V45.755C32.9042 46.6542 32.1758 47.3825 31.2767 47.3825H29.2233L28.675 49.5633C28.6108 50.2492 28.0308 50.7875 27.3283 50.7875H22.2033C21.5008 50.7875 20.9225 50.2492 20.8583 49.5633L20.3267 47.3825H18.2558C17.3575 47.3825 16.6283 46.6542 16.6283 45.755V40.8725V36.7733C12.59 34.0675 10.1175 29.4858 10.1175 24.5967ZM39.2248 35.7895C39.6064 35.4078 40.1798 35.4078 40.5131 35.7895L44.0923 39.3203C44.4264 39.702 44.4264 40.2753 44.0923 40.6087C43.7106 40.9903 43.1372 40.9903 42.8039 40.6087L39.2248 37.0778C38.8914 36.6962 38.8914 36.1228 39.2248 35.7895ZM9.019 35.7895L5.43983 39.3203C5.1065 39.702 5.1065 40.2753 5.43983 40.6087C5.8215 40.9903 6.39483 40.9903 6.72817 40.6087L10.3073 37.0778C10.6407 36.6962 10.6407 36.1228 10.3073 35.7895C9.92567 35.4078 9.35233 35.4078 9.019 35.7895ZM5.91667 22.8092C6.44167 22.8092 6.82333 23.1917 6.82333 23.7167C6.82333 24.1933 6.44167 24.6233 5.91667 24.6233H0.905833C0.381667 24.6233 0 24.1933 0 23.7167C0 23.1917 0.381667 22.8092 0.905833 22.8092H5.91667ZM48.6259 22.8093H43.6151C43.0901 22.8093 42.7084 23.1918 42.7084 23.7168C42.7084 24.1935 43.0901 24.6235 43.6151 24.6235H48.6259C49.1026 24.6235 49.5326 24.1935 49.5326 23.7168C49.5326 23.1918 49.1026 22.8093 48.6259 22.8093ZM37.8414 11.6432L41.4198 8.11232C41.7539 7.73065 41.7539 7.15732 41.4198 6.82399C41.0381 6.44232 40.4656 6.44232 40.1314 6.82399L36.5531 10.3548C36.2189 10.7365 36.2189 11.3098 36.5531 11.6432C36.9347 12.0248 37.5073 12.0248 37.8414 11.6432Z" fill="#222222"/>
</svg>
