<?xml version="1.0" encoding="utf-8"?>
<!-- Generator: Adobe Illustrator 24.1.1, SVG Export Plug-In . SVG Version: 6.00 Build 0)  -->
<svg version="1.1" id="Layer_1" xmlns="http://www.w3.org/2000/svg" xmlns:xlink="http://www.w3.org/1999/xlink" x="0px" y="0px"
	 viewBox="0 0 24 24" style="enable-background:new 0 0 24 24;" xml:space="preserve">
<style type="text/css">
	.st0{fill-rule:evenodd;clip-rule:evenodd;fill:#2AB5CD;}
</style>
<path class="st0" d="M12.2,5c-0.1,0-0.1,0-0.2,0L2,9C1.7,9.1,1.5,9.3,1.5,9.6v5.9c-0.3,0.2-0.5,0.6-0.5,1c0,0.7,0.5,1.2,1.2,1.2
	s1.2-0.5,1.2-1.2c0-0.4-0.2-0.7-0.5-1v-4.8l2.4,1V16c0,0.6,0.4,1,0.8,1.3c0.4,0.3,0.9,0.5,1.5,0.7c1.2,0.4,2.8,0.6,4.5,0.6
	c1.8,0,3.3-0.2,4.5-0.6c0.6-0.2,1.1-0.4,1.5-0.7c0.4-0.3,0.8-0.8,0.8-1.3v-4.4l3.4-1.3c0.3-0.1,0.5-0.4,0.5-0.7
	c0-0.3-0.2-0.6-0.5-0.7l-10-3.9C12.4,5,12.3,5,12.2,5L12.2,5z M12.2,6.5l8,3.1l-8,3.1l-8-3.1L12.2,6.5L12.2,6.5z M6.9,12.2l5.1,2
	c0.2,0.1,0.4,0.1,0.5,0l5.1-2V16c0,0,0,0.1-0.2,0.2c-0.2,0.2-0.6,0.3-1.1,0.5c-1,0.3-2.5,0.5-4.1,0.5c-1.6,0-3.1-0.2-4.1-0.5
	c-0.5-0.2-0.9-0.3-1.1-0.5C6.9,16.1,6.9,16,6.9,16L6.9,12.2L6.9,12.2z"/>
</svg>
