<svg xmlns="http://www.w3.org/2000/svg" width="107" height="25" viewBox="0 0 107 25">
    <g fill="none" fill-rule="evenodd">
        <path d="M0 0H126V76H0z" transform="translate(-10 -26)"/>
        <path fill="#00829B" d="M43.876 27.046c.483-.933 1.66-1.312 2.63-.847.382.183.69.48.88.847l3.058 5.907 6.826.946c1.029.143 1.756 1.03 1.676 2.015l-.015.123c-.062.415-.265.798-.579 1.09l-4.927 4.579 1.165 6.473c.177.986-.475 1.926-1.472 2.157l-.126.026c-.424.07-.86.005-1.24-.186l-6.12-3.068-6.12 3.068c-.92.461-2.047.15-2.58-.69l-.065-.113c-.199-.367-.267-.786-.193-1.194l1.163-6.473-4.926-4.58c-.745-.692-.798-1.816-.143-2.569l.094-.1c.303-.302.7-.498 1.132-.558l6.824-.946zm29.025 0c.483-.933 1.66-1.312 2.63-.847.38.183.69.48.88.847l3.057 5.907 6.826.946c1.029.143 1.756 1.03 1.676 2.015l-.014.123c-.063.415-.266.798-.58 1.09l-4.927 4.579 1.165 6.473c.177.986-.475 1.926-1.472 2.157l-.126.026c-.423.07-.86.005-1.24-.186l-6.12-3.068-6.12 3.068c-.92.461-2.047.15-2.58-.69l-.065-.113c-.199-.367-.266-.786-.193-1.194l1.164-6.473-4.927-4.58c-.745-.692-.798-1.816-.142-2.569l.093-.1c.303-.302.7-.498 1.132-.558l6.825-.946zm29.024 0c.483-.933 1.66-1.312 2.63-.847.381.183.69.48.88.847l3.058 5.907 6.825.946c1.03.143 1.756 1.03 1.676 2.015l-.014.123c-.062.415-.266.798-.58 1.09l-4.927 4.579 1.165 6.473c.177.986-.475 1.926-1.471 2.157l-.127.026c-.423.07-.859.005-1.24-.186l-6.12-3.068-6.12 3.068c-.92.461-2.046.15-2.579-.69l-.066-.113c-.198-.367-.266-.786-.193-1.194l1.164-6.473-4.927-4.58c-.745-.692-.797-1.816-.142-2.569l.094-.1c.302-.302.7-.498 1.131-.558l6.825-.946zm-89.988 3.269l.088.08 7.748 7.758 7.48-7.513c.45-.452 1.194-.467 1.664-.034.44.405.48 1.061.114 1.514l-.079.087-7.546 7.58 7.816 7.826c.45.451.436 1.168-.032 1.602-.44.406-1.122.42-1.576.048l-.088-.08-7.75-7.759-7.478 7.514c-.45.452-1.195.467-1.664.034-.44-.406-.481-1.061-.114-1.514l.079-.087 7.545-7.581-7.816-7.825c-.45-.451-.435-1.168.033-1.602.44-.407 1.121-.42 1.576-.048zm33.695-1.58l-3.257 6.292-7.254 1.005 5.248 4.878-1.242 6.903 6.505-3.26 6.503 3.26-1.241-6.903 5.248-4.878-7.254-1.005-3.256-6.292zm29.024 0l-3.257 6.292-7.254 1.005 5.249 4.878-1.243 6.903 6.505-3.26 6.504 3.26-1.242-6.903 5.248-4.878-7.254-1.005-3.256-6.292zm29.024 0l-3.256 6.292-7.255 1.005 5.249 4.878-1.242 6.903 6.504-3.26 6.504 3.26-1.242-6.903 5.248-4.878-7.254-1.005-3.256-6.292z" transform="translate(-10 -26)"/>
    </g>
</svg>
