<svg xmlns="http://www.w3.org/2000/svg" width="72" height="72" viewBox="0 0 72 72">
    <g fill="none" fill-rule="evenodd">
        <rect width="72" height="72" fill="#8DC740" rx="5"/>
        <path fill="#FFF" d="M25.37 9.433l.1.108 1.239 1.491c.53.637.442 1.583-.195 2.113-.598.496-1.466.45-2.009-.082l-.104-.113-.308-.372-.198.168c-4.851 4.14-7.769 10.164-7.891 16.69l-.004.426c0 12.427 10.073 22.5 22.5 22.5 3.993 0 7.827-1.041 11.197-2.979l.41-.242c-.434-.65-.296-1.513.296-1.996l.117-.086c.648-.433 1.511-.295 1.994.297l.086.116.846 1.265c.454.68.28 1.598-.39 2.065-3.646 2.539-7.883 4.083-12.354 4.466.32.36.653.775.998 1.24l.366.506c2.152 2.485 2.976 4.13 2.114 5.34-.579.813-2.471 1.018-5.705.977l-1.061-.02c-3.538-.087-5.398-.297-5.787-1.101-.36-.744.033-1.762 1.27-3.859l.462-.77c.674-.992 1.288-1.8 1.857-2.43C22.684 53.542 13 42.834 13 29.863c0-8.224 3.923-15.797 10.429-20.571.6-.44 1.423-.371 1.941.142zm12.546 46.052l-.024.004c-.513.197-1.399 1.114-2.511 2.683l-.34.49c-.615 1.013-1.053 1.806-1.31 2.37l-.011.022.172.022.436.049c.96.096 2.22.167 3.477.194 1.349.03 2.596.007 3.534-.07.488-.04.88-.093 1.151-.155l-.034.006c-.022-.07-.053-.15-.093-.239l-.067-.14c-.298-.597-.88-1.403-1.801-2.473-1.42-2-2.424-2.828-2.603-2.76zm.584-45.456c11.045 0 20 8.955 20 20 0 11.046-8.955 20-20 20s-20-8.954-20-20c0-11.045 8.955-20 20-20zm-12.122 8.082C23.36 21.18 21.5 25.387 21.5 30.03c0 5.07 2.218 9.62 5.737 12.734l2.902-1.431c1.069-.527 2.29-.64 3.433-.325l.244.074.588.196c.712.237 1.34.67 1.817 1.244l.153.197 3.116 4.283c.963-.055 1.905-.19 2.82-.4l1.079-4.59c.3-1.273-.044-2.607-.908-3.577l-.158-.167-1.015-1.015c-.502-.502-1.09-.911-1.734-1.208l-.28-.12-1.166-.466c-1.081-.433-2.308-.217-3.176.543l-.15.14-.82.82c-1.032 1.032-2.623 1.23-3.87.505l-.167-.105-.327-.218c-1-.666-1.5-1.86-1.289-3.029l.042-.195.825-3.297c.462-1.851.385-3.793-.218-5.597l-.127-.359zm4.832 24.931l-.186.084-2.028 1c2.32 1.568 5.049 2.578 7.993 2.837l-2.233-3.068c-.21-.289-.493-.515-.818-.657l-.166-.064-.589-.196c-.646-.215-1.346-.191-1.973.064zM38.5 13.03c-3.975 0-7.63 1.365-10.526 3.65l2.748 7.281c.814 2.158.988 4.501.506 6.75l-.092.397-.824 3.298c-.093.369.033.754.315.998l.1.076.327.218c.44.293 1.013.262 1.416-.062l.097-.088.822-.82c1.38-1.381 3.423-1.844 5.254-1.211l.228.085 1.166.466c.894.358 1.715.874 2.425 1.522l.26.25 1.015 1.014c1.408 1.408 2.022 3.418 1.652 5.363l-.054.253-.814 3.463c3.79-1.436 6.934-4.188 8.872-7.699l-3.084-4.489c-.792-1.152-1.242-2.501-1.302-3.893L49 29.53v-.459c0-.78-.13-1.552-.384-2.287l-.117-.313-.758-1.895c-.012-.03-.027-.059-.045-.085-.141-.213-.429-.27-.641-.129-1.203.802-2.775.747-3.915-.117l-.16-.129-2.94-2.52c-1.87-1.603-2.565-4.178-1.775-6.492l.087-.239.71-1.825c-.187-.006-.374-.01-.562-.01zm2.632.203l-.916 2.357c-.59 1.517-.2 3.232.968 4.345l.157.142 2.94 2.52c.47.403 1.15.444 1.664.101 1.132-.754 2.661-.448 3.415.683.063.095.12.194.17.296l.068.156.758 1.895c.378.945.593 1.947.636 2.962l.008.381v.46c0 1.008.28 1.995.807 2.851l.15.23 2.416 3.517c.728-1.893 1.127-3.95 1.127-6.099 0-8.493-6.229-15.532-14.368-16.797z"/>
    </g>
</svg>
