<svg xmlns="http://www.w3.org/2000/svg" width="474" height="299" viewBox="0 0 474 299">
    <g fill="none" fill-rule="evenodd">
        <g fill-rule="nonzero">
            <path fill="#B4E7EF" d="M33.298 102.497c.92 1.25 2.225 2.163 3.715 2.596.951.326 1.944.516 2.948.564 1.447.092 2.9-.006 4.321-.292 0 0 6.446-27.356 22.31-43.216 15.863-15.86 37.146-37.932 28.97-54.231-8.177-16.3-31.721-2.757-45.949 26.69-14.238 29.445-16.315 67.889-16.315 67.889z" transform="translate(370.835 62.727)"/>
            <path fill="#FFF" d="M37.013 105.093c.951.326 1.944.516 2.948.564 9.049-49.186 40.653-80.75 40.974-81.071.387-.375.544-.929.411-1.451-.133-.523-.536-.934-1.055-1.077-.52-.143-1.075.003-1.457.383-.332.318-32.594 32.499-41.821 82.652z" transform="translate(370.835 62.727)"/>
            <path fill="#B4E7EF" d="M7.06 48.784c14.863 48.297 10.583 57.45 10.583 57.45l3.531.28 3.001.244 4.28.34C35.54 89.248 41.704 7.588 16.47.999-9.22-5.707 1.996 32.342 7.061 48.785z" transform="translate(370.835 62.727)"/>
            <path fill="#FFF" d="M14.265 25.108c.136.472 11.642 44.516 6.909 81.405l3 .245c4.76-37.496-6.871-81.944-6.995-82.422-.225-.791-1.041-1.256-1.836-1.045-.794.21-1.274 1.019-1.078 1.817z" transform="translate(370.835 62.727)"/>
            <path fill="#B4E7EF" d="M43.554 109.113l2.75 1.567 2.631 1.506 1.578.896c-.011-.396 2.11-3.242 26.489-22.703 10.07-8.045 36.986-29.725 19.907-39.003-15.666-8.501-50.212 43.686-53.355 57.737z" transform="translate(370.835 62.727)"/>
            <path fill="#FFF" d="M46.304 110.68l2.63 1.506C60.222 90.25 88.837 67.179 89.15 66.929c.431-.332.65-.872.57-1.412-.08-.54-.444-.993-.953-1.187-.51-.194-1.083-.097-1.5.253-1.26 1.018-29.381 23.668-40.962 46.097z" transform="translate(370.835 62.727)"/>
        </g>
        <path fill="#EAF5F8" d="M231.637 126.677s-73.184-4.226-125.194 11.291c-52.01 15.517-64.758 2.543-87.705 12.979-22.947 10.435-41.21 70.945 49.192 83.137 90.404 12.192 81.798 55.062 144.266 63.242 62.467 8.179 106.45-15.513 137.364-29.897 30.915-14.384 27.41-11.967 69.798-30.52 42.389-18.555 49.72-84.834-18.485-75.527-68.204 9.308-46.85-37.258-169.236-34.705z"/>
        <g fill-rule="nonzero" transform="translate(45.309 88.515)">
            <ellipse cx="22.33" cy="98.003" fill="#E0E9EF" rx="21.956" ry="7.146"/>
            <ellipse cx="33.19" cy="90.069" fill="#E0E9EF" rx="32.816" ry="11.181"/>
            <g transform="translate(2.54 69.478)">
                <ellipse cx="48.055" cy="20.027" fill="#003C51" rx="8.365" ry="8.745" transform="rotate(-9.316 48.055 20.027)"/>
                <path fill="#003C51" d="M36.377 21.341l-5.081-5.24c-1.823-1.88-2.729-4.47-2.477-7.08.252-2.61 1.637-4.978 3.785-6.473C35.144.803 39.781-.31 42.556 1.03 47.871 3.597 54.56 9.745 56.33 18.787l-19.952 2.554z"/>
                <path fill="#F37C7C" d="M18.592 21.632c-1.724-.423-3.534-.34-5.212.238-1.77.58-4.47 1.178-5.666-.052-1.854-1.912-4.901-7.634-6.986-6.435-2.085 1.2 1.17 15.035 4.108 17.159 2.938 2.123 12.797-1.714 13.443-2.25.567-.464 6.677-6.976.313-8.66z"/>
                <path fill="#003C51" d="M49.381 9.024s-29.713 11.89-38.576 12.81L13.516 32.1s22.496 1.099 37.293-3.786L49.38 9.024z"/>
            </g>
            <path fill="#002135" d="M30.178 82.899s19.209 1.122 20.418-.84c1.209-1.963 4.417-3.676 4.747-3.035.33.642-.366 16.807-25.165 3.875zM47.53 95.271s-26.351 10.546-33.236 2.335"/>
            <ellipse cx="11.924" cy="89.207" fill="#003C51" rx="8.364" ry="8.745"/>
            <path fill="#002135" d="M27.138 51.619c-3.259.672-6.586-.149-9.487-2.342-4.45-3.413-10.014-9.52-9.616-22.605.265-8.793 3.741-16.77 9.192-21.095 7.496-5.962 18.286-8.428 24.585-.326 9.58 12.325 8.89 33.061 3.91 38.834-3.494 4.05-13.137 6.46-18.584 7.534z"/>
            <path fill="#003C51" d="M23.66 88.604l4.168-5.995c1.493-2.151 1.968-4.852 1.298-7.386-.67-2.534-2.415-4.645-4.775-5.771-2.782-1.317-6.054-1.037-8.574.732-4.831 3.398-11.935 9.935-12.22 19.145l20.103-.725z"/>
            <path fill="#B4E7EF" d="M26.066 80.973C10.161 80.203.313 63.115 7.204 48.714 10.896 41 17.84 32.793 30.689 32.735c24.28-.108 26.02 22.467 24.702 32.601-.912 7.008-12.696 16.442-29.325 15.637z"/>
            <path fill="#4A91A9" d="M32.86 80.876l-.02-.18c-.007-.043-.01-.085-.011-.128 0-.773.583-1.42 1.35-1.497.766-.077 1.466.442 1.617 1.2l.027.134-.134.026c-.88.173-1.786.319-2.693.428l-.136.017zm1.467-1.54c-.678.001-1.227.552-1.228 1.232v.004c.808-.101 1.613-.23 2.397-.382-.164-.508-.636-.853-1.169-.854zm-8.772-.319c-.827 0-1.498-.672-1.498-1.502s.67-1.503 1.498-1.503 1.498.673 1.498 1.503c0 .83-.67 1.501-1.498 1.502zm0-2.734c-.678 0-1.228.552-1.228 1.232 0 .68.55 1.231 1.228 1.231.678 0 1.228-.551 1.228-1.231s-.55-1.231-1.228-1.232zm17.101 2.039l-.048-.135c-.171-.46-.106-.975.174-1.378.28-.402.74-.64 1.23-.637.526-.001 1.013.277 1.28.732l.074.123-.127.063c-.798.425-1.623.819-2.451 1.173l-.132.059zm1.356-1.878c-.677 0-1.227.551-1.227 1.231 0 .095.012.19.035.281.73-.315 1.454-.662 2.16-1.032-.23-.304-.588-.482-.968-.482v.002zm-9.685-2.72c-.827 0-1.498-.674-1.497-1.503 0-.83.67-1.503 1.498-1.503.827 0 1.498.672 1.498 1.502-.001.83-.672 1.502-1.499 1.502v.002zm0-2.735c-.678 0-1.227.552-1.227 1.232 0 .68.55 1.23 1.228 1.23.678 0 1.227-.55 1.227-1.23 0-.681-.55-1.233-1.228-1.234v.002zm-18.06 2.735c-.828 0-1.498-.673-1.498-1.503 0-.83.67-1.503 1.497-1.503.828 0 1.499.672 1.499 1.502-.002.83-.672 1.5-1.498 1.502v.002zm0-2.735c-.678 0-1.228.551-1.228 1.231s.55 1.232 1.228 1.232c.678 0 1.227-.552 1.227-1.232 0-.68-.549-1.232-1.227-1.233v.002zm35.1 1.725v-.335c-.002-.776.59-1.424 1.361-1.49l.325-.03-.208.255c-.381.464-.801.925-1.247 1.372l-.232.228zm.997-1.454c-.314.139-.556.404-.665.73.23-.241.452-.484.665-.729zm-8.782-2.907c-.828 0-1.498-.673-1.498-1.503 0-.83.67-1.502 1.498-1.502.827 0 1.498.672 1.499 1.502-.002.83-.672 1.501-1.5 1.502v.001zm0-2.735c-.497 0-.945.3-1.135.761-.19.46-.085.99.266 1.343.352.352.88.457 1.34.267.458-.191.757-.64.757-1.14 0-.68-.55-1.231-1.228-1.232v.001zm-18.537 2.735c-.827 0-1.498-.672-1.498-1.502s.67-1.503 1.498-1.503c.827 0 1.498.672 1.498 1.502-.001.83-.671 1.501-1.498 1.502v.001zm0-2.735c-.497 0-.945.3-1.135.761-.19.46-.085.99.267 1.343.351.352.88.457 1.339.267.459-.191.758-.64.757-1.14 0-.68-.55-1.23-1.228-1.232v.001zm-17.84 2.703l-.049-.105c-.386-.822-.723-1.666-1.01-2.528l-.036-.11.101-.053c.213-.116.452-.177.694-.178.747-.002 1.38.55 1.485 1.291.103.742-.355 1.447-1.074 1.652l-.11.031zm-.761-2.605c.262.774.566 1.533.91 2.275.55-.214.869-.79.76-1.372-.109-.581-.616-1.002-1.205-1-.161 0-.32.032-.468.096h.003zm45.992-2.658c-.606 0-1.153-.366-1.385-.927-.232-.562-.104-1.209.325-1.64.428-.43 1.073-.558 1.633-.325.56.232.926.78.926 1.389-.002.83-.673 1.502-1.501 1.502l.002.001zm0-2.735c-.678 0-1.227.552-1.227 1.232 0 .68.55 1.231 1.228 1.231.678 0 1.228-.551 1.228-1.231 0-.327-.13-.641-.361-.872-.231-.232-.544-.361-.87-.361l.002.001zM33.82 63.058c-.827-.001-1.497-.674-1.499-1.503.039-.872.712-1.581 1.578-1.663.827.001 1.498.674 1.499 1.503-.038.873-.712 1.583-1.578 1.663zm.079-2.894c-.503-.001-.956.308-1.139.779-.222.38-.224.85-.005 1.23.22.382.626.616 1.065.613.503.001.956-.308 1.139-.778l.008-.016c.104-.182.159-.387.16-.597 0-.327-.13-.64-.36-.872-.231-.231-.544-.36-.87-.36l.002.001zm-18.14 2.894c-.606 0-1.153-.366-1.385-.927-.232-.562-.104-1.209.325-1.64.428-.43 1.073-.558 1.633-.325.56.232.926.78.926 1.389-.002.83-.673 1.502-1.501 1.502l.002.001zm0-2.735c-.678 0-1.227.552-1.227 1.232 0 .68.55 1.231 1.228 1.231.678 0 1.228-.551 1.228-1.231 0-.327-.13-.641-.361-.872-.231-.232-.544-.361-.87-.361l.002.001zm28.46-.897c-.607 0-1.153-.366-1.385-.927-.232-.562-.104-1.208.325-1.638.428-.43 1.073-.558 1.632-.326.56.233.925.78.925 1.389-.001.83-.673 1.502-1.5 1.501l.002.001zm0-2.734c-.678 0-1.227.552-1.227 1.231 0 .68.55 1.23 1.227 1.23s1.226-.55 1.227-1.23c0-.327-.13-.64-.36-.872-.231-.23-.544-.36-.87-.36l.002.001zM25.76 59.426c-.606 0-1.152-.366-1.384-.927-.232-.562-.104-1.208.325-1.638.428-.43 1.073-.558 1.633-.326.56.233.924.78.924 1.389 0 .398-.158.78-.44 1.062-.281.282-.663.44-1.06.44h.002zm0-2.734c-.677 0-1.226.552-1.225 1.232 0 .68.55 1.23 1.227 1.23s1.226-.55 1.227-1.23c0-.328-.13-.641-.361-.873-.231-.23-.544-.36-.87-.36l.002.001zM7.62 59.426c-.605 0-1.152-.366-1.384-.927-.231-.562-.103-1.208.325-1.638.429-.43 1.073-.558 1.633-.326.56.233.925.78.925 1.389-.002.83-.673 1.502-1.501 1.501l.003.001zm0-2.734c-.677 0-1.226.552-1.226 1.231 0 .68.55 1.23 1.227 1.23s1.227-.55 1.227-1.23c0-.327-.13-.64-.36-.872-.23-.23-.544-.36-.87-.36l.003.001zm45.45-2.56c-.607 0-1.153-.367-1.386-.928-.232-.562-.104-1.209.325-1.639.428-.43 1.073-.559 1.633-.326.56.232.926.78.926 1.389-.001.83-.673 1.503-1.501 1.502l.003.001zm0-2.736c-.678 0-1.228.552-1.228 1.232 0 .68.55 1.231 1.228 1.231.678 0 1.228-.551 1.228-1.231 0-.327-.13-.641-.361-.872-.23-.231-.544-.361-.87-.36h.003zm-18.537 2.735c-.827 0-1.498-.673-1.498-1.503 0-.022.001-.043.005-.064v-.036c-.004-.02-.005-.042-.005-.063 0-.537.285-1.033.749-1.302.463-.268 1.034-.268 1.498 0 .464.269.75.765.75 1.302 0 .021-.003.042-.006.063v.036c.003.021.005.042.005.064-.002.83-.673 1.502-1.5 1.502l.002.001zm0-2.894c-.678 0-1.227.552-1.228 1.232l.008.073c0 .02-.002.04-.005.06-.013.444.214.862.594 1.091.381.23.855.235 1.24.014.386-.221.623-.634.619-1.08-.006-.041-.007-.057-.008-.072 0-.02.002-.04.004-.06.007-.33-.119-.65-.35-.888-.23-.236-.547-.37-.877-.371l.003.001zm-18.061 2.894c-.606 0-1.153-.366-1.385-.927-.232-.562-.104-1.209.324-1.639.429-.43 1.074-.559 1.634-.326.56.232.925.78.925 1.389 0 .83-.673 1.503-1.5 1.502l.002.001zm0-2.735c-.678 0-1.227.552-1.227 1.232 0 .68.55 1.231 1.228 1.231.678 0 1.227-.551 1.227-1.231 0-.327-.13-.641-.36-.872-.231-.231-.544-.361-.87-.36h.002zm26.874-2.53c-.828 0-1.499-.672-1.499-1.503 0-.83.671-1.503 1.5-1.503.827 0 1.498.673 1.498 1.503-.002.83-.674 1.503-1.501 1.502l.002.002zm0-2.734c-.678 0-1.227.552-1.227 1.232 0 .68.55 1.23 1.228 1.23.678 0 1.227-.55 1.227-1.23 0-.328-.13-.642-.36-.873-.231-.231-.544-.36-.87-.36h.002zm-36.17 2.596l.163-.336c.246-.504.508-1.02.785-1.524l.18-.33.072.368c.02.098.03.198.03.298 0 .593-.349 1.13-.889 1.372l-.342.152zm.927-1.245c-.093.178-.185.355-.275.533.134-.153.227-.336.273-.534l.002.001zm16.945 1.224c-.607 0-1.153-.365-1.386-.927-.232-.562-.104-1.209.325-1.639.429-.43 1.073-.559 1.633-.326.56.233.926.78.926 1.389-.002.83-.673 1.503-1.5 1.502l.002.001zm0-2.734c-.678 0-1.228.551-1.227 1.231 0 .68.55 1.232 1.228 1.231.677 0 1.227-.551 1.227-1.231 0-.327-.13-.641-.36-.873-.231-.23-.545-.36-.87-.36l.002.002zm27.03-2.37l-.342-.112c-.617-.198-1.036-.773-1.036-1.423 0-.045.004-.09.01-.134l.048-.389.204.291c.325.468.64.956.933 1.457l.182.31zm-1.062-1.204c.065.234.198.442.381.6-.125-.204-.252-.404-.383-.6h.002zM33.82 43.412c-.022 0-.043-.002-.064-.005-.05.003-.072.005-.094.005-.828 0-1.499-.673-1.499-1.503 0-.83.67-1.504 1.499-1.504.02 0 .042.003.063.006.05 0 .072-.006.094-.006.828 0 1.499.673 1.499 1.504 0 .83-.671 1.503-1.499 1.503zm-.138-2.732c-.677-.006-1.23.54-1.237 1.22-.006.679.539 1.234 1.216 1.24l.072-.008c.02 0 .042.002.063.005h.006c.438.004.845-.227 1.067-.606.223-.379.226-.847.01-1.23-.215-.382-.618-.62-1.056-.624l-.071.008c-.031 0-.046-.003-.064-.005h-.006zM15.76 43.412c-.827 0-1.498-.673-1.498-1.503 0-.83.67-1.503 1.498-1.503s1.499.673 1.499 1.503c-.002.83-.674 1.502-1.501 1.501l.002.002zm0-2.735c-.678 0-1.228.551-1.228 1.232 0 .68.55 1.232 1.228 1.232.679 0 1.229-.552 1.229-1.232 0-.327-.13-.641-.361-.872-.231-.232-.544-.362-.87-.361h.002zM25.76 37.12c-.827 0-1.498-.673-1.498-1.503 0-.83.67-1.503 1.498-1.503s1.498.673 1.498 1.503c-.001.83-.673 1.502-1.5 1.502h.002zm0-2.735c-.678 0-1.228.552-1.228 1.232 0 .68.55 1.232 1.228 1.232.679 0 1.229-.551 1.229-1.232 0-.327-.13-.641-.361-.872-.231-.232-.544-.361-.87-.361l.002.001z"/>
            <path fill="#AB674D" d="M38.397 76.002s-7.765-3.8-10.161-2.02c-2.396 1.779-1.494 9.619 11.023 6.454 12.516-3.165-.862-4.434-.862-4.434z"/>
            <path fill="#884228" d="M27.686 78.396s1.158 1.948 3.09 2.336c1.932.387 7.499-4.672 5.115-6.53-2.383-1.858-8.205 4.194-8.205 4.194z"/>
            <path fill="#9BD7E2" d="M38.759 69.237s5.794-5.892 3.283-24.941c-1.388-10.53 11.228 23.044.42 26.581-10.807 3.537-3.703-1.64-3.703-1.64z"/>
            <path fill="#B4E7EF" d="M36.941 35.542c.353-.92 1.325-1.439 2.282-1.22 6.941 1.412 12.61 6.422 14.881 13.15 4.382 12.37 3.652 27.198-15.338 33.708-2.113.845-4.488-9.998-.799-11.17 3.245-1.029 8.044-2.457 6.522-17.013-.543-5.405-2.768-10.5-6.36-14.565-.942-1.054-1.514-1.94-1.188-2.89z"/>
            <path fill="#4A91A9" d="M43.32 77.033c.737.107 1.283.74 1.282 1.487 0 .11-.013.218-.037.325l-.013.063-.055.03c-.663.355-1.286.665-1.905.947l-.057.024-.056-.026c-.676-.313-1.02-1.075-.809-1.79.211-.716.915-1.168 1.65-1.06zm-.215.255c-.564 0-1.056.387-1.19.938-.135.55.123 1.122.625 1.383.578-.265 1.16-.554 1.775-.883.013-.068.02-.137.02-.206-.001-.327-.13-.64-.361-.871-.198-.198-.456-.322-.731-.353l-.138-.008zm8.85-5.563c.236 0 .467.058.676.168l.142.072-.095.128c-.527.715-1.1 1.396-1.714 2.038l-.112.116-.096-.127c-.193-.257-.298-.57-.299-.892.001-.83.671-1.502 1.499-1.503zm0 .268c-.677 0-1.227.551-1.228 1.231 0 .209.055.413.158.594.523-.556 1.015-1.141 1.474-1.753-.13-.047-.266-.072-.403-.072zm-8.733-5.697l.112.056c.625.307.957 1.007.798 1.687-.147.635-.685 1.096-1.322 1.153l-.136.006c-.502 0-.97-.252-1.248-.67l-.07-.107.1-.077c.688-.53 1.266-1.189 1.702-1.94l.064-.108zm.101.36c-.421.696-.962 1.313-1.597 1.822.308.377.809.536 1.277.405.468-.13.815-.526.885-1.009.069-.482-.152-.96-.565-1.218zm8.202-5.76c.828 0 1.499.673 1.499 1.503-.001.83-.672 1.503-1.499 1.504-.828 0-1.499-.673-1.499-1.504 0-.83.671-1.503 1.499-1.503zm0 .272c-.678 0-1.227.552-1.227 1.232 0 .68.55 1.231 1.228 1.23.678 0 1.227-.55 1.227-1.23 0-.68-.55-1.232-1.228-1.232zm.633-9.199c.828 0 1.499.673 1.499 1.504 0 .83-.671 1.502-1.499 1.503-.828 0-1.499-.673-1.499-1.503 0-.83.671-1.504 1.5-1.504zm0 .272c-.678 0-1.227.552-1.227 1.232 0 .68.55 1.231 1.228 1.23.678 0 1.227-.55 1.227-1.23 0-.68-.55-1.232-1.228-1.232zm-.982-10.823l.049.063c.496.644.954 1.317 1.37 2.015l.04.064-.037.068c-.26.484-.764.786-1.311.788-.79 0-1.445-.615-1.495-1.406-.049-.791.524-1.484 1.308-1.582l.076-.01zm-.114.29h-.003c-.552.103-.963.569-.999 1.13-.035.561.314 1.075.848 1.247.534.172 1.116-.043 1.413-.52-.385-.642-.805-1.262-1.259-1.856zm-8.437-6.578l.06.024c.689.268 1.362.573 2.019.912l.058.03.012.064c.021.1.031.202.031.305-.002.828-.672 1.5-1.498 1.5-.679 0-1.272-.458-1.446-1.116-.173-.658.118-1.35.708-1.686l.056-.033zm.024.3c-.495.317-.695.943-.477 1.49.218.548.793.863 1.37.751.577-.112.994-.62.992-1.209 0-.063-.004-.125-.014-.187-.605-.311-1.234-.594-1.87-.845z"/>
            <path fill="#AB674D" d="M23.118 72.727s11.61-3.934 13.253-1.326c1.642 2.608-.477 9.874-14.45 8.122-13.971-1.752-3.48-7.061 1.197-6.796z"/>
            <path fill="#884228" d="M25.714 71.883s.535-.2.556.278c.02.478.337 6.919-1.866 7.59-2.203.672-.258-7.69 1.31-7.868z"/>
            <path fill="#AB674D" d="M31.676 45.863l-.99.116c-3.425.402-6.526-2.058-6.926-5.494l-.77-6.612c-.199-1.704 1.018-3.248 2.717-3.447l7.239-.848c1.699-.2 3.237 1.02 3.436 2.725l.77 6.613c.4 3.435-2.051 6.546-5.476 6.947z"/>
            <path fill="#884228" d="M36.892 34.712l.053 1.028c.04.785-.403 1.516-1.117 1.84-2.194.995-7.02 2.83-10.86 1.784-.744-.202-1.295-.83-1.398-1.597l-.536-4.003c-.078-.59.12-1.181.538-1.602.417-.422 1.006-.624 1.594-.548l10.065 1.3c.915.118 1.614.875 1.66 1.798z"/>
            <path fill="#AB674D" d="M34.14 7.613c4.119 2.011 7.988 6.465 8.638 11.489.946 7.348 1.834 17.554-10.031 17.815-13.218.291-17.825-13.788-17.652-16.998.442-8.266 6.532-18.414 19.045-12.306z"/>
            <path fill="#002135" d="M32.898 26.764l.027.004c.057.005 1.394.123 1.985-.376.168-.134.273-.332.29-.547.082-1.02-1.25-2.469-1.307-2.53-.04-.047-.101-.067-.16-.055-.06.013-.108.058-.125.116-.018.059-.002.122.041.166.36.388 1.278 1.552 1.219 2.276-.01.125-.072.241-.171.318-.537.275-1.144.38-1.741.3-.086-.007-.163.052-.178.138-.016.085.037.167.12.19zM35.787 19.701c-.035-.052-.048-.116-.037-.178.012-.062.048-.117.1-.152 1.521-1.01 2.662-1.125 4.208-.418.113.058.16.195.108.311-.053.116-.187.17-.305.123-1.407-.642-2.35-.545-3.747.383-.053.035-.117.048-.18.035-.061-.013-.115-.05-.15-.103h.003zM24.31 23.505c-.112-.07-.144-.218-.074-.33.977-1.546 1.972-2.119 3.669-2.106.131.001.237.109.237.24 0 .064-.025.125-.07.17-.046.044-.107.07-.17.068-1.545-.009-2.37.465-3.264 1.884-.07.111-.217.144-.329.074z"/>
            <circle cx="38.503" cy="21.478" r="1" fill="#002135"/>
            <circle cx="26.842" cy="24.065" r="1" fill="#002135"/>
            <path fill="#AB674D" d="M18.553 24.736l-2.963-.294c-.575-.067-1.143.175-1.494.638-.35.462-.432 1.076-.214 1.614.032.07.068.137.11.202l.808 1.28c1.075 1.704 3.197 2.41 5.074 1.691l.49-.19-1.81-4.94zM41.37 19.47l2.779-1.073c.574-.26 1.248-.16 1.721.26.473.418.657 1.076.47 1.68l-.44 1.45c-.586 1.93-2.446 3.176-4.446 2.982l-.521-.05.437-5.25z"/>
            <path fill="#002135" d="M19.176 24.54c5.434-3.13 15.643-9.387 15.13-11.954-.018-.046 4.776 7.396 9.273 6.115 4.497-1.28-5.314-18.243-16.37-14.884-9.615 2.92-15.477 10.157-13.013 18.666.283 1.016 1.017 1.845 1.99 2.247.972.402 2.076.332 2.99-.19zM35.379 33.043c-.977.072-1.942-.25-2.682-.896-.09-.089-.095-.234-.01-.33.085-.095.23-.106.328-.025.653.564 1.504.84 2.363.768.839-.138 1.579-.764 2.198-1.863.065-.115.21-.155.325-.09.115.065.155.21.09.326-.699 1.232-1.55 1.938-2.54 2.102l-.072.008z"/>
            <path fill="#9BD7E2" d="M19.837 42.154s-4.076 25.56 4.943 29.431c.127.08-7.336-.914-7.971-5.568-.636-4.654.102-19.584 3.028-23.863z"/>
            <path fill="#F37C7C" d="M41.049 85.998c1.469-.689 3.116-.9 4.71-.604 1.651.286 4.146.439 5.086-.964 1.46-2.176 3.573-8.295 5.578-7.447 2.005.847.584 14.967-1.824 17.531-2.408 2.564-11.686.375-12.326-.048-.56-.368-6.76-5.786-1.224-8.468z"/>
            <path fill="#003C51" d="M8.84 78.564s31.24 6.908 40.138 6.377l-1.017 10.57s-22.022 4.737-37.411 2.32L8.84 78.564z"/>
            <path fill="#B4E7EF" d="M20.057 39.757c.17-.975-.266-1.957-1.102-2.483-.836-.526-1.907-.493-2.709.085C11.7 40.665 5.381 47.278 4.643 58.791c-1.1 17.13 9.957 21.469 17.407 21.59.907.007 1.74-.5 2.155-1.308 1.285-2.468 3.186-7.757-1.876-9.156-3.136-.718-6.616-4.897-4-20.092l1.728-10.068z"/>
            <path fill="#4A91A9" d="M22.855 75.633c-.758.079-1.477-.35-1.769-1.057-.292-.705-.087-1.52.504-2.002.59-.482 1.426-.519 2.056-.09.63.43.904 1.223.674 1.952-.145.696-.756 1.196-1.465 1.197zm.047-2.894c-.588 0-1.093.417-1.207.995-.044.127-.068.261-.07.396-.001.634.479 1.165 1.108 1.227.63.061 1.202-.367 1.324-.99.044-.127.068-.261.071-.396-.001-.68-.55-1.23-1.226-1.232zm-9.33-2.476c-.827 0-1.497-.673-1.497-1.502 0-.83.67-1.503 1.497-1.503.828 0 1.499.672 1.499 1.502s-.671 1.502-1.498 1.503zm0-2.735c-.496 0-.944.3-1.135.76-.19.461-.085.991.267 1.344.35.352.88.457 1.338.266.46-.19.759-.64.758-1.138 0-.68-.55-1.23-1.227-1.232zm-9.157-2.561l-.019-.143c-.11-.863-.18-1.778-.209-2.719l-.004-.144.143.004c.766.02 1.393.618 1.452 1.384.059.767-.47 1.454-1.223 1.592l-.14.026zm.048-2.718c.03.824.09 1.626.183 2.39.549-.168.907-.695.863-1.269-.044-.573-.479-1.039-1.046-1.12zm9.823-.913c-.828 0-1.498-.673-1.498-1.503 0-.83.67-1.502 1.498-1.502.827 0 1.498.672 1.498 1.502s-.671 1.502-1.498 1.503zm0-2.734c-.678 0-1.227.551-1.226 1.231 0 .68.549 1.23 1.226 1.23.678 0 1.227-.55 1.228-1.23-.001-.68-.55-1.23-1.228-1.231zm-9.288-2.56c-.106-.001-.21-.013-.314-.035l-.127-.027.02-.127c.15-.956.331-1.864.538-2.691l.031-.124.127.024c.76.142 1.288.842 1.217 1.615-.072.773-.718 1.364-1.492 1.363v.001zm-.13-.28c.63.07 1.21-.357 1.335-.981.125-.625-.247-1.242-.856-1.422-.183.745-.344 1.553-.48 2.403zm8.705-5.145c-.607 0-1.153-.366-1.385-.927-.233-.562-.105-1.209.324-1.639.429-.43 1.073-.559 1.633-.326.56.232.926.78.926 1.389-.001.83-.671 1.502-1.498 1.503zm0-2.735c-.678 0-1.228.552-1.228 1.232 0 .68.55 1.231 1.228 1.231.678 0 1.227-.551 1.227-1.231s-.55-1.231-1.227-1.232zm.713-8.851c-.077-.002-.154-.01-.23-.023l-.29-.045.223-.19c.508-.439 1.02-.85 1.569-1.262l.236-.177-.02.295c-.052.786-.702 1.398-1.488 1.402zm1.149-1.088c-.344.265-.677.532-1.004.807.459-.058.846-.37 1.002-.806h.002z"/>
        </g>
        <g>
            <path fill="#E0E9EF" d="M2.171 113.011l164.785-49.526 120.455 63.425c.883.499 1.488 1.374 1.642 2.376.154 1.001-.16 2.018-.853 2.758-12.586 13.269-62.06 63.981-86.387 67.57-11.019 1.047-55.494-29.968-121.89-42.112-7.326-.7-62.3-24.913-78.634-40.343-.63-.594-.905-1.474-.725-2.322.18-.847.79-1.539 1.607-1.826z" transform="translate(119.894 43.91)"/>
            <path fill="#B4E7EF" d="M111.486 130.945s30.337-8.413 59.542 8.777h.003c29.206 12.416 37.596 10.97 37.596 10.97v39.33s-33.778-10.852-48.947-17.298c-12.714-5.403-49.484-11.734-51.421-10.111-1.937 1.622 0-30.818 0-30.818l3.227-.85z" transform="translate(119.894 43.91)"/>
            <path fill="#B4E7EF" d="M107.399 125.8s-7.358-11.935-37.829-19.38c-13.583-4.263-52.46-31.147-52.46-31.147V114.8c0 2.833 1.507 5.453 3.958 6.877 9.229 5.363 32.313 18.302 44.417 20.853 11.217 2.919 42.51 18.702 42.51 18.702l-.596-35.432z" transform="translate(119.894 43.91)"/>
            <path fill="#FFF" d="M17.11 75.273s88.908-48.249 95.6-54.298c6.691-6.048 67.875 29.926 65.007 36.93-2.868 7.004-85.7 56.327-85.7 56.327S43.878 103.148 17.11 75.273z" transform="translate(119.894 43.91)"/>
            <g fill="#62CBEE" fill-rule="nonzero">
                <path d="M190.091 76.254c-10.274 0-81.492-26.544-84.61-27.708l.224-.596c.785.293 78.585 29.292 84.996 27.611l.162.616c-.253.057-.512.083-.772.077zM189.892 84.859c-7.131 0-75.787-22.31-83.859-24.94l.199-.606c32.468 10.585 81.59 25.96 83.842 24.92l.345.536c-.165.075-.347.105-.527.09zM189.947 88.25c-2.375 0-10.358-1.605-39.229-10.921-19.035-6.142-38.029-12.706-38.219-12.772l.209-.601c30.183 10.438 75.824 25.325 77.834 23.558l.484.415c-.111.132-.27.32-1.079.32zM189.818 97.857c-9.929 0-71.654-23.187-79.012-25.965l.225-.595c30.337 11.451 76.557 27.778 79.578 25.817l.347.534c-.355.168-.747.24-1.138.209zM79.391 36.492C56.65 35.441.883 1.2.322.854L.657.312c.56.344 56.185 34.5 78.764 35.544l-.03.636z" transform="translate(119.894 43.91) translate(16.57 85.32)"/>
                <path d="M74.45 39.406C59.591 39.406 2.961 6.378.526 4.954l.322-.55c.603.353 60.404 35.238 74.121 34.35l.04.637c-.178.01-.365.015-.559.015zM72.91 45.7C61.97 45.7 2.698 16.262.127 14.98l.285-.573c.643.319 64.416 31.99 73.078 30.612l.1.629c-.224.035-.452.052-.68.05zM69.732 51.752C56.693 51.752 2.61 25.151.305 24.014l.281-.573c.566.279 56.708 27.871 69.292 27.67l.012.638c-.052.003-.103.003-.158.003zM67.063 57.62c-9.635 0-64.178-27.252-66.518-28.424l.285-.57c.574.29 57.795 28.887 66.465 28.35l.04.637c-.085.004-.177.007-.272.007z" transform="translate(119.894 43.91) translate(16.57 85.32)"/>
            </g>
            <path fill="#DFCCC3" fill-rule="nonzero" d="M33.117 66.537l-7.988 4.367s50.271 34.32 56.896 36.564c6.625 2.245-47.72-40.173-48.908-40.931z" transform="translate(119.894 43.91)"/>
            <path fill="#93D1E6" d="M207.353 150.694c.016-.012 78.713-56.498 81.259-55.86.637.319.637 34.702 0 36.93-.638 2.229-48.118 49.664-81.26 58.26.32-.333 0-39.316 0-39.33z" transform="translate(119.894 43.91)"/>
            <path fill="#FFF" fill-rule="nonzero" d="M164.652 37.12C145.213 28.433 131.192 3.15 119.45.285c-3.454-.843-13.652 2.614-26.349 8.161-18.01 8.006-35.53 17.07-52.466 27.148C27.2 43.67 17.423 50.824 17.11 54.029c-.956 9.812 74.907 60.205 74.907 60.205 4.99 2.198 89.524-59.192 91.117-60.205 1.593-1.012.956-8.222-18.482-16.908z" transform="translate(119.894 43.91)"/>
            <path fill="#FFF" d="M186.958 54.027S288.23 88.155 288.613 94.835c.381 6.679-78.647 58.896-81.23 59.851-2.584.955-90.692-30.435-108.776-34-18.084-3.566 84.527-64.806 88.351-66.659z" transform="translate(119.894 43.91)"/>
            <path fill="#93D1E6" fill-rule="nonzero" d="M107.815 97.883c-4.911-5.267-51.04-45.305-51.505-45.71l.417-.48c.466.404 46.62 40.464 51.554 45.756l-.466.434zM117.324 88.38c-4.362-5.73-46.273-50.155-46.695-50.604l.463-.436c.424.445 42.357 44.9 46.74 50.654l-.508.386zM131.588 80.773c-4.363-5.73-46.27-50.156-46.696-50.604l.463-.436c.424.446 42.357 44.899 46.74 50.655l-.507.385zM150.594 68.75c-4.362-5.73-46.27-50.154-46.696-50.602l.464-.437c.424.446 42.357 44.9 46.74 50.655l-.508.385zM163.62 59.682c-4.363-5.73-46.273-50.155-46.695-50.604l.463-.436c.423.445 42.357 44.899 46.74 50.655l-.508.385zM213.122 138.808c-5.55-3.79-71.07-26.661-71.73-26.891l.209-.602c2.703.943 66.26 23.13 71.88 26.967l-.359.526zM221.758 131.687c-4.222-5.527-52.289-26.814-52.774-27.028l.255-.582c1.987.878 48.702 21.568 53.026 27.224l-.507.386zM237.143 118.595c-1.669-1.007-50.891-25.246-51.388-25.49l.282-.574c2.03 1 49.743 24.496 51.432 25.517l-.326.547zM251.034 111.738c-.902-2.165-32.802-19.107-54.024-29.964l.29-.566c5.426 2.775 53.04 27.204 54.323 30.286l-.59.244zM268.713 97.864c-2.14-2.658-47.812-19.261-71.663-27.67l.212-.6c2.822.995 69.16 24.41 71.947 27.87l-.496.4z" transform="translate(119.894 43.91)"/>
            <g fill="#FFF" fill-rule="nonzero">
                <path d="M.746 60.327l-.2-.605C23.48 52.187 81.078.854 81.657.336l.425.475c-.58.518-58.276 51.94-81.335 59.516zM.746 68.099l-.2-.605C23.48 59.959 81.078 8.626 81.657 8.108l.425.474c-.58.519-58.276 51.94-81.335 59.517z" transform="translate(119.894 43.91) translate(207.131 101.238)"/>
                <path d="M.746 71.814l-.2-.605c22.934-7.535 80.531-58.868 81.11-59.386l.425.475c-.58.518-58.276 51.94-81.335 59.516zM.746 81.054l-.2-.605c22.934-7.535 80.531-58.868 81.11-59.386l.425.475c-.58.52-58.276 51.94-81.335 59.516z" transform="translate(119.894 43.91) translate(207.131 101.238)"/>
            </g>
            <path fill="#62CBEE" d="M207.383 154.687s80.307-59.773 80.434-60.42c.128-.646 2.103 1.059-.912 4.035-3.015 2.977-18.653 16.08-25.379 20.657-6.726 4.577-50.13 34.376-54.143 35.728z" transform="translate(119.894 43.91)"/>
            <path fill="#62CBEE" fill-rule="nonzero" d="M17.11 75.437c-.002-.031.015-.06.042-.075.027-.015.06-.012.086.006 2.683 1.99 47.18 34.712 76.989 38.412 4.334.77-42.136-3.17-74.304-31.96-1.8-1.625-2.824-3.938-2.816-6.363l.003-.02z" transform="translate(119.894 43.91)"/>
        </g>
        <ellipse cx="285.666" cy="162.232" fill="#DFCCC3" fill-rule="nonzero" rx="45.977" ry="6.19"/>
        <ellipse cx="225.919" cy="243.856" fill="#ACD7E3" fill-rule="nonzero" rx="12.926" ry="1.431"/>
        <path fill="#D8885A" fill-rule="nonzero" d="M183.365 220.845s16.307-32.072 19.538-35.903c3.357-3.98 17.655-.674 15.766 6.45-1.862 7.02-16.636 25.785-29.646 31.615-4.019 2.34-6.121-1.138-5.658-2.162zM230.453 237.799s-2.817-36.368-1.22-41.391c1.618-5.086 16.574-9.364 17.943-1.99 1.225 6.589-1.517 30.998-10.365 42.53-2.444 4.041-6.231 1.985-6.358.85z"/>
        <path fill="#FCB13B" fill-rule="nonzero" d="M188.245 221.733c-2.401-1.765-5.193-2.924-8.14-3.38-3.572-.557-8.36-1.342-9.062-1.643-1.145-.49-9.04-1.503-2.208 3.242 6.832 4.746 16.342 9.872 18.006 9.156 1.664-.716 2.15-5.35 2.954-5.74.31-.147-.472-.839-1.55-1.635zM232.54 235.885c-1.596-.211-3.22-.08-4.76.387-3.404 1.032-9.58 2.87-10.481 2.91-1.256.055-8.786 2.544-.397 3.83 8.388 1.287 19.344 1.769 20.484.419 1.14-1.35-.675-5.678-.147-6.37.325-.424-2.488-.885-4.699-1.176z"/>
        <path fill="#AE5A36" d="M228.745 204.99s16.088 10.908 16.393 11.825c-.013.08 1.717-8.318 1.209-8.698-.51-.38-17.602-3.128-17.602-3.128z"/>
        <path fill="#002135" fill-rule="nonzero" d="M322.028 132.69c-.52-2.338-2.602-3.997-4.998-3.98-14.927.108-68.333.545-70.85 1.356-2.924.942-14.063 4.967-22.468 14.878-8.404 9.91 1.943 19.125 22.193 20.305 20.25 1.18 62.641 3.001 71.919-8.86 6.391-8.167 5.425-18.226 4.204-23.699z"/>
        <path fill="#002135" fill-rule="nonzero" d="M224.515 144.403s-24.694 31.955-29.096 38.804c-4.402 6.849-7.63 9.77 3.566 11.771 11.197 2.002 47.095 18.267 51.298 15.032 4.203-3.235 3.453-62.553-4.295-64.548-7.748-1.994-14.933-6.19-21.473-1.059z"/>
        <path fill="#003C51" fill-rule="nonzero" d="M312.8 138.996c.169.169.169.442 0 .611l-.909.91c-.169.168-.443.168-.612 0-.169-.17-.169-.443 0-.612l.91-.91c.169-.167.442-.167.611 0zm-1.243 12.35l.91-.908c.159-.17.154-.436-.01-.601-.165-.165-.432-.17-.602-.011l-.91.91c-.168.168-.168.442 0 .61.17.17.443.17.612 0zm0-14.674l.91-.908c.159-.17.154-.437-.01-.602-.165-.165-.432-.17-.602-.01l-.91.909c-.168.169-.168.443 0 .611.17.17.443.17.612 0zm.632 6.168l-.91.909c-.168.17-.168.442 0 .612.17.168.443.168.612 0l.91-.91c.168-.169.168-.442 0-.611-.17-.17-.443-.17-.612 0zm0 3.844l-.91.908c-.159.17-.154.437.01.602.165.165.431.17.602.01l.91-.909c.168-.168.168-.442 0-.611-.17-.17-.443-.17-.612 0zm-3.598-13.154c.171.16.437.155.602-.01.165-.165.17-.431.01-.602l-.91-.909c-.168-.168-.442-.168-.61 0-.17.17-.17.443 0 .612l.908.91zm0 6.987c.11.109.269.151.418.111.15-.04.266-.156.306-.305.04-.15-.003-.309-.112-.418l-.91-.91c-.168-.168-.442-.168-.61 0-.17.17-.17.443 0 .612l.908.91zm-.297 13.153c-.17-.169-.443-.169-.612 0-.169.169-.169.443 0 .612l.91.909c.168.169.442.169.611 0 .17-.169.17-.443 0-.612l-.91-.909zm0 3.844c-.17-.169-.443-.169-.612 0-.169.169-.169.443 0 .612l.91.909c.168.169.442.169.611 0 .17-.169.17-.443 0-.612l-.91-.909zm-52.539 6.986l-.908.91c-.073.074-.116.172-.121.275l1.023.046.618-.618c.16-.17.155-.437-.01-.602-.165-.165-.431-.17-.602-.01zm-3.226 0c-.17-.165-.441-.163-.609.004-.167.168-.169.439-.004.609l.462.461 1.17.057c-.014-.083-.053-.16-.11-.222l-.91-.909zm56.062-20.14c.17.169.443.169.612 0 .169-.168.169-.442 0-.611l-.91-.91c-.168-.168-.442-.168-.61 0-.17.17-.17.443 0 .612l.908.91zm-56.062-9.208c-.17-.166-.441-.164-.609.004-.167.167-.169.438-.004.608l.91.908c.169.17.443.17.611 0 .17-.168.17-.442 0-.611l-.908-.91zm59.66 22.362l-.91.91c-.169.168-.169.442 0 .61.17.17.443.17.612 0l.91-.908c.168-.17.168-.443 0-.612-.17-.169-.443-.169-.612 0zm-49.282 6.986c-.109-.111-.27-.156-.42-.116-.151.04-.269.157-.309.308-.04.151.005.312.117.42l.88.88.65.016c.158-.17.154-.434-.01-.599l-.908-.909zm-10.414-1.621c.108.116.27.163.423.124.154-.04.273-.16.313-.313.039-.153-.009-.315-.125-.423l-.908-.909c-.171-.16-.437-.155-.602.01-.165.165-.17.431-.01.602l.909.909zm59.697-9.207l-.91.91c-.168.168-.168.442 0 .61.17.17.443.17.612 0l.91-.908c.169-.17.169-.443 0-.612-.17-.169-.443-.169-.612 0zm-46.019-23.984l.379-.378-1.107.02c-.019.132.024.264.116.358.17.168.443.167.612-.002v.002zm.297 2.323l-.909.909c-.159.17-.154.436.01.601.165.166.431.17.602.011l.909-.909c.11-.11.152-.268.112-.418-.04-.149-.157-.266-.306-.306-.15-.04-.309.003-.418.112zm-.334 32.49l-.908.91c-.17.168-.17.442 0 .61.01.008.02.015.03.02l.536.011c.016-.009.03-.019.045-.03l.91-.909c.111-.109.156-.27.116-.42-.04-.151-.157-.269-.308-.309-.151-.04-.312.005-.42.117zm-13.03-34.814c.01-.013.02-.027.028-.041l-.655.024.016.017c.17.168.443.167.612 0zm48.41 0l.848-.847-1.236.012-.223.223c-.17.17-.17.443 0 .612.169.169.443.169.612 0zm-3.597 27.828c-.169-.17-.442-.17-.611 0-.17.169-.17.442 0 .611l.909.91c.169.168.443.168.612 0 .169-.17.169-.443 0-.612l-.91-.91zm3.895-25.505l-.91.909c-.158.17-.154.436.011.601.165.165.43.17.602.011l.909-.91c.169-.168.169-.442 0-.61-.169-.17-.443-.17-.612 0zm0 6.986l-.91.91c-.168.168-.168.442 0 .611.17.17.444.17.613 0l.909-.909c.169-.169.169-.443 0-.612-.169-.169-.443-.169-.612 0zm-3.895 22.363c-.169-.17-.442-.17-.611 0-.17.169-.17.443 0 .611l.909.91c.17.159.437.154.602-.011.164-.165.169-.431.01-.602l-.91-.908zm.298-20.842c.11.11.268.152.418.112.149-.04.266-.156.306-.306.04-.149-.003-.308-.112-.417l-.91-.91c-.169-.169-.442-.169-.611 0-.17.17-.17.443 0 .612l.909.91zm-.298 13.154c-.169-.17-.442-.17-.611 0-.17.169-.17.442 0 .611l.909.91c.169.168.443.168.612 0 .169-.17.169-.443 0-.612l-.91-.91zm.298-9.31c.17.168.442.168.612 0 .168-.17.168-.442 0-.611l-.91-.91c-.169-.169-.442-.169-.611 0-.17.17-.17.443 0 .612l.909.91zm0-10.83c.17.159.437.154.602-.01.164-.166.169-.432.01-.602l-.91-.909c-.169-.169-.442-.169-.611 0-.17.169-.17.443 0 .612l.909.909zm3.597 9.31l-.91.909c-.168.169-.168.442 0 .611.17.168.443.168.613 0l.909-.909c.169-.169.169-.443 0-.612-.169-.169-.443-.169-.612 0zm6.78 5.364c.171.16.437.155.602-.01.165-.165.17-.431.01-.602l-.909-.909c-.169-.168-.443-.168-.612 0-.169.17-.169.443 0 .612l.91.91zm.612-18.518c.17-.17.17-.443 0-.612l-.293-.293-1.213.01.895.895c.17.168.442.167.611 0zm-8.023 21.66l.91-.908c.158-.17.154-.437-.011-.602-.165-.165-.431-.17-.602-.01l-.909.909c-.169.169-.169.443 0 .611.169.17.443.17.612 0zm7.448-16.195c-.17-.159-.437-.154-.602.011-.165.165-.169.431-.01.602l.91.908c.109.11.268.152.417.112.15-.04.266-.157.306-.306.04-.149-.002-.308-.112-.418l-.91-.909zm-6.817 11.532l-.91.909c-.158.17-.154.437.011.602.165.165.43.17.602.01l.909-.909c.169-.169.169-.443 0-.612-.169-.168-.443-.168-.612 0zm6.817 3.143c-.17-.16-.437-.155-.602.01-.165.165-.169.431-.01.602l.91.908c.109.11.268.152.417.112.15-.04.266-.156.306-.305.04-.15-.002-.309-.112-.418l-.91-.91zm-6.817 11.532l-.91.908c-.158.17-.154.437.011.602.165.165.43.17.602.01l.909-.909c.169-.168.169-.442 0-.611-.169-.17-.443-.17-.612 0zm0-7.688l-.91.909c-.168.169-.168.443 0 .611.17.17.444.17.613 0l.909-.909c.169-.169.169-.442 0-.611-.169-.17-.443-.17-.612 0zm0 3.844l-.91.909c-.168.169-.168.443 0 .612.17.168.444.168.613 0l.909-.91c.169-.169.169-.442 0-.611-.169-.17-.443-.17-.612 0zm-.631-20.842l.91-.908c.158-.171.154-.437-.011-.602-.165-.165-.431-.17-.602-.01l-.909.908c-.169.17-.169.443 0 .612.169.169.443.169.612 0zm19.597 10.011c-.169-.168-.443-.168-.611 0-.17.17-.17.443 0 .612l.908.91c.17.158.437.154.602-.011.165-.165.17-.431.01-.602l-.909-.909zm-54.31 6.988l-.909.91c-.168.168-.168.442 0 .61.17.17.443.17.612 0l.909-.908c.169-.17.169-.443 0-.612-.17-.169-.443-.169-.612 0zm0-14.674l-.909.909c-.168.169-.168.443 0 .611.17.17.443.17.612 0l.909-.909c.169-.169.169-.442 0-.611-.17-.17-.443-.17-.612 0zm-.63-2.324l.909-.908c.111-.11.156-.27.116-.42-.04-.151-.157-.27-.308-.309-.151-.04-.312.005-.42.117l-.91.909c-.168.169-.168.442 0 .611.17.17.443.17.612 0zm.63 10.012l-.909.908c-.159.17-.154.437.01.602.165.165.431.17.602.01l.909-.909c.169-.169.169-.442 0-.611-.17-.17-.443-.17-.612 0zm0-3.844l-.909.909c-.168.169-.168.442 0 .612.17.167.443.167.612 0l.909-.91c.169-.169.169-.442 0-.611-.17-.17-.443-.17-.612 0zm-3.597 16.195c.169.169.443.169.612 0 .169-.17.169-.443 0-.612l-.91-.909c-.108-.11-.268-.152-.417-.112-.15.04-.266.157-.306.306-.04.15.003.308.112.418l.909.909zm0-18.519c.169.17.443.17.612 0 .169-.168.169-.442 0-.611l-.91-.91c-.108-.109-.268-.151-.417-.111-.15.04-.266.156-.306.305-.04.15.003.309.112.418l.909.91zm0-6.986c.17.16.437.155.601-.01.165-.166.17-.432.01-.602l-.908-.909c-.169-.168-.443-.168-.612 0-.169.17-.169.443 0 .612l.909.91zm0 21.66c.11.11.268.153.418.113.149-.04.266-.157.306-.306.04-.15-.003-.309-.112-.418l-.91-.91c-.168-.168-.442-.168-.61 0-.17.17-.17.444 0 .613l.908.909zm.612 7.689c.168-.17.168-.443 0-.612l-.91-.909c-.168-.169-.442-.169-.61 0-.17.169-.17.443 0 .612l.908.909c.17.167.443.166.612-.002v.002zm58.538-26.82l-.909-.91c-.17-.165-.44-.164-.608.004-.168.167-.17.439-.004.608l.909.909c.169.169.443.169.612 0 .169-.17.169-.443 0-.612zm-23.806 12.143c.17.16.437.154.602-.01.164-.166.169-.432.01-.602l-.91-.909c-.169-.169-.442-.169-.611 0-.17.17-.17.443 0 .612l.909.909zm-32.378 3.142l.91-.908c.111-.11.156-.27.116-.42-.04-.152-.157-.27-.308-.31-.151-.039-.312.006-.42.117l-.91.91c-.168.168-.168.442 0 .611.17.17.443.17.612 0zm-13.307-1.52c-.17-.166-.44-.164-.608.003-.168.168-.17.439-.004.609l.909.908c.11.11.269.152.418.112.15-.04.266-.156.306-.306.04-.149-.003-.308-.112-.417l-.909-.91zm68.248-6.987c-.169-.169-.443-.169-.611 0-.17.169-.17.443 0 .612l.908.909c.17.168.443.168.612 0 .169-.17.169-.443 0-.612l-.909-.909zm0-3.844c-.169-.169-.443-.169-.611 0-.17.169-.17.443 0 .612l.908.909c.17.169.443.169.612 0 .169-.169.169-.443 0-.612l-.909-.909zm-54.31 18.518l-.909.91c-.168.169-.168.442 0 .611.17.17.443.17.612 0l.909-.909c.169-.169.169-.443 0-.612-.17-.168-.443-.168-.612 0zm-3.597-13.153c.17.168.442.168.612 0 .168-.17.168-.443 0-.612l-.91-.909c-.168-.169-.442-.169-.61 0-.17.169-.17.443 0 .612l.908.909zm3.597 16.998l-.909.908c-.159.17-.154.437.01.602.165.165.431.17.602.01l.909-.909c.11-.11.152-.268.112-.418-.04-.149-.157-.265-.306-.305-.15-.04-.309.002-.418.112zm54.607-27.828c.17.159.437.154.602-.011.165-.165.17-.431.01-.602l-.909-.908c-.169-.169-.443-.169-.611 0-.17.169-.17.443 0 .612l.908.909zm-68.582 21.66c.11.11.269.152.418.112.15-.04.266-.156.306-.306.04-.149-.003-.308-.112-.417l-.909-.91c-.17-.159-.436-.154-.601.01-.165.165-.17.431-.011.602l.91.91zm3.3-25.504l.132-.132-.815.025c.058.126.176.216.313.237.138.022.277-.027.37-.13zm.297 13.153l-.909.91c-.168.169-.168.442 0 .611.17.168.443.168.612 0l.91-.91c.168-.168.168-.442 0-.61-.17-.17-.444-.17-.613 0zm0-3.844l-.909.91c-.159.17-.154.436.01.6.166.166.432.17.602.01l.91-.908c.168-.17.168-.443 0-.612-.17-.169-.444-.169-.613 0zm0-6.986l-.909.908c-.165.17-.164.441.004.609.168.167.439.17.608.004l.91-.91c.168-.168.168-.442 0-.611-.17-.169-.444-.169-.613 0zm6.78 16.195c.172.16.438.154.602-.01.165-.166.17-.432.01-.602l-.908-.909c-.169-.169-.443-.169-.612 0-.169.17-.169.443 0 .612l.909.909zm-10.377 0c.108.116.27.163.424.124.153-.04.273-.16.312-.313.04-.153-.008-.315-.124-.423l-.909-.909c-.17-.159-.436-.155-.601.01-.165.165-.17.431-.011.602l.91.909zm0-7.688c.11.11.269.152.418.112.15-.04.266-.157.306-.306.04-.15-.003-.308-.112-.418l-.909-.909c-.17-.16-.436-.155-.601.01-.165.165-.17.431-.011.602l.91.909zm0 3.844c.17.168.443.168.612 0 .169-.17.169-.443 0-.612l-.909-.909c-.17-.16-.436-.155-.601.01-.165.165-.17.431-.011.602l.91.909zm0-10.83c.108.115.27.163.424.124.153-.04.273-.16.312-.313.04-.153-.008-.316-.124-.424l-.909-.908c-.17-.16-.436-.155-.601.01-.165.165-.17.43-.011.601l.91.91zm0 25.504c.11.11.269.152.418.112.15-.04.266-.156.306-.306.04-.149-.003-.308-.112-.417l-.909-.91c-.17-.159-.436-.154-.601.01-.165.165-.17.431-.011.602l.91.91zm10.99-29.348c.084-.084.13-.2.127-.318l-1.034.021.298.299c.17.165.44.164.609-.002zm-8.023 21.66l.908-.908c.16-.17.155-.437-.01-.602-.165-.165-.43-.17-.601-.01l-.91.909c-.168.168-.168.442 0 .611.17.17.444.17.613 0zm7.448-16.195c-.11-.112-.27-.156-.42-.117-.152.04-.27.158-.31.309-.039.15.006.311.117.42l.91.909c.109.11.268.152.418.112.149-.04.265-.157.305-.306.04-.15-.002-.309-.112-.418l-.908-.909zm0 14.674c-.11-.111-.27-.156-.42-.116-.152.04-.27.157-.31.308-.039.151.006.312.117.42l.91.91c.109.108.268.151.418.111.149-.04.265-.156.305-.306.04-.149-.002-.308-.112-.417l-.908-.91zm-6.818 11.533l-.909.908c-.165.17-.164.44.004.608.168.168.439.17.608.004l.91-.909c.108-.11.151-.268.111-.418-.04-.149-.157-.265-.306-.305-.15-.04-.308.002-.418.112zm-.63-24.686l.908-.909c.16-.17.155-.436-.01-.601-.165-.165-.43-.17-.601-.011l-.91.91c-.108.108-.151.268-.111.417.04.15.156.266.306.306.149.04.308-.003.418-.112zm.63 10.011l-.909.909c-.165.17-.164.44.004.608.168.168.439.17.608.004l.91-.91c.168-.168.168-.442 0-.61-.17-.17-.444-.17-.613 0zm0 6.986l-.909.91c-.159.17-.154.436.01.601.166.165.432.17.602.01l.91-.909c.108-.11.151-.268.111-.418-.04-.149-.157-.266-.306-.306-.15-.04-.308.003-.418.112zm0 3.844l-.909.91c-.159.17-.154.436.01.601.166.165.432.17.602.01l.91-.909c.168-.169.168-.443 0-.612-.17-.168-.444-.168-.613 0zm22.861-3.844l-.909.91c-.169.168-.169.442 0 .611.169.17.443.17.612 0l.909-.909c.11-.11.152-.268.112-.418-.04-.149-.157-.266-.306-.306-.15-.04-.308.003-.418.112zm-39.238-14.674c-.169-.169-.443-.169-.612 0-.169.169-.169.443 0 .612l.91.909c.169.169.442.169.611 0 .17-.169.17-.443 0-.612l-.909-.909zm.334-3.844c-.17-.16-.437-.154-.602.01-.165.166-.17.432-.01.602l.909.909c.108.116.27.163.424.124.153-.039.273-.159.312-.312.04-.153-.008-.316-.124-.424l-.91-.909zm58.204 14.674c-.17-.159-.437-.154-.601.011-.165.165-.17.431-.01.602l.908.908c.17.16.437.155.602-.01.165-.165.17-.43.01-.601l-.909-.91zm-22.86 14.675c-.171-.16-.437-.155-.602.01-.165.165-.17.431-.01.602l.909.908c.032.031.07.056.11.074.133 0 .267-.004.4-.006.037-.017.071-.04.102-.068.168-.169.168-.442 0-.611l-.91-.91zm13.604 0l-.909.909c-.055.058-.093.131-.108.21.405-.028.808-.057 1.209-.088l.419-.42c.159-.17.154-.436-.01-.6-.165-.166-.431-.17-.602-.011h.001zm-3.226 0c-.17-.166-.441-.164-.609.004-.167.167-.17.438-.004.608l.646.645.998-.06c-.003-.108-.047-.211-.123-.288l-.908-.91zm-7.152 0l-.909.909c-.168.17-.168.442 0 .611.02.016.041.03.064.041l.508-.01c.016-.009.031-.02.046-.03l.909-.91c.16-.17.155-.436-.01-.6-.165-.166-.431-.17-.602-.011h-.006zm33.275-34.814l.91-.91c.008-.008.01-.019.018-.027l-1.224.01-.318.318c-.169.168-.169.442 0 .611.169.17.443.17.612 0l.002-.002zm.298 2.323l-.91.908c-.159.17-.154.437.01.602.166.165.432.17.602.01l.91-.909c.169-.168.169-.442 0-.611-.17-.169-.443-.169-.612 0zm-69.21 4.663l.909-.908c.16-.17.155-.437-.01-.602-.165-.165-.431-.17-.602-.01l-.91.909c-.108.11-.151.268-.111.418.04.149.157.265.306.305.15.04.308-.002.418-.112zm.631 2.324l-.91.909c-.168.169-.168.443 0 .612.17.168.444.168.612 0l.91-.91c.169-.169.169-.442 0-.611-.17-.17-.443-.17-.612 0zm0-6.987l-.91.91c-.159.17-.154.436.01.6.166.166.432.17.602.011l.91-.909c.169-.169.169-.443 0-.612-.17-.168-.443-.168-.612 0zm-2.989 1.521c.168-.17.168-.442 0-.612l-.244-.244c-.267.13-.54.267-.816.407l.449.45c.169.167.442.167.611 0zm-7.766 5.468l-.91.91c-.169.168-.169.442 0 .611.17.169.443.169.612 0l.91-.91c.168-.168.168-.442 0-.61-.17-.17-.443-.17-.612 0zm-2.986 1.521c.169-.169.169-.443 0-.612l-.254-.254c-.22.186-.439.374-.658.566l.301.3c.17.168.443.166.611-.002v.002zm55.862 14.674c.11.11.268.152.418.112.149-.04.265-.156.305-.305.04-.15-.002-.309-.111-.418l-.91-.91c-.17-.159-.436-.154-.6.01-.166.166-.17.432-.012.602l.91.91zm0 3.844c.11.11.268.152.418.112.149-.04.265-.156.305-.305.04-.15-.002-.309-.111-.418l-.91-.91c-.17-.159-.436-.154-.6.01-.166.166-.17.432-.012.602l.91.91zm.612 3.845c.168-.17.168-.443 0-.613l-.91-.908c-.17-.16-.436-.155-.6.01-.166.165-.17.43-.012.601l.91.91c.17.167.443.166.612-.003v.003zm2.688-33.193l.716-.716-1.238.014-.09.09c-.16.17-.155.437.01.602.166.165.432.169.602.01zm.297 9.31l-.91.908c-.158.171-.154.437.011.602.166.165.432.17.602.01l.909-.91c.109-.108.152-.268.112-.417-.04-.15-.157-.266-.306-.306-.15-.04-.309.003-.418.112zm-3.561 10.83c-.17-.166-.44-.164-.608.003-.168.168-.17.44-.004.609l.909.908c.11.11.269.152.418.112.15-.04.266-.156.306-.306.04-.149-.003-.308-.112-.417l-.909-.91zm-9.803 13.053c.169-.17.169-.443 0-.613l-.91-.908c-.168-.17-.442-.17-.61 0-.17.169-.17.442 0 .611l.908.91c.17.167.444.166.613-.003v.003zm9.766-18.519c.17.168.443.168.612 0 .169-.169.169-.442 0-.612l-.909-.909c-.17-.159-.436-.154-.601.01-.165.165-.17.431-.011.602l.91.91zm0 3.844c.108.116.27.163.424.124.153-.04.273-.159.312-.312.04-.154-.008-.316-.124-.424l-.909-.909c-.17-.159-.436-.154-.601.01-.165.165-.17.431-.011.602l.91.91zm0-14.674c.108.116.27.163.424.124.153-.04.273-.16.312-.313.04-.153-.008-.315-.124-.423l-.909-.909c-.17-.16-.436-.155-.601.01-.165.165-.17.431-.011.602l.91.909zm3.597-1.521l-.909.909c-.165.17-.164.44.004.608.168.168.439.17.608.004l.91-.91c.108-.109.151-.268.111-.417-.04-.15-.157-.266-.306-.306-.15-.04-.308.003-.418.112zm0 10.83l-.909.91c-.168.169-.168.442 0 .611.17.168.443.168.612 0l.91-.91c.108-.108.151-.268.111-.417-.04-.15-.157-.266-.306-.306-.15-.04-.308.003-.418.112zm9.498-13.153c.168-.17.168-.443 0-.612l-.199-.199-1.211.012.798.799c.17.167.444.166.613-.003l-.001.003zM288.7 151.347l.909-.909c.16-.17.155-.436-.01-.601-.165-.165-.431-.17-.602-.011l-.909.91c-.109.108-.152.268-.112.417.04.15.157.266.306.306.15.04.309-.003.418-.112zm9.553-16.195c-.17-.16-.437-.155-.602.01-.164.165-.169.431-.01.602l.91.908c.107.116.27.164.423.125.153-.04.273-.159.312-.312.04-.154-.008-.316-.124-.424l-.909-.91zm-9.553 1.52l.909-.908c.16-.17.155-.437-.01-.602-.165-.165-.431-.17-.602-.01l-.909.909c-.169.169-.169.443 0 .611.17.17.443.17.612 0zm.63 20.842l-.908.91c-.16.17-.155.436.01.6.165.166.431.17.602.01l.909-.908c.169-.17.169-.443 0-.612-.17-.169-.443-.169-.612 0zm0-3.844l-.908.91c-.16.17-.155.436.01.6.165.166.431.17.602.01l.909-.908c.109-.11.152-.269.112-.418-.04-.15-.157-.266-.306-.306-.15-.04-.309.003-.418.112zm0-6.986l-.908.908c-.166.17-.164.441.004.609.167.167.438.169.608.004l.909-.91c.109-.109.152-.268.112-.417-.04-.15-.157-.266-.306-.306-.15-.04-.309.003-.418.112zm0 14.674l-.908.909c-.166.17-.164.44.004.608.167.168.438.17.608.004l.909-.91c.109-.108.152-.268.112-.417-.04-.15-.157-.266-.306-.306-.15-.04-.309.003-.418.112zm-3.596-20.841c.169.168.442.168.611 0 .17-.17.17-.443 0-.612l-.908-.91c-.17-.159-.437-.154-.602.01-.165.166-.17.432-.01.602l.909.91zm-10.378-6.987c.17.16.437.155.602-.01.164-.165.169-.431.01-.602l-.91-.909c-.169-.168-.442-.168-.611 0-.17.17-.17.443 0 .612l.909.91zm0 6.987c.169.168.443.168.612 0 .169-.17.169-.443 0-.612l-.91-.91c-.169-.168-.442-.168-.611 0-.17.17-.17.443 0 .612l.909.91zm0 14.674c.169.169.443.169.612 0 .169-.169.169-.443 0-.612l-.91-.909c-.169-.169-.442-.169-.611 0-.17.169-.17.443 0 .612l.909.909zm0 3.844c.169.169.443.169.612 0 .169-.169.169-.443 0-.612l-.91-.909c-.109-.11-.268-.152-.417-.112-.15.04-.266.157-.306.306-.04.15.002.308.112.418l.909.909zm0-14.674c.17.168.442.168.612 0 .168-.17.168-.443 0-.612l-.91-.91c-.169-.168-.442-.168-.611 0-.17.17-.17.443 0 .612l.909.91zm.612-14.675c.141-.145.162-.369.05-.537l-1.182.018.52.52c.17.166.44.166.61 0h.002zm2.688 0l.583-.583-1.225.017c-.134.17-.121.412.03.566.169.167.44.167.61 0h.002zm-3.264 5.468c-.17-.159-.437-.154-.601.01-.165.166-.17.432-.01.602l.909.909c.169.169.443.169.612 0 .168-.169.168-.443 0-.612l-.91-.909zm0 14.674c-.17-.159-.437-.154-.601.011-.165.165-.17.431-.01.602l.909.908c.169.17.443.17.612 0 .168-.169.168-.442 0-.611l-.91-.91zm-.036-1.62c.17.158.437.153.602-.012.164-.165.169-.43.01-.601l-.91-.909c-.169-.169-.442-.169-.611 0-.17.17-.17.443 0 .612l.909.91zm2.966-11.533l.91-.909c.158-.17.154-.436-.011-.601-.165-.165-.431-.17-.602-.01l-.909.908c-.169.17-.169.443 0 .612.169.169.443.169.612 0zm.631 20.842l-.91.909c-.168.169-.168.443 0 .611.17.17.444.17.613 0l.909-.909c.11-.109.152-.268.112-.417-.04-.15-.157-.266-.306-.306-.15-.04-.309.002-.418.112zm-.631-6.168l.91-.908c.158-.17.154-.437-.011-.602-.165-.165-.431-.17-.602-.01l-.909.909c-.169.169-.169.442 0 .611.169.17.443.17.612 0zm7.449-16.195c-.17-.165-.441-.163-.609.004-.167.168-.17.439-.004.608l.91.909c.109.11.268.152.417.112.15-.04.266-.157.306-.306.04-.15-.002-.308-.112-.418l-.908-.909zm-6.818-3.142l-.91.909c-.158.17-.154.436.011.601.165.165.43.17.602.01l.909-.908c.11-.11.152-.269.112-.418-.04-.15-.157-.266-.306-.306-.15-.04-.309.003-.418.112zm7.392-2.323c.17-.17.17-.443 0-.612l-.063-.063-1.208.015.66.66c.17.166.441.165.61-.003l.001.003zm-7.392 9.31l-.91.908c-.168.17-.168.443 0 .612.17.169.444.169.613 0l.909-.91c.11-.108.152-.268.112-.417-.04-.15-.157-.266-.306-.306-.15-.04-.309.003-.418.112zm0 3.843l-.91.91c-.167.169-.167.442 0 .611.17.168.443.168.613 0l.909-.91c.169-.168.169-.442 0-.61-.169-.17-.443-.17-.612 0zm0 18.519l-.91.908c-.158.17-.154.437.011.602.165.165.43.17.602.01l.909-.909c.169-.169.169-.442 0-.611-.169-.17-.443-.17-.612 0zm0-14.675l-.91.909c-.158.17-.154.436.011.601.165.165.43.17.602.011l.909-.909c.11-.11.152-.269.112-.418-.04-.149-.157-.266-.306-.306-.15-.04-.309.003-.418.112zm-49.33 39.726l-.91.909c-.169.168-.169.442 0 .611.17.17.443.17.612 0l.91-.908c.159-.171.154-.437-.011-.602-.165-.165-.431-.17-.602-.01zm0-3.844l-.91.908c-.159.17-.154.437.01.602.165.165.431.17.602.01l.91-.908c.159-.171.154-.437-.011-.602-.165-.165-.431-.17-.602-.01zm0 10.83l-.91.91c-.169.168-.169.442 0 .611.17.169.443.169.612 0l.91-.91c.159-.17.154-.436-.011-.6-.165-.166-.431-.17-.602-.01zm0 7.688l-.91.909c-.169.169-.169.443 0 .611.17.17.443.17.612 0l.91-.908c.159-.17.154-.437-.011-.602-.165-.164-.431-.169-.602-.01zm0-22.362l-.91.908c-.115.108-.163.27-.124.424.04.154.159.273.312.313.154.039.316-.009.424-.124l.91-.91c.159-.17.154-.436-.011-.601-.165-.165-.431-.17-.602-.01zm0-10.83l-.91.908c-.169.169-.169.443 0 .612.17.169.443.169.612 0l.91-.909c.159-.17.154-.436-.011-.601-.165-.165-.431-.17-.602-.01zm0 3.843l-.91.91c-.169.168-.169.442 0 .61.17.17.443.17.612 0l.91-.908c.165-.17.163-.44-.004-.608-.168-.168-.44-.17-.609-.004zm0 25.505l-.91.909c-.115.108-.163.27-.124.424.04.153.159.273.312.312.154.04.316-.008.424-.124l.91-.91c.159-.17.154-.436-.011-.6-.165-.166-.431-.17-.602-.01zM203.2 174.88c-.17-.17-.443-.17-.612 0-.169.169-.169.443 0 .611l.91.91c.168.168.442.168.611 0 .17-.17.17-.443 0-.612l-.91-.91zm3.665 22.293l.591.196c-.046-.11-.138-.194-.25-.232-.114-.037-.238-.024-.34.036zm22.125-6.098l.91-.91c.169-.168.169-.442 0-.61-.17-.17-.443-.17-.612 0l-.91.908c-.168.17-.168.443 0 .612.17.169.443.169.612 0zm-25.217-17.82c.168-.17.168-.443 0-.612l-.433-.433-.522.7.344.343c.168.17.442.17.611.002zm25.846-9.209l-.909.909c-.159.17-.154.436.01.601.166.165.432.17.602.011l.91-.909c.159-.17.154-.437-.011-.602-.165-.164-.431-.169-.602-.01zm-26.755 29.349c-.169-.169-.443-.169-.612 0-.169.169-.169.443 0 .612l.91.909c.169.169.442.169.611 0 .17-.17.17-.443 0-.612l-.909-.909zm26.124-16.998l.91-.909c.169-.169.169-.443 0-.611-.17-.17-.443-.17-.612 0l-.91.909c-.168.169-.168.443 0 .611.17.17.443.17.612 0zm0-29.348l.91-.91c.169-.168.169-.442 0-.611-.17-.169-.443-.169-.612 0l-.91.91c-.168.168-.168.442 0 .61.17.17.443.17.612 0zm0 14.674l.91-.91c.169-.168.169-.442 0-.61-.17-.17-.443-.17-.612 0l-.91.908c-.168.17-.168.443 0 .612.17.169.443.169.612 0zm.631-4.664l-.909.91c-.168.169-.168.442 0 .611.17.17.443.17.612 0l.91-.908c.165-.17.163-.441-.004-.609-.168-.167-.44-.169-.609-.004zm-3.597 23.182c.17.166.44.164.608-.003.168-.168.17-.44.004-.609l-.909-.908c-.169-.17-.443-.17-.612 0-.169.169-.169.442 0 .611l.909.91zm0-6.986c.17.159.436.154.602-.01.165-.165.17-.431.01-.602l-.909-.91c-.17-.158-.437-.153-.602.012-.165.165-.169.43-.01.601l.909.909zm0-7.688c.17.166.44.164.608-.004.168-.167.17-.438.004-.608l-.909-.909c-.169-.169-.443-.169-.612 0-.169.17-.169.443 0 .612l.909.91zm0 3.844c.17.159.436.154.602-.01.165-.165.17-.431.01-.602l-.909-.909c-.169-.169-.443-.169-.612 0-.169.17-.169.443 0 .612l.909.909zm0 14.675c.17.165.44.163.608-.004.168-.168.17-.439.004-.609l-.909-.908c-.169-.17-.443-.17-.612 0-.169.169-.169.442 0 .611l.909.91zm.037-23.884c-.17-.169-.443-.169-.612 0-.169.17-.169.443 0 .612l.909.91c.169.168.443.168.612 0 .168-.17.168-.444 0-.613l-.91-.909zm-.037 27.727c.108.116.27.163.424.124.153-.039.273-.158.312-.312.04-.153-.008-.316-.124-.424l-.909-.908c-.169-.17-.443-.17-.612 0-.169.169-.169.443 0 .611l.909.909zm.037-13.052c-.17-.17-.443-.17-.612 0-.169.168-.169.442 0 .611l.909.91c.169.168.443.168.612 0 .168-.17.168-.443 0-.612l-.91-.91zm0 14.674c-.17-.169-.443-.169-.612 0-.169.169-.169.443 0 .612l.909.909c.169.169.443.169.612 0 .168-.17.168-.443 0-.612l-.91-.91zm-.334 7.688c-.169-.169-.443-.169-.612 0-.169.169-.169.443 0 .612l.909.909c.17.165.44.164.608-.004.168-.168.17-.439.004-.608l-.909-.909zm.334-51.711c-.17-.169-.443-.169-.612 0-.169.169-.169.443 0 .612l.909.909c.169.169.443.169.612 0 .168-.17.168-.443 0-.612l-.91-.91zm3.56 3.844l-.908.909c-.16.17-.155.436.01.601.165.165.431.17.602.01l.91-.908c.158-.171.153-.437-.012-.602-.165-.165-.43-.17-.601-.01zm0-6.987l-.908.91c-.169.168-.169.442 0 .611.169.169.443.169.612 0l.91-.909c.165-.17.163-.44-.005-.608-.167-.167-.438-.17-.608-.004zm0 10.831l-.908.909c-.169.169-.169.442 0 .611.169.17.443.17.612 0l.91-.908c.158-.171.153-.437-.012-.602-.165-.165-.43-.17-.601-.01zm-3.596-2.323c.17.165.44.163.608-.004.168-.168.17-.439.004-.608l-.91-.909c-.168-.169-.442-.169-.611 0-.169.169-.169.443 0 .612l.909.909zm0 7.687c.108.116.27.164.423.125.154-.04.274-.16.313-.312.04-.154-.008-.316-.124-.424l-.91-.91c-.17-.159-.436-.154-.601.011-.165.165-.17.431-.01.602l.909.908zM203.2 189.55c-.17-.168-.443-.168-.612 0-.17.17-.17.444 0 .613l.91.909c.168.169.442.169.61 0 .17-.17.17-.443 0-.612l-.908-.91zm22.824-34.814c.17.16.436.155.601-.01.165-.165.17-.43.01-.601l-.908-.909c-.17-.169-.443-.169-.612 0-.169.169-.169.443 0 .612l.909.908zm-.297 38.657c-.17-.169-.443-.169-.612 0-.169.169-.169.443 0 .612l.909.909c.108.116.27.163.423.124.154-.039.274-.159.313-.312.04-.153-.008-.316-.124-.424l-.91-.909zm-8.589-21.661l-.909.91c-.16.17-.154.436.01.6.166.165.432.17.602.01l.909-.908c.116-.108.164-.27.124-.424-.039-.153-.158-.273-.312-.312-.153-.04-.316.008-.424.124zm0-7.688l-.909.909c-.112.109-.156.27-.117.42.04.151.158.269.309.309.15.04.311-.005.42-.117l.909-.909c.11-.11.152-.268.112-.418-.04-.149-.157-.266-.306-.306-.15-.04-.308.003-.418.112zm0 3.844l-.909.909c-.16.17-.154.437.01.602.166.164.432.169.602.01l.909-.909c.169-.169.169-.443 0-.612-.169-.168-.443-.168-.612 0zm0 14.675l-.909.908c-.112.11-.156.27-.117.42.04.152.158.27.309.31.15.039.311-.006.42-.117l.909-.91c.11-.109.152-.268.112-.417-.04-.15-.157-.266-.306-.306-.15-.04-.308.003-.418.112zm0-3.844l-.909.908c-.165.17-.164.441.004.609.167.167.439.169.608.004l.909-.91c.11-.109.152-.268.112-.417-.04-.15-.157-.266-.306-.306-.15-.04-.308.002-.418.112zm-3.894 18.518c-.17-.16-.436-.155-.602.01-.165.165-.17.431-.01.602l.91.909c.17.159.436.154.6-.01.166-.166.17-.432.01-.602l-.908-.909zm.297-27.828c.11.109.269.152.418.112.15-.04.266-.157.306-.306.04-.15-.003-.309-.112-.418l-.909-.909c-.17-.159-.436-.154-.602.01-.165.165-.17.431-.01.602l.91.909zm-.297 23.984c-.17-.16-.436-.155-.602.01-.165.165-.17.431-.01.602l.91.909c.168.169.442.169.61 0 .17-.169.17-.443 0-.612l-.908-.909zm3.894-36.335l-.909.909c-.16.17-.154.436.01.601.166.165.432.17.602.01l.909-.908c.116-.108.164-.27.124-.424-.039-.153-.158-.273-.312-.312-.153-.04-.316.008-.424.124zm-13.975 30.87c.17.168.443.168.612 0 .169-.17.169-.444 0-.613l-.91-.908c-.168-.169-.442-.169-.611 0-.169.169-.169.443 0 .612l.91.908zm10.378-22.363c.17.16.437.155.602-.01.165-.166.169-.432.01-.602l-.909-.909c-.17-.159-.436-.154-.602.01-.165.165-.17.431-.01.602l.91.91zm2.966 10.83l.91-.909c.168-.169.168-.442 0-.611-.17-.17-.444-.17-.613 0l-.909.909c-.159.17-.154.437.01.601.166.165.432.17.602.01zm1.235-23.186l-1.257 1.642c.13.018.262-.025.356-.117l.909-.908c.169-.17.169-.443 0-.612l-.008-.005zm33.497 52.535c.127.126.318.16.48.087.075-.436.146-.901.213-1.392l-.693.694c-.17.169-.17.442 0 .611zm-34.732-44.023l.909-.909c.109-.11.151-.269.111-.418-.04-.149-.156-.266-.305-.306-.15-.04-.309.003-.418.112l-.91.91c-.159.17-.154.436.011.601.165.165.431.17.602.01zm.63 35.516l-.909.909c-.165.17-.163.44.004.608.168.168.439.17.609.004l.908-.91c.11-.108.152-.268.112-.417-.04-.15-.156-.266-.306-.306-.149-.04-.308.003-.417.112zm0-3.844l-.909.91c-.159.17-.154.436.011.6.165.166.431.17.602.01l.908-.908c.11-.11.152-.269.112-.418-.04-.15-.156-.266-.306-.306-.149-.04-.308.003-.417.112zm-.63-2.323l.909-.91c.168-.168.168-.442 0-.611-.17-.169-.443-.169-.612 0l-.91.91c-.159.17-.154.436.011.6.165.166.431.17.602.01zm.63-4.663l-.909.908c-.159.171-.154.437.011.602.165.165.431.17.602.01l.908-.908c.11-.11.152-.269.112-.418-.04-.15-.156-.266-.306-.306-.149-.04-.308.003-.417.112zm-10.377 0l-.91.908c-.168.17-.168.443 0 .612.17.169.443.169.612 0l.91-.908c.169-.17.169-.443 0-.612-.17-.169-.443-.169-.612 0zm0 6.986l-.91.91c-.168.168-.168.442 0 .61.17.17.443.17.612 0l.91-.908c.169-.17.169-.443 0-.612-.17-.169-.443-.169-.612 0zm-.632-16.997l.91-.91c.169-.169.169-.442 0-.611-.17-.17-.443-.17-.612 0l-.91.909c-.168.169-.168.443 0 .612.17.168.444.168.612 0zm.632 6.167l-.91.908c-.159.17-.154.437.01.602.166.165.432.17.602.01l.91-.909c.169-.168.169-.442 0-.611-.17-.17-.443-.17-.612 0zm-3.597 1.52c.17.16.436.155.601-.01.165-.165.17-.431.01-.602l-.909-.908c-.169-.17-.443-.17-.612 0-.169.169-.169.443 0 .611l.91.91zm2.965 6.987l.91-.91c.169-.168.169-.442 0-.611-.17-.169-.443-.169-.612 0l-.91.91c-.168.168-.168.442 0 .61.17.17.444.17.612 0zm.632-12.351l-.91.908c-.159.17-.154.437.01.602.166.165.432.17.602.01l.91-.909c.169-.169.169-.442 0-.611-.17-.17-.443-.17-.612 0zm0-6.987l-.91.91c-.168.168-.168.442 0 .61.17.17.443.17.612 0l.91-.908c.159-.17.154-.436-.01-.601-.165-.165-.431-.17-.602-.011zm0-3.844l-.728.728c-.096.127-.19.254-.287.381-.04.146 0 .303.106.411.169.169.442.169.611 0l.91-.909c.169-.168.169-.442 0-.611-.17-.17-.443-.17-.612 0zm6.78 16.196c.171.159.437.154.602-.011.165-.165.17-.431.01-.602l-.909-.908c-.17-.16-.436-.155-.601.01-.165.165-.17.43-.01.601l.908.91zm0 3.843c.17.169.443.169.612 0 .17-.169.17-.443 0-.612l-.909-.908c-.17-.16-.436-.155-.601.01-.165.165-.17.43-.01.602l.908.908zm0-14.674c.17.169.443.169.612 0 .17-.17.17-.443 0-.612l-.909-.91c-.17-.164-.44-.163-.608.005-.168.167-.17.438-.004.608l.91.909zm0 6.987c.171.159.437.154.602-.011.165-.165.17-.431.01-.602l-.909-.908c-.17-.16-.436-.155-.601.01-.165.165-.17.43-.01.601l.908.91zm.037 9.309c-.17-.169-.443-.169-.612 0-.169.169-.169.443 0 .612l.91.909c.168.169.442.169.611 0 .169-.17.169-.443 0-.612l-.91-.909zm.572-30.97c.169-.17.169-.443 0-.612l-.027-.028-.52.683c.169.122.401.105.55-.041l-.003-.003zm-.572 1.621c-.17-.169-.443-.169-.612 0-.169.17-.169.443 0 .612l.91.91c.168.168.442.168.611 0 .169-.17.169-.444 0-.612l-.91-.91zm0 14.675c-.17-.17-.443-.17-.612 0-.169.169-.169.442 0 .611l.91.91c.168.168.442.168.611 0 .169-.17.169-.443 0-.612l-.91-.91zm-10.414 5.365c.17.159.436.154.601-.011.165-.165.17-.431.01-.602l-.909-.908c-.169-.17-.443-.17-.612 0-.169.169-.169.442 0 .611l.91.91zm45.72 18.518c.108.116.27.163.424.124.153-.04.273-.16.312-.313.04-.153-.008-.315-.124-.423l-.909-.909c-.169-.169-.443-.169-.611 0-.17.169-.17.443 0 .612l.908.909zm.037-23.883c-.17-.16-.436-.155-.602.01-.165.165-.17.43-.01.601l.909.91c.169.168.443.168.612 0 .169-.17.169-.443 0-.612l-.909-.91zm0 14.674c-.17-.16-.436-.155-.602.01-.165.165-.17.431-.01.602l.909.909c.169.169.443.169.612 0 .169-.17.169-.443 0-.612l-.909-.909zm-.037 13.052c.17.17.443.17.612 0 .169-.169.169-.442 0-.611l-.909-.909c-.109-.11-.268-.152-.418-.112-.149.04-.265.157-.305.306-.04.15.002.309.112.418l.908.908zm.037 1.622c-.17-.159-.436-.154-.602.01-.165.165-.17.431-.01.602l.909.91c.169.168.443.168.612 0 .169-.17.169-.444 0-.612l-.909-.91zm-.334 3.844c-.109-.109-.268-.152-.418-.112-.149.04-.265.157-.305.306-.04.15.002.309.112.418l.908.91c.11.108.269.151.418.111.15-.04.266-.156.306-.306.04-.149-.003-.308-.112-.417l-.909-.91zm.297-42.502c.108.116.27.163.424.124.153-.04.273-.159.312-.312.04-.154-.008-.316-.124-.424l-.909-.909c-.169-.168-.443-.168-.611 0-.17.17-.17.443 0 .612l.908.91zm0-10.83c.11.109.269.151.418.111.15-.04.266-.156.306-.306.04-.149-.003-.308-.112-.417l-.909-.909c-.109-.11-.268-.152-.418-.112-.149.04-.265.157-.305.306-.04.15.002.309.112.418l.908.908zm0 3.843c.11.11.269.152.418.112.15-.04.266-.156.306-.305.04-.15-.003-.309-.112-.418l-.909-.91c-.108-.115-.27-.163-.424-.123-.153.039-.273.159-.312.312-.039.153.009.316.125.424l.908.908zm0 29.35c.11.108.269.151.418.111.15-.04.266-.157.306-.306.04-.15-.003-.308-.112-.418l-.909-.908c-.169-.169-.443-.169-.611 0-.17.169-.17.443 0 .612l.908.908zm0 6.986c.17.169.443.169.612 0 .169-.169.169-.443 0-.612l-.909-.909c-.169-.169-.443-.169-.611 0-.17.169-.17.443 0 .612l.908.909zm0-21.661c.17.169.443.169.612 0 .169-.17.169-.443 0-.612l-.909-.91c-.108-.115-.27-.162-.424-.123-.153.04-.273.16-.312.312-.039.154.009.316.125.424l.908.909zm-12.482-29.349c.169.169.442.169.611 0 .17-.169.17-.443 0-.612l-.71-.71c-.274-.064-.546-.128-.818-.187-.16.17-.156.435.007.6l.91.91zm.611 58.697c.168-.169.168-.442 0-.611l-.909-.909c-.169-.169-.443-.169-.612 0-.169.17-.169.443 0 .612l.91.908c.168.17.442.171.612.003v-.003zm11.871-33.192c.11.109.269.152.418.112.15-.04.266-.157.306-.306.04-.15-.003-.309-.112-.418l-.909-.909c-.169-.168-.443-.168-.611 0-.17.17-.17.443 0 .612l.908.909zm.037-9.209c-.17-.159-.436-.154-.602.01-.165.165-.17.431-.01.602l.909.91c.169.168.443.168.612 0 .169-.17.169-.444 0-.612l-.909-.91zm-.037 23.884c.108.115.27.163.424.124.153-.04.273-.16.312-.313.04-.153-.008-.316-.124-.424l-.909-.908c-.109-.11-.268-.152-.418-.112-.149.04-.265.156-.305.306-.04.149.002.308.112.417l.908.91zm0-3.844c.108.115.27.163.424.123.153-.039.273-.159.312-.312.04-.153-.008-.316-.124-.424l-.909-.908c-.109-.11-.268-.152-.418-.112-.149.04-.265.156-.305.306-.04.149.002.308.112.417l.908.91zm-8.885 27.827l-.509.509c.318.095.636.19.946.278l.172-.172c.169-.17.169-.443 0-.612-.169-.169-.443-.169-.612 0l.003-.003zm12.16-38.642c-.028-.377-.058-.752-.088-1.126l-.498.498c-.174.162-.183.434-.02.608.161.173.433.182.607.02zm-60.745 20.821c-.064.309-.077.626-.037.939.093-.01.18-.05.248-.115.17-.17.17-.443 0-.612l-.21-.212zm59.997-28.424c-.032-.264-.067-.524-.1-.785l-.072.073c-.169.169-.169.442 0 .611.048.048.108.083.173.103v-.002zm.773 11.43l.22-.22c-.022-.385-.047-.768-.071-1.151l-.763.763c-.17.169-.17.442 0 .611.168.17.442.17.611 0l.003-.002zm-.347-7.57l-.091-.902-.173.173c-.169.17-.169.443 0 .612.07.07.165.113.264.12v-.002zm-57.56 27.711l-.285.286c.274.111.573.22.897.326.11-.11.152-.269.112-.418-.04-.15-.157-.266-.306-.306-.15-.04-.309.003-.418.112zm.279-3.844c-.17-.168-.443-.168-.613 0l-.908.91c-.17.168-.17.442 0 .61.169.17.442.17.611 0l.91-.908c.166-.17.166-.44 0-.61v-.002zm-.279-3.142l-.909.908c-.109.11-.152.269-.112.418.04.15.157.266.306.306.15.04.309-.003.418-.112l.909-.908c.169-.17.169-.443 0-.612-.17-.169-.443-.169-.612 0zm54.607-35.516c.128.125.32.16.483.085-.127-.43-.258-.832-.392-1.219l-.388-.387c-.109-.11-.268-.152-.418-.112-.149.04-.265.157-.305.306-.04.15.002.308.112.418l.908.909zm3.264 38.657l-.91.909c-.168.169-.168.443 0 .612.17.168.444.168.613 0l.909-.91c.014-.018.027-.037.038-.057 0-.162.004-.326.005-.488-.012-.023-.027-.044-.043-.064-.17-.167-.443-.166-.612.002v-.004zm-.573 13.052c.159.156.41.165.58.022.045-.434.09-.882.131-1.344l-.71.71c-.083.082-.13.192-.13.308 0 .115.045.226.127.308l.002-.004zm.278-26.206l.696-.695-.047-.943c-.13-.016-.259.027-.352.117l-.909.91c-.109.109-.151.268-.112.417.04.15.157.266.306.306.15.04.309-.002.418-.112zm-.278 21.75c-.159.17-.154.437.01.602.165.165.431.17.602.01l.313-.313c.026-.414.05-.836.074-1.266-.033.015-.063.035-.09.059l-.909.908zm.909-11.738l-.909.908c-.169.17-.169.443 0 .612.17.169.443.169.612 0l.636-.636v-1.008c-.127-.01-.252.036-.34.127l.001-.003zm-.909-2.324c.17.168.443.168.612 0l.604-.604-.018-1.04c-.108.003-.212.047-.289.124l-.909.908c-.082.081-.128.192-.129.308 0 .115.046.226.127.308l.002-.004zm0 10.219c-.169.169-.169.443 0 .612.17.169.443.169.612 0l.509-.509c.013-.372.025-.747.036-1.127-.093.01-.18.05-.249.115l-.908.909zm.909-15.584l-.909.909c-.159.17-.154.437.01.602.165.165.431.17.602.01l.518-.518-.036-1.106c-.07.02-.135.057-.187.109l.002-.006zm-16.08 1.521c.17.16.437.155.602-.01.165-.165.17-.431.01-.602l-.91-.909c-.168-.168-.442-.168-.611 0-.169.17-.169.443 0 .612l.91.91zm3.597 2.324l-.909.908c-.16.17-.155.437.01.602.165.165.431.17.602.01l.91-.909c.168-.169.168-.443 0-.611-.17-.17-.444-.17-.613 0zm0 3.844l-.909.908c-.169.17-.169.443 0 .612.17.169.443.169.612 0l.91-.909c.168-.169.168-.443 0-.611-.17-.17-.444-.17-.613 0zm0 6.986l-.909.909c-.169.169-.169.443 0 .612.17.169.443.169.612 0l.91-.91c.168-.168.168-.442 0-.611-.17-.17-.444-.17-.613 0zm0-14.675l-.909.909c-.16.17-.155.437.01.602.165.165.431.17.602.01l.91-.909c.168-.169.168-.443 0-.612-.17-.168-.444-.168-.613 0zm0-6.986l-.909.909c-.169.169-.169.443 0 .611.17.17.443.17.612 0l.91-.908c.158-.17.154-.437-.01-.602-.166-.165-.432-.17-.603-.01zm0-14.675l-.909.91c-.169.168-.169.442 0 .611.17.169.443.169.612 0l.91-.908c.158-.17.154-.437-.01-.602-.166-.165-.432-.17-.603-.01zm0 6.987l-.909.909c-.16.17-.155.436.01.601.165.165.431.17.602.011l.91-.91c.168-.168.168-.442 0-.61-.17-.17-.444-.17-.613 0zm0-10.83l-.909.908c-.169.17-.169.443 0 .612.17.169.443.169.612 0l.91-.908c.168-.17.168-.443 0-.612-.17-.169-.444-.169-.613 0zm0 44.023l-.909.908c-.16.17-.155.437.01.602.165.165.431.17.602.01l.91-.909c.168-.168.168-.442 0-.611-.17-.169-.444-.169-.613 0zm0-29.349l-.909.909c-.169.169-.169.443 0 .611.17.17.443.17.612 0l.91-.908c.168-.17.168-.443 0-.612-.17-.169-.444-.169-.613 0zm-.631-20.841l.91-.91c.168-.169.168-.442 0-.611-.17-.17-.443-.17-.612 0l-.91.909c-.169.169-.169.443 0 .612.17.168.443.168.612 0zm-10.08 57.176l-.706.706.903.318.415-.415c.169-.169.169-.443 0-.611-.17-.17-.443-.17-.612 0v.002zm10.08-42.502l.91-.91c.168-.168.168-.442 0-.61-.17-.17-.443-.17-.612 0l-.91.908c-.169.17-.169.443 0 .612.17.169.443.169.612 0zm-13.641 39.36c-.169-.169-.443-.169-.612 0-.169.169-.169.443 0 .612l.909.908c.17.16.436.155.601-.01.166-.165.17-.43.011-.602l-.91-.908zm10.711-55.555c-.168-.17-.442-.17-.611 0-.17.169-.17.442 0 .611l.91.91c.168.168.442.168.61 0 .17-.17.17-.443 0-.612l-.909-.91zm3.84 58.697c-.17-.168-.443-.168-.612 0l-.91.91c-.169.168-.169.442 0 .61.17.17.443.17.612 0l.91-.908c.165-.17.164-.44-.003-.608l.002-.004zm-.91-27.828l.91-.909c.168-.169.168-.443 0-.612-.17-.168-.443-.168-.612 0l-.91.91c-.169.169-.169.442 0 .611.17.17.443.17.612 0zm0 14.675l.91-.91c.168-.169.168-.442 0-.611-.17-.17-.443-.17-.612 0l-.91.909c-.109.11-.152.268-.112.418.04.149.157.266.306.306.15.04.309-.003.418-.112zm.631 10.01l-.909.91c-.169.168-.169.442 0 .611.17.169.443.169.612 0l.91-.908c.168-.17.168-.443 0-.612-.17-.169-.444-.169-.613 0zm-3.597-2.322c.17.159.437.154.602-.011.165-.165.17-.431.01-.602l-.91-.908c-.168-.169-.442-.169-.611 0-.169.169-.169.443 0 .611l.91.91zm0-3.844c.17.169.443.169.612 0 .169-.17.169-.443 0-.612l-.91-.91c-.168-.168-.442-.168-.611 0-.169.17-.169.444 0 .612l.91.91zm0-10.83c.17.158.437.154.602-.011.165-.165.17-.431.01-.602l-.91-.908c-.168-.17-.442-.17-.611 0-.169.168-.169.442 0 .611l.91.91zm.036 20.14c-.168-.17-.442-.17-.611 0-.17.168-.17.442 0 .61l.91.91c.108.11.268.152.417.112.15-.04.266-.157.306-.306.04-.15-.003-.308-.112-.418l-.91-.909zm-.036-16.297c.17.169.443.169.612 0 .169-.17.169-.443 0-.612l-.91-.908c-.168-.17-.442-.17-.611 0-.169.168-.169.442 0 .611l.91.909zm.036-27.727c-.168-.169-.442-.169-.611 0-.17.169-.17.443 0 .612l.91.909c.168.169.442.169.61 0 .17-.169.17-.443 0-.612l-.909-.909zm0 29.349c-.168-.17-.442-.17-.611 0-.17.169-.17.442 0 .611l.91.91c.168.168.442.168.61 0 .17-.17.17-.443 0-.612l-.909-.91zm0-14.675c-.168-.168-.442-.168-.611 0-.17.17-.17.443 0 .612l.91.91c.108.109.268.151.417.111.15-.04.266-.156.306-.306.04-.149-.003-.308-.112-.417l-.91-.91zm-.036-1.622c.11.11.269.152.418.112.15-.04.266-.156.306-.305.04-.15-.003-.309-.112-.418l-.91-.91c-.17-.158-.436-.154-.601.011-.165.165-.17.431-.01.602l.91.908zm0-22.361c.17.159.437.154.602-.011.165-.165.17-.431.01-.602l-.91-.908c-.168-.17-.442-.17-.611 0-.169.169-.169.443 0 .611l.91.91zm0 3.843c.11.11.269.152.418.112.15-.04.266-.157.306-.306.04-.15-.003-.308-.112-.418l-.91-.908c-.168-.169-.442-.169-.611 0-.169.169-.169.443 0 .612l.91.908zm0 3.844c.17.169.443.169.612 0 .169-.169.169-.443 0-.611l-.91-.91c-.17-.159-.436-.154-.601.011-.165.165-.17.431-.01.602l.91.908zm3.3-14.674l.27-.271c-.307-.097-.613-.192-.918-.286-.138.18-.111.436.06.584.173.148.43.136.588-.027zm-3.3 21.661c.17.159.437.154.602-.01.165-.166.17-.432.01-.602l-.91-.909c-.168-.169-.442-.169-.611 0-.169.169-.169.443 0 .612l.91.909zM240 149.369l-.909.908c-.16.17-.155.437.01.602.165.165.431.17.602.01l.91-.909c.168-.168.168-.442 0-.611-.17-.17-.444-.17-.613 0zm-13.363-5.468c.168-.17.168-.442 0-.612l-.153-.152c-.263.133-.525.278-.785.438l.326.326c.168.17.441.172.612.006v-.006zm9.766 25.504c.17.17.443.17.612 0 .169-.168.169-.442 0-.611l-.91-.909c-.168-.169-.442-.169-.611 0-.169.17-.169.443 0 .612l.91.908z"/>
        <path fill="#001522" fill-rule="nonzero" d="M242.231 165.422c3.815.272 7.993.531 9.605.263 0-.019.8 11.484.8 11.484s-2.702-6.189-10.833-10.067c-.386-.178-.59-.606-.486-1.018.105-.412.49-.69.914-.662zM288.202 130.395c-.456 1.66 36.855 5.731 32.621-1.71 0 0-11.977-.596-32.62.315.039.464.039.931 0 1.395z"/>
        <ellipse cx="175.971" cy="232.021" fill="#ACD7E3" fill-rule="nonzero" rx="12.32" ry="1.209"/>
        <path fill="#D8885A" fill-rule="nonzero" d="M294.383 47.311h.712c2.042 0 4.001.811 5.445 2.255 1.445 1.444 2.256 3.403 2.256 5.445v12.68c0 2.042-.811 4-2.256 5.445-1.444 1.444-3.403 2.255-5.445 2.255h-.712c-4.253 0-7.701-3.447-7.701-7.7v-12.68c0-4.252 3.448-7.7 7.701-7.7z"/>
        <path fill="#AE5A36" fill-rule="nonzero" d="M294.574 53.433c.15-.086.339-.06.46.063s.145.311.058.46l-7.536 12.537c-.388.381-.849.2-.875-.343l.064-8.131 7.829-4.586z"/>
        <ellipse cx="285.632" cy="42.064" fill="#D8885A" fill-rule="nonzero" rx="18.28" ry="14.024" transform="rotate(-72.558 285.632 42.064)"/>
        <path fill="#F3A3A3" fill-rule="nonzero" d="M302.726 78.385c.318-3.5 1.373-11.927-1.321-14.183-2.695-2.256-8.417 1.74-12.187 2.873-3.77 1.133-4.4 7.953-7.747 13.078-2.592 3.967-.01 10.454 0 14.124.022 8.484 1.537 9.987 2.55 10.8 1.451 1.166 2.498-2.431 4.83-2.037 1.748.297 12.975-12.732 13.875-24.655z"/>
        <path fill="#FC8A8A" fill-rule="nonzero" d="M297.094 63.979s-15.112 11.931-20.467 25.548h5.274s11.044-23.22 15.193-25.548z"/>
        <circle cx="275.105" cy="44.636" r="1" fill="#002135" fill-rule="nonzero"/>
        <path fill="#D8885A" fill-rule="nonzero" d="M271.564 44.026s-2.128 5.57-1.845 6.676c.284 1.107 2.08 1.454 2.95 1.156.87-.3-1.105-7.832-1.105-7.832z"/>
        <path fill="#002135" fill-rule="nonzero" d="M274.324 54.052s4.765-1.152 4.96-1.232c.195-.08-1.13 6.239-4.96 1.232zM277.674 41.561c-.082 0-.158-.041-.202-.11-.581-.91-1.205-1.372-1.853-1.373-1.12 0-2.012 1.36-2.02 1.374-.073.107-.218.137-.327.067-.109-.07-.142-.214-.075-.325.042-.063 1.04-1.593 2.422-1.593.822 0 1.582.537 2.256 1.593.047.073.05.166.009.243-.042.076-.122.124-.209.124h-.001z"/>
        <path fill="#FFF" fill-rule="nonzero" d="M275.642 49.393c-2.019 0-3.661-1.952-3.661-4.352 0-2.4 1.642-4.35 3.661-4.35 2.02 0 3.66 1.951 3.66 4.35 0 2.4-1.64 4.352-3.66 4.352zm0-8.067c-1.668 0-3.025 1.667-3.025 3.715 0 2.049 1.357 3.716 3.025 3.716 1.669 0 3.025-1.667 3.025-3.716 0-2.049-1.357-3.715-3.025-3.715z"/>
        <g fill-rule="nonzero">
            <path fill="#FDD6C5" d="M17.409 77.384s12.604 3.727 15.52 3.083c2.842.239-.81 13.005-18.58 5.642-5.839-1.47-7.92-8.906 3.06-8.725zM56.1 58.9s-8.531 9.976-11.328 11.023c-2.252 1.745 7.784 10.463 18.661-5.368 4.093-4.409 1.775-11.775-7.332-5.655z" transform="translate(152.656)"/>
            <path fill="#F7C2AA" d="M20.544 78.392s1.683-.273 5.525 1.133c2.19.801-1.592 11.327-4.787 7.792-3.196-3.536-4.388-7.103-.738-8.925zM56.643 60.92s-2.44-.186-6.57 4.561c-1.53 1.759 6.027 7.582 9.548 3.716 3.93-4.314 1.78-8.011-2.978-8.277z" transform="translate(152.656)"/>
            <path fill="#03526E" d="M7.743 79.715C24.621 69.69 42.08 60.671 60.026 52.706c.778-.339 1.186-.799 1.944-1.122-7.254-8.104-11.813-11.04-24.992-12.726C22.18 36.964 8.298 47.52 4.012 55.193-.487 63.377.18 73.42 5.722 80.94c.665-.407 1.339-.815 2.021-1.224z" transform="translate(152.656)"/>
            <g transform="translate(152.656) translate(6.39)">
                <path fill="#FFC76E" d="M8.651 25.21s-9.905-.812-7.66-11.173c1.156-5.282 4.8-5.028 6.868-6.84 2.069-1.81 6.602-7.99 14.423-6.77 7.821 1.218 23.675 15.865 7.483 23.98-6.8 3.038-21.114.803-21.114.803z"/>
                <path fill="#FDD6C5" d="M22.049 47.468l-.99.115c-3.425.4-6.526-2.046-6.926-5.462l-.77-6.576c-.199-1.695 1.018-3.23 2.717-3.427l7.239-.844c1.699-.198 3.237 1.015 3.436 2.71l.77 6.576c.4 3.416-2.051 6.509-5.476 6.908z"/>
                <path fill="#F7C2AA" d="M27.265 36.38l.053 1.021c-.088.913-.382 1.793-.86 2.576-1.699 3.257-6.914 3.728-11.12 1.029-.647-.415-1.291-.824-1.393-1.587l-.536-3.981c-.08-.586.12-1.175.537-1.593.417-.42 1.007-.62 1.594-.545l10.066 1.293c.913.117 1.612.87 1.66 1.787z"/>
                <path fill="#FDD6C5" d="M28.825 11.95c3.158 3.311 5.229 8.81 4.084 13.716-1.676 7.176-4.402 16.993-15.609 13.098C4.816 34.424 5.41 19.701 6.69 16.771c3.298-7.545 12.542-14.878 22.135-4.82z"/>
                <path fill="#002135" d="M22.365 28.925c.008.004.017.006.026.008.056.013 1.365.307 2.018-.105.183-.11.313-.291.359-.5.219-.993-.908-2.597-.956-2.668-.032-.054-.092-.085-.154-.08-.062.003-.117.042-.141.098-.025.057-.016.123.023.172.303.43 1.059 1.7.903 2.407-.027.122-.104.228-.212.291-.569.199-1.184.22-1.765.064-.088-.028-.181.02-.21.108-.027.087.021.18.109.208v-.003z"/>
                <path fill="#FCB13B" d="M26.021 22.024c-.02-.06-.016-.124.012-.18.028-.057.077-.1.137-.12 1.725-.588 2.858-.41 4.175.661.102.083.117.233.034.335-.084.102-.234.117-.336.034-1.198-.977-2.137-1.12-3.72-.583-.06.02-.125.016-.181-.012-.057-.028-.1-.077-.12-.136v.001zM12.866 24.441c-.097-.088-.105-.238-.017-.335 1.221-1.352 2.3-1.745 3.97-1.448.063.01.118.046.154.098.036.051.05.115.039.177-.01.063-.045.118-.097.154-.052.037-.117.05-.179.039-1.52-.269-2.413.058-3.533 1.298-.043.047-.102.075-.165.078-.063.003-.125-.018-.172-.06z"/>
                <circle cx="28.34" cy="24.867" r="1" fill="#002135"/>
                <circle cx="15.154" cy="25.923" r="1" fill="#002135"/>
                <path fill="#FFC76E" d="M25.689 13.57c-.014-.05 4.16 5.164 9.011 4.502C39.553 17.41 31.733-.615 19.777 1.22 9.382 2.813 2.28 9.16 3.65 17.873c.152 1.039.798 1.953 1.75 2.48.954.525 2.109.604 3.131.214 6.083-2.358 17.332-4.4 17.159-6.997z"/>
                <path fill="#FDD6C5" d="M8.407 24.962l-2.896-.686c-.561-.142-1.156.021-1.565.43-.41.409-.572 1.002-.43 1.562.024.073.05.144.082.213l.63 1.37c.838 1.823 2.847 2.803 4.803 2.345l.509-.12-1.133-5.114zM31.722 22.818l2.896-.685c.561-.143 1.156.02 1.566.43.409.408.572 1.002.428 1.561-.023.073-.05.144-.081.213l-.631 1.371c-.838 1.822-2.847 2.802-4.803 2.344l-.508-.12 1.133-5.114z"/>
                <path fill="#002135" d="M19.637 33.44s5.607-.443 5.913.164c.307.607-3.35 5.759-5.913-.164z"/>
            </g>
            <path fill="#002135" d="M37.294 45.795c5.625 4.745 8.354 9.26 10.423 12.554 1.532-.733 3.722-1.825 5.218-2.52-6.732-7.961-21.434-14.922-15.64-10.034zM14.122 76.183c1.158-.661 2.332-1.324 3.521-1.989-4.037-5.995-3.222-16.196-2.448-21.125.132-.844-.936-2.513-1.542-1.76-4.755 5.907-2.745 18.275-1.737 22.264.361 1.126 1.154 2.064 2.206 2.61z" transform="translate(152.656)"/>
            <path fill="#03526E" d="M15.572 49.545c.17-.97-.267-1.945-1.103-2.468-.836-.523-1.906-.49-2.708.084C7.214 50.448.897 57.024.158 68.473-.94 85.507 14.475 88.402 21.925 88.519c.907.007 1.74-.495 2.155-1.3 1.284-2.454 3.185-7.714-1.876-9.105-3.136-.714-10.976-3.448-8.363-18.557l1.731-10.012zM35.643 44.373c-1.608-1.275-.732-3.943 1.385-4.194 5.47-.65 13.215-.127 22.002 7.525 12.167 10.592 5.792 16.824.254 21.797-.659.597-1.592.785-2.432.49-2.341-.844-6.63-3.09-4.712-6.926.367-.673.528-1.438.463-2.202-.254-2.09-1.977-2.633-6.856-7.72-1.98-2.07-4.1-4.004-6.344-5.787l-3.76-2.983z" transform="translate(152.656)"/>
        </g>
        <g fill-rule="nonzero" transform="translate(51.43 212.576)">
            <ellipse cx="356.472" cy="32.803" fill="#ACD7E3" rx="15.203" ry="3.653"/>
            <ellipse cx="45.224" cy="75.484" fill="#ACD7E3" rx="23.082" ry="4.659"/>
            <path fill="#B4E7EF" d="M65.413 73.05c17.754-34.5 1.158-29.248-7.55-14.999 3.094-78.423-22.774-26.248-16.78-3.748C13.76-20.371 9.395 38.554 27.888 58.05c-35.646-32.247-33.525-4.5-9.599 11.999 23.926 16.498 47.12 3 47.12 3M342.82 29.928c-9.368-18.2-.612-15.43 3.982-7.913-1.631-41.375 12.016-13.85 8.854-1.979 14.415-39.396 16.717-8.308 6.96 1.979 18.807-17.013 17.688-2.374 5.065 6.33-12.623 8.705-24.862 1.583-24.862 1.583"/>
        </g>
        <g fill-rule="nonzero" transform="translate(214.694 80.152)">
            <path fill="#E0E9EF" d="M20.633 39.052c-.713-.012-1.37-.388-1.74-.996-.37-.608-.402-1.363-.085-2l9.799-34.847C28.944.508 29.652.061 30.432.058h38.636c.713.012 1.37.388 1.74.996.37.608.403 1.363.085 2L61.095 37.9c-.338.702-1.046 1.15-1.825 1.152H20.633z"/>
            <path fill="#E0E9EF" d="M.971 36.772h25.077c.39 0 .706.502.706 1.12 0 .297-.074.583-.207.793-.132.21-.312.33-.5.33H.972c-.187 0-.367-.12-.5-.33-.132-.21-.206-.496-.206-.793 0-.618.317-1.12.706-1.12z"/>
            <path fill="#B5C3CE" d="M.971 38.317h25.077c.39 0 .706.156.706.348 0 .093-.074.182-.207.247-.132.065-.312.102-.5.102H.972c-.187 0-.278-.154-.41-.22-.133-.065-.09-.156-.09-.249 0-.192.11-.228.5-.228z"/>
            <ellipse cx="46.484" cy="19.526" fill="#A4AFB8" fill-opacity=".631" rx="5.411" ry="5.4"/>
        </g>
        <path fill="#B8C3CD" fill-rule="nonzero" d="M287.115 86.379c-3.367 1.843-5.595 5.415-5.887 9.436-.295 3.741-1.144 8.207-3.516 8.596-4.133.678-23.369 10.332-26.071 9.654-2.703-.677-7.59-3.613-10.174-1.016-2.585 2.598-4.452 8.3-1.75 9.316 2.703 1.016 4.77 2.032 9.38 1.863 4.61-.17 41.313 1.863 46.251-4.573 4.938-6.436 8.746-14.988 9.386-19.69.567-4.134-4.67-20.557-17.62-13.586z"/>
        <path fill="#E0E9EF" d="M215.906 101.825l12.454 1.53c.573.07.98.591.91 1.164-.07.573-.592.98-1.165.91l-12.454-1.528c-.573-.07-.98-.592-.91-1.165.07-.574.592-.981 1.165-.91zM229.754 81.821l6.53 7.251c.386.43.351 1.09-.078 1.477-.429.386-1.09.352-1.476-.078l-6.53-7.25c-.387-.43-.352-1.09.077-1.477.43-.387 1.09-.352 1.477.077zM220.162 91.075l10.826 4.819c.528.235.765.853.53 1.38-.235.528-.853.765-1.38.53l-10.826-4.82c-.528-.234-.765-.852-.53-1.38.235-.527.853-.764 1.38-.53z"/>
        <path fill="#F3A3A3" fill-rule="nonzero" d="M280.413 98.166s8.425-44.983 28.933-33.856c20.507 11.126 15.42 62.944 14.943 64.693-.477 1.748-32.59 3.338-36.087 0s-8.028-29.675-7.79-30.837z"/>
        <path fill="#FC8A8A" fill-rule="nonzero" d="M295.89 122.44c1.2-1.1 2.26-2.342 3.16-3.7 1.65-2.461 2.659-5.297 2.933-8.248.089-.935.16-1.895.24-2.831 0 0-8.972 14.463-16.383 16.411.04.122 5.617 1.34 10.05-1.631z"/>
        <path fill="#D8885A" fill-rule="nonzero" d="M286.157 89.666c-3.367 1.73-5.595 5.082-5.887 8.855-.295 3.511-1.144 7.702-3.516 8.067-4.133.636-23.369 9.696-26.071 9.06-2.703-.635-7.59-3.391-10.174-.953-2.585 2.437-4.452 7.788-1.75 8.742 2.703.954 4.77 1.907 9.38 1.748 4.61-.159 41.313 1.749 46.251-4.291 4.938-6.04 8.745-14.066 9.386-18.478.567-3.88-4.67-19.293-17.62-12.75z"/>
        <path fill="#F3A3A3" fill-rule="nonzero" d="M298.518 108.209c3.458.533 6.698-1.827 7.249-5.282.981-6.302 2.27-16.955 1.474-25.623-.69-7.512-2.946-13.532-8.327-13.939-6.259-.329-20.884 31.644-20.725 33.38.132 1.464 9.312 9.825 20.329 11.464z"/>
        <path fill="#FC8A8A" fill-rule="nonzero" d="M300.846 62.278s-2.365 1.068-3.752 1.7c-1.387.633.2 13.721 8.388 20.715 8.187 6.994 11.446 9.294 12.797 12.794 1.351 3.5 2.623 11.147 6.28 11.534 3.656.388-3.844-38.88-23.713-46.743z"/>
        <path fill="#5F302F" fill-rule="nonzero" d="M273.364 35.486c-.496.263-1.064.361-1.62.28-2.88-.366-9.716-2.154-4.246-10.858 1.432-2.035 5.897-2.363 9.249-1.942 3.351.422 19.042-9.175 27.55.114 8.51 9.289 7.326 17.526 15.827 21.315 8.501 3.79 13.686 14.914 13.716 23.816.03 8.902 4.935 18.203 8.305 21.977 3.37 3.773 7.117 16.488-3.34 20.145-10.458 3.657-16.228-2.014-16.96-8.994-.732-6.98-7.37-13.58-12.536-16.48-5.166-2.898-10.81-11.561-10.406-20.542.404-8.98 1.861-10.61-2.749-12.12-4.61-1.51-.135-2.666 1.065-7.83s-4.443-4.885-4.642 1.512c-.238 2.146.532-2.924-1.562-3.985-2.095-1.06-2.427 1.606-10.07-5.51-2.405-1.84-6.17-1.677-7.58-.898z"/>
        <path fill="#FFF" fill-rule="nonzero" d="M278.765 43.926c-.176.01-.327-.123-.337-.299-.01-.175.123-.326.299-.337l16.165-1.97c.084-.011.169.012.235.064.066.052.11.129.12.212.01.084-.014.169-.066.235-.052.066-.128.11-.212.12l-16.165 1.97c-.013.003-.026.004-.039.005z"/>
    </g>
</svg>
