<svg xmlns="http://www.w3.org/2000/svg" width="72" height="72" viewBox="0 0 72 72">
    <g fill="none" fill-rule="evenodd">
        <rect width="72" height="72" fill="#FCB13B" rx="5"/>
        <path fill="#FFF" d="M24.372 11c.829 0 1.5.672 1.5 1.5V21h12.777c.78 0 1.42.595 1.493 1.356l.007.144-.001 5.129 9.428-4.802c.694-.354 1.535-.115 1.945.53l.072.125 14.73 28.91c.377.739.083 1.642-.655 2.018L55.26 59.713c-.738.376-1.64.083-2.017-.655l-13.095-25.7V59.5c0 .78-.594 1.42-1.355 1.493L38.65 61H7.5c-.828 0-1.5-.672-1.5-1.5v-47c0-.828.672-1.5 1.5-1.5zm-1.5 3H9l-.001 4.755h11.368c.553 0 1 .448 1 1 0 .513-.386.936-.883.994l-.117.006H9v29.121h11.368c.553 0 1 .448 1 1 0 .514-.386.936-.883.994l-.117.007L9 51.876 9 57.999h13.872V14zm14.276 10l-11.276-.001v4.995l6.697.001c.552 0 1 .448 1 1 0 .513-.386.935-.884.993l-.116.007-6.697-.001v20.265h6.697c.552 0 1 .449 1 1 0 .514-.386.936-.884.994l-.116.007-6.697-.001v4.74h11.276V24zM61.401 49.34l-7.697 4.016 1.53 3.002 7.735-3.94-1.568-3.078zm-9.222-18.099l-7.697 4.016 8.314 16.317 7.697-4.016-8.314-16.317zm-39.59 5.37c.513 0 .936.385.994.883l.006.116v8.407c0 .552-.447 1-1 1-.513 0-.935-.386-.993-.883l-.007-.117v-8.407c0-.552.448-1 1-1zm4.844-7.364c.513 0 .936.386.994.883l.006.117v15.38c0 .552-.447 1-1 1-.512 0-.935-.386-.993-.883l-.007-.117v-15.38c0-.552.448-1 1-1zM49.6 26.18l-7.734 3.94 1.708 3.355 7.697-4.016-1.67-3.28z"/>
    </g>
</svg>
