<svg xmlns="http://www.w3.org/2000/svg" width="51" height="52" viewBox="0 0 51 52">
    <g fill="none" fill-rule="evenodd">
        <path fill="#00829B" d="M87.05 32.52c.775-.133 1.5.398 1.63 1.184.754 4.573.13 9.228-1.398 13.617-3.47 9.974-17.296 20.947-33.033 14.73-3.088-1.214-5.893-3.041-8.276-5.338v1.51c0 .797-.634 1.44-1.418 1.44l-.137-.007c-.72-.07-1.281-.683-1.281-1.432l-.01-5.329c0-.796.633-1.44 1.418-1.44l5.249-.01.137.007c.72.07 1.28.683 1.28 1.433 0 .796-.633 1.44-1.417 1.44h-2.192c2.182 2.184 4.736 4.052 7.672 5.042 15.366 5.175 25.814-4.42 29.363-13.097 1.56-3.818 1.911-8.034 1.247-12.096-.13-.786.393-1.521 1.167-1.654zM63.56 20.903c9.242 0 16.774 7.636 16.774 17.017S72.802 54.937 63.56 54.937c-9.241 0-16.763-7.636-16.763-17.017S54.32 20.903 63.56 20.903zm3.128 26.122h-6.245c.895 3.185 2.142 5.043 3.117 5.043.966 0 2.223-1.858 3.128-5.043zm-9.201 0H52.91c1.6 1.92 3.69 3.4 6.084 4.247-.613-1.205-1.116-2.654-1.508-4.247zm16.722 0h-4.575c-.392 1.593-.895 3.042-1.508 4.247 2.393-.847 4.485-2.327 6.083-4.247zM56.491 39.36h-6.798c.171 1.705.654 3.318 1.368 4.788h5.862c-.24-1.542-.382-3.154-.432-4.788zm11.293 0h-8.457c.06 1.746.231 3.348.472 4.788h7.512c.242-1.44.412-3.042.473-4.788zm9.643 0H70.63c-.06 1.634-.202 3.246-.433 4.788h5.853c.714-1.47 1.196-3.083 1.377-4.788zm-37.71-10.81c3.47-9.983 17.287-20.946 33.024-14.74 3.087 1.215 5.893 3.042 8.276 5.339v-1.511c0-.796.634-1.44 1.418-1.44l.137.007c.72.07 1.281.683 1.281 1.433l.01 5.328c0 .797-.633 1.44-1.418 1.44l-5.249.01-.137-.007c-.72-.07-1.28-.683-1.28-1.432 0-.797.633-1.44 1.417-1.44h2.192c-2.182-2.184-4.736-4.052-7.672-5.042-15.366-5.176-25.814 4.42-29.353 13.096-1.56 3.818-1.911 8.034-1.247 12.097.13.786-.393 1.52-1.167 1.653-.784.133-1.508-.408-1.629-1.184-.754-4.573-.13-9.228 1.398-13.607zm17.196 3.154h-5.852c-.714 1.47-1.197 3.073-1.378 4.788h6.798c.06-1.633.201-3.246.432-4.788zm10.398-.01H59.8c-.24 1.45-.412 3.042-.472 4.788h8.457c-.06-1.746-.231-3.349-.473-4.788zm8.729 0h-5.853c.241 1.542.382 3.154.433 4.788h6.797c-.17-1.705-.653-3.308-1.377-4.788zm-7.914-7.115c.613 1.205 1.116 2.654 1.508 4.247h4.575c-1.598-1.93-3.69-3.41-6.083-4.247zm-4.566-.796c-.975 0-2.232 1.858-3.127 5.043h6.245c-.895-3.185-2.142-5.043-3.118-5.043zm-4.565.796c-2.393.848-4.485 2.317-6.084 4.247h4.576c.392-1.603.895-3.042 1.508-4.247z" transform="translate(-38 -12)"/>
        <path d="M0 0H126V76H0z" transform="translate(-38 -12)"/>
    </g>
</svg>
