<svg xmlns="http://www.w3.org/2000/svg" width="72" height="72" viewBox="0 0 72 72">
    <g fill="none" fill-rule="evenodd">
        <rect width="72" height="72" fill="#F37C7C" rx="5"/>
        <path fill="#FFF" d="M22.5 11c.828 0 1.5.672 1.5 1.5v47c0 .828-.672 1.5-1.5 1.5h-14c-.828 0-1.5-.672-1.5-1.5v-47c0-.828.672-1.5 1.5-1.5zm9 14.882c.663 0 1.299.264 1.768.733L63.353 56.7c.977.976.977 2.56 0 3.536-.469.468-1.104.732-1.767.732H31.5c-1.38 0-2.5-1.12-2.5-2.5V28.382c0-1.38 1.12-2.5 2.5-2.5zM21 14H10v3.968h4.815c.553 0 1 .448 1 1 0 .513-.386.936-.883.993l-.117.007H10v5h4.815c.553 0 1 .448 1 1 0 .513-.386.936-.883.993l-.117.007H10v5h4.815c.553 0 1 .448 1 1 0 .513-.386.936-.883.993l-.117.007H10v5h4.815c.553 0 1 .448 1 1 0 .513-.386.936-.883.993l-.117.007H10v5h4.815c.553 0 1 .448 1 1 0 .513-.386.936-.883.993l-.117.007H10v5h4.815c.553 0 1 .448 1 1 0 .513-.386.936-.883.993l-.117.007H10V58h11V14zm11 15.589v28.378h28.377L32 29.589zm5.5 12.043c.53 0 1.04.21 1.414.586l8.586 8.586c.781.78.781 2.047 0 2.828-.375.375-.884.586-1.414.586H37.5c-1.105 0-2-.895-2-2v-8.586c0-1.104.895-2 2-2zm0 2v8.586h8.586L37.5 43.632z"/>
    </g>
</svg>
