<svg xmlns="http://www.w3.org/2000/svg" xmlns:xlink="http://www.w3.org/1999/xlink" width="124" height="114" viewBox="0 0 124 114">
    <defs>
        <linearGradient id="prefix__b" x1="40.769%" x2="68.61%" y1="17.666%" y2="104.588%">
            <stop offset="0%" stop-color="#FFF"/>
            <stop offset="100%" stop-color="#29B4CC"/>
        </linearGradient>
        <linearGradient id="prefix__e" x1="56.349%" x2="33.271%" y1="25.973%" y2="113.863%">
            <stop offset="0%" stop-color="#FFF"/>
            <stop offset="100%" stop-color="#FAAF3A"/>
        </linearGradient>
        <linearGradient id="prefix__h" x1="70.797%" x2="-19.283%" y1="49.641%" y2="53.584%">
            <stop offset="0%" stop-color="#FFF"/>
            <stop offset="100%" stop-color="#FAAF3A"/>
        </linearGradient>
        <path id="prefix__a" d="M21.353 46.385S5.472 40.931 1.694 25.114C-2.091 9.273 9.225.974 9.225.974S27.847 5.249 30.91 19.052c2.444 11.019-3.336 18.207-4.656 21.326-2.473 5.84-4.901 6.007-4.901 6.007"/>
        <path id="prefix__d" d="M5.405 43.901S-3.43 30.066 3.197 14.884C9.835-.322 23.84.259 23.84.259s12.075 14.165 6.101 27.271c-4.77 10.462-13.88 12.764-16.866 14.49-5.594 3.234-7.67 1.881-7.67 1.881"/>
        <path id="prefix__g" d="M.102 16.714S7.786 9.337 13.828 5.569C19.869 1.801 24.303.786 29.434.708c4.456-.067 10.702 2.405 13.8 9.573 2.881 6.669 1.676 10.467-.197 13.411-2.001 3.144-5.837 4.316-9.598 4.814-9.098 1.204-15.459.305-21.809-2.275C3.997 23.13.102 16.714.102 16.714"/>
    </defs>
    <g fill="none" fill-rule="evenodd">
        <path fill="#FFF" d="M.495 64.21h7.512l.569 9.446c4.097-6.26 10.356-10.812 18.097-10.812 9.218 0 13.657 4.439 15.592 11.267 5.349-7.512 11.951-11.267 18.78-11.267 13.089 0 16.617 9.105 16.617 21.283v29.251h-8.65V84.81c0-10.812-3.301-14.568-10.471-14.568-7.057 0-15.138 6.146-15.138 14.113v29.023h-8.649V84.81c0-10.812-3.301-14.568-10.472-14.568-7.057 0-15.138 6.146-15.138 14.113v29.023H.495V64.21"/>
        <path fill="#29B4CC" d="M65.608 63.101s-25.879-9.054-27.104-31.976C37.283 8.289 48.994.353 48.994.353s26.809 8.888 29.838 24.444c3.028 15.556-4.281 25.956-6.135 30.334-3.473 8.201-7.089 7.97-7.089 7.97"/>
        <g transform="translate(44 15)">
            <mask id="prefix__c" fill="#fff">
                <use xlink:href="#prefix__a"/>
            </mask>
            <path fill="url(#prefix__b)" d="M21.353 46.385S5.472 40.931 1.694 25.114C-2.091 9.273 9.225.974 9.225.974S27.847 5.249 30.91 19.052c2.444 11.019-3.336 18.207-4.656 21.326-2.473 5.84-4.901 6.007-4.901 6.007" mask="url(#prefix__c)"/>
        </g>
        <path fill="#45447F" d="M54.949 56.984c-1.393 3.831 3.676 6.664 19.487 12.489 17.413 6.416 32.268 12.981 33.995 9.999 2.24-3.869-18.064-13.433-33.319-20.59-8.248-3.869-18.534-6.378-20.163-1.898"/>
        <path fill="#F05A34" d="M65.559 61.453s-15.496-23.235-2.435-42.631C76.136-.502 90.529.226 90.529.226s16.355 23.671 9.278 38.182c-7.077 14.51-19.401 18.486-23.594 20.91-7.854 4.541-10.654 2.135-10.654 2.135"/>
        <g transform="translate(61 16)">
            <mask id="prefix__f" fill="#fff">
                <use xlink:href="#prefix__d"/>
            </mask>
            <path fill="url(#prefix__e)" d="M5.405 43.901S-3.43 30.066 3.197 14.884C9.835-.322 23.84.259 23.84.259s12.075 14.165 6.101 27.271c-4.77 10.462-13.88 12.764-16.866 14.49-5.594 3.234-7.67 1.881-7.67 1.881" mask="url(#prefix__f)"/>
        </g>
        <path fill="#F05A34" d="M65.377 61.171s8.116-10.808 16.579-16.086c8.463-5.278 16.528-9.22 22.186-9.369 5.657-.149 13.715 5.715 17.315 15.232 3.601 9.518 1.701 14.457-.01 17.296-2.706 4.487-7.856 5.863-13.054 6.971-5.197 1.108-20.199 1.551-30.98-3.965-9.67-4.947-12.036-10.079-12.036-10.079"/>
        <g transform="translate(67 44)">
            <mask id="prefix__i" fill="#fff">
                <use xlink:href="#prefix__g"/>
            </mask>
            <path fill="url(#prefix__h)" d="M.102 16.714S7.786 9.337 13.828 5.569C19.869 1.801 24.303.786 29.434.708c4.456-.067 10.702 2.405 13.8 9.573 2.881 6.669 1.676 10.467-.197 13.411-2.001 3.144-5.837 4.316-9.598 4.814-9.098 1.204-15.459.305-21.809-2.275C3.997 23.13.102 16.714.102 16.714" mask="url(#prefix__i)"/>
        </g>
    </g>
</svg>
