<svg xmlns="http://www.w3.org/2000/svg" width="382" height="80" viewBox="0 0 382 80">
    <path fill="#FFF" fill-rule="evenodd" d="M33.727.008s10.247-.517 21.266 10.929C63.778 3.944 75.262.135 75.262.135s11.711 7.936 10.49 30.773c-.685 12.804-9.061 21.277-16.323 26.266.883 3.592-4.263 6.409-19.147 11.911-1.03.644-2.168 1.297-3.439 1.948-3.543 1.812-7.542 2.978-11.499 3.692-10.559 3.988-18.302 6.632-19.519 4.53-.568-.981.318-2.33 2.199-3.911-.834-.101-1.565-.219-2.161-.346-5.198-1.108-10.349-2.484-13.054-6.971-1.712-2.839-3.611-7.779-.011-17.296 3.601-9.517 11.658-15.381 17.316-15.232 1.075.028 2.236.194 3.471.479C18.959 21.4 33.727.008 33.727.008zm-5.905 44.483c-4.457-.068-10.703 2.404-13.8 9.573-2.881 6.669-1.676 10.467.197 13.41 1.796 2.823 5.071 4.05 8.443 4.633.384.067.769.13 1.154.181 9.099 1.204 15.46.305 21.81-2.275 5.437-2.208 8.966-6.089 10.553-8.145l.035-.046c.618-.804.939-1.326.939-1.326s-.214-.204-.567-.536c-.657-.614-1.846-1.711-3.347-3.027-.4-.351-.821-.715-1.259-1.09-2.583-2.208-5.741-4.738-8.552-6.491-3.412-2.128-6.311-3.377-9.113-4.076-2.007-.501-3.966-.717-6.026-.772-.156-.005-.31-.011-.467-.013zm153.435-16.334c11.496 0 19.429 8.753 19.429 19.181 0 10.503-7.933 19.18-19.429 19.18-11.585 0-19.511-8.677-19.511-19.18 0-10.428 7.926-19.181 19.511-19.181zm80.802.324c5.865 0 11.068 2.895 14.046 7.437l.248-6.437h5.472v35.714h-5.472l-.248-6.444c-2.978 4.549-8.181 7.436-14.046 7.436-9.835 0-17.016-8.429-17.016-18.849 0-10.428 7.181-18.857 17.016-18.857zm67.838 0c4.714 0 8.436.827 12.488 3.632v5.707c-3.391-3.143-7.774-4.218-11.909-4.218-7.692 0-12.902 5.872-12.902 13.736 0 8.022 5.21 13.735 12.902 13.735 4.135 0 8.518-1.082 11.909-4.224v5.706c-4.052 2.805-7.774 3.632-12.488 3.632-10.834 0-18.595-7.684-18.595-18.849 0-11.172 7.761-18.857 18.595-18.857zm-185.96 0c9.504 0 12.068 6.61 12.068 15.459v21.255h-6.279V44.436c0-7.857-2.398-10.586-7.615-10.586-5.128 0-11 4.466-11 10.255v21.09h-6.279V44.436c0-7.857-2.398-10.586-7.615-10.586-5.128 0-11.007 4.466-11.007 10.255v21.09h-6.272V29.481h5.452l.413 6.85c2.978-4.542 7.527-7.85 13.157-7.85 6.699 0 9.918 3.226 11.324 8.181 3.887-5.452 8.684-8.181 13.653-8.181zm82.346 0c9.51 0 12.894 6.61 12.894 15.459v21.255h-6.278V44.519c0-8.022-3.143-10.669-8.353-10.669-5.135 0-11.751 4.466-11.751 10.255v21.09h-6.279V29.481h5.452l.413 6.85c2.647-4.294 7.857-7.85 13.902-7.85zm83.434 0v6.775c-6.782-1.241-13.481 2.647-13.481 8.684v21.255h-6.271V29.481h5.451l.414 6.85c2.309-4.376 7.85-7.85 13.887-7.85zm45.15-12.902v20.008c3.06-3.88 7.698-7.106 13.487-7.106 9.511 0 12.895 6.61 12.895 15.459v21.255h-6.272V44.519c0-8.022-3.149-10.669-8.36-10.669-5.127 0-11.75 4.466-11.75 10.255v21.09h-6.272V15.579h6.272zm-173.61 17.609c-8.194 0-13.239 6.369-13.239 14.15 0 7.857 5.127 14.149 13.239 14.149 8.105 0 13.157-6.292 13.157-14.149 0-7.781-5.052-14.15-13.157-14.15zm82.373.331c-6.781 0-12.316 5.211-12.316 13.819 0 8.601 5.535 13.811 12.316 13.811 6.775 0 12.309-5.21 12.309-13.811 0-8.608-5.534-13.819-12.309-13.819zM48.21 18.071c-4.762-2.193-8.794-2.03-8.794-2.03s-9.631 11.311-7.421 23.069c3.266 1.564 6.749 3.54 10.305 5.758 2.441 1.522 4.851 3.505 7.048 5.555 1.709 1.595 3.286 3.229 4.647 4.722.357.392.7.774 1.026 1.143 1.201 1.361 2.176 2.54 2.845 3.373.105-.169 1.194-1.936 2.295-4.804 2.053-5.342 4.133-14.488-.102-24.191-1.258-2.881-2.781-5.193-4.422-7.052-2.374-2.689-4.995-4.423-7.427-5.543zm22.821-2.314s-4.46 1.028-9.373 3.69c8.004 12.743 4.105 26.946.554 35.081 2.746-.335 5.002-.083 6.25 1.03 4.114-3.368 8.372-8.428 10.1-15.661 3.784-15.842-7.531-24.14-7.531-24.14z"/>
</svg>
