<svg xmlns="http://www.w3.org/2000/svg" xmlns:xlink="http://www.w3.org/1999/xlink" width="382" height="80" viewBox="0 0 382 80">
    <defs>
        <linearGradient id="prefix__b" x1="59.231%" x2="31.39%" y1="17.665%" y2="104.589%">
            <stop offset="0%" stop-color="#FFF"/>
            <stop offset="100%" stop-color="#29B4CC"/>
        </linearGradient>
        <linearGradient id="prefix__e" x1="43.651%" x2="66.728%" y1="25.974%" y2="113.862%">
            <stop offset="0%" stop-color="#FFF"/>
            <stop offset="100%" stop-color="#FAAF3A"/>
        </linearGradient>
        <linearGradient id="prefix__h" x1="29.203%" x2="119.285%" y1="49.641%" y2="53.584%">
            <stop offset="0%" stop-color="#FFF"/>
            <stop offset="100%" stop-color="#FAAF3A"/>
        </linearGradient>
        <path id="prefix__a" d="M10.903 46.167s15.881-5.454 19.659-21.271C34.346 9.055 23.031.757 23.031.757S4.408 5.031 1.346 18.835C-1.099 29.854 4.682 37.042 6.002 40.16c2.473 5.841 4.901 6.007 4.901 6.007"/>
        <path id="prefix__d" d="M26.851 43.684s8.835-13.835 2.208-29.018C22.421-.54 8.416.041 8.416.041S-3.66 14.207 2.315 27.313c4.77 10.462 13.88 12.763 16.866 14.49 5.594 3.234 7.67 1.881 7.67 1.881"/>
        <path id="prefix__g" d="M45.153 16.496S37.47 9.12 31.428 5.352 20.953.568 15.822.491C11.365.423 5.12 2.895 2.022 10.064c-2.881 6.669-1.676 10.467.197 13.41 2.001 3.145 5.836 4.316 9.597 4.814 9.099 1.204 15.46.305 21.81-2.275 7.633-3.101 11.527-9.517 11.527-9.517"/>
    </defs>
    <g fill="none" fill-rule="evenodd">
        <path fill="#29B4CC" d="M58.648 62.884s25.879-9.054 27.104-31.977C86.973 8.071 75.262.135 75.262.135S48.453 9.023 45.424 24.58c-3.029 15.556 4.281 25.955 6.135 30.333 3.473 8.201 7.089 7.971 7.089 7.971"/>
        <g transform="translate(48 15)">
            <mask id="prefix__c" fill="#fff">
                <use xlink:href="#prefix__a"/>
            </mask>
            <path fill="url(#prefix__b)" d="M10.903 46.167s15.881-5.454 19.659-21.271C34.346 9.055 23.031.757 23.031.757S4.408 5.031 1.346 18.835C-1.099 29.854 4.682 37.042 6.002 40.16c2.473 5.841 4.901 6.007 4.901 6.007" mask="url(#prefix__c)"/>
        </g>
        <path fill="#45447F" d="M69.307 56.767c1.393 3.83-3.677 6.664-19.487 12.489-17.413 6.415-32.269 12.981-33.995 9.999-2.24-3.87 18.064-13.434 33.319-20.59 8.248-3.87 18.534-6.379 20.163-1.898"/>
        <path fill="#F05A34" d="M58.697 61.236S74.193 38 61.132 18.604C48.12-.719 33.727.008 33.727.008S17.372 23.68 24.449 38.19c7.077 14.511 19.401 18.486 23.594 20.911 7.854 4.54 10.654 2.135 10.654 2.135"/>
        <g transform="translate(31 16)">
            <mask id="prefix__f" fill="#fff">
                <use xlink:href="#prefix__d"/>
            </mask>
            <path fill="url(#prefix__e)" d="M26.851 43.684s8.835-13.835 2.208-29.018C22.421-.54 8.416.041 8.416.041S-3.66 14.207 2.315 27.313c4.77 10.462 13.88 12.763 16.866 14.49 5.594 3.234 7.67 1.881 7.67 1.881" mask="url(#prefix__f)"/>
        </g>
        <path fill="#F05A34" d="M58.879 60.953S50.763 50.146 42.3 44.867c-8.463-5.278-16.528-9.22-22.186-9.369-5.658-.148-13.715 5.716-17.316 15.233-3.6 9.517-1.701 14.457.011 17.296 2.705 4.487 7.856 5.863 13.054 6.971 5.197 1.108 20.199 1.55 30.98-3.966 9.67-4.947 12.036-10.079 12.036-10.079"/>
        <g transform="translate(12 44)">
            <mask id="prefix__i" fill="#fff">
                <use xlink:href="#prefix__g"/>
            </mask>
            <path fill="url(#prefix__h)" d="M45.153 16.496S37.47 9.12 31.428 5.352 20.953.568 15.822.491C11.365.423 5.12 2.895 2.022 10.064c-2.881 6.669-1.676 10.467.197 13.41 2.001 3.145 5.836 4.316 9.597 4.814 9.099 1.204 15.46.305 21.81-2.275 7.633-3.101 11.527-9.517 11.527-9.517" mask="url(#prefix__i)"/>
        </g>
        <path fill="#231F20" d="M99.938 65.195h6.272v-21.09c0-5.789 5.879-10.255 11.007-10.255 5.217 0 7.615 2.729 7.615 10.586v20.759h6.279v-21.09c0-5.789 5.872-10.255 11-10.255 5.217 0 7.615 2.729 7.615 10.586v20.759h6.279V43.94c0-8.85-2.564-15.459-12.068-15.459-4.969 0-9.766 2.729-13.653 8.181-1.406-4.955-4.625-8.181-11.324-8.181-5.63 0-10.179 3.308-13.156 7.85l-.414-6.851h-5.452v35.715zm81.319 1.323c11.496 0 19.429-8.677 19.429-19.18 0-10.428-7.933-19.181-19.429-19.181-11.585 0-19.511 8.753-19.511 19.181 0 10.503 7.926 19.18 19.511 19.18zm0-5.031c-8.112 0-13.239-6.293-13.239-14.149 0-7.782 5.045-14.15 13.239-14.15 8.105 0 13.157 6.368 13.157 14.15 0 7.856-5.052 14.149-13.157 14.149zm25.259 3.708h6.279v-21.09c0-5.789 6.616-10.255 11.751-10.255 5.21 0 8.353 2.646 8.353 10.669v20.676h6.278V43.94c0-8.85-3.383-15.459-12.894-15.459-6.045 0-11.255 3.556-13.902 7.85l-.413-6.851h-5.452v35.715zm55.543.992c5.865 0 11.069-2.888 14.046-7.436l.248 6.444h5.472V29.48h-5.472l-.248 6.438c-2.977-4.542-8.181-7.437-14.046-7.437-9.835 0-17.016 8.429-17.016 18.857 0 10.42 7.181 18.849 17.016 18.849zm1.571-5.038c-6.781 0-12.316-5.21-12.316-13.811 0-8.609 5.535-13.819 12.316-13.819 6.775 0 12.309 5.21 12.309 13.819 0 8.601-5.534 13.811-12.309 13.811zm26.335 4.046h6.271V43.94c0-6.038 6.699-9.925 13.481-8.684v-6.775c-6.037 0-11.578 3.474-13.887 7.85l-.414-6.851h-5.451v35.715zm39.932.992c4.714 0 8.436-.827 12.488-3.632v-5.706c-3.391 3.142-7.774 4.224-11.909 4.224-7.692 0-12.902-5.713-12.902-13.735 0-7.864 5.21-13.736 12.902-13.736 4.135 0 8.518 1.075 11.909 4.218v-5.707c-4.052-2.805-7.774-3.632-12.488-3.632-10.834 0-18.595 7.685-18.595 18.857 0 11.165 7.761 18.849 18.595 18.849zm18.698-.992h6.272v-21.09c0-5.789 6.623-10.255 11.751-10.255 5.21 0 8.36 2.646 8.36 10.669v20.676h6.271V43.94c0-8.85-3.384-15.459-12.895-15.459-5.789 0-10.427 3.226-13.487 7.106V15.579h-6.272v49.616z"/>
    </g>
</svg>
