<?xml version="1.0" encoding="utf-8"?>
<!-- Generator: Adobe Illustrator 24.1.3, SVG Export Plug-In . SVG Version: 6.00 Build 0)  -->
<svg version="1.1" id="Layer_1" xmlns="http://www.w3.org/2000/svg" xmlns:xlink="http://www.w3.org/1999/xlink" x="0px" y="0px"
	 viewBox="0 0 454 339" style="enable-background:new 0 0 454 339;" xml:space="preserve">
<style type="text/css">
	.st0{fill:#71BCD6;}
	.st1{fill:#6AB3C6;}
	.st2{fill:#FFFFFF;}
	.st3{fill:#E5E5E5;}
	.st4{opacity:0.1;enable-background:new    ;}
	.st5{fill:#DE5D5D;}
	.st6{fill:#445258;}
	.st7{opacity:0.1;}
	.st8{fill-rule:evenodd;clip-rule:evenodd;fill:#F5F5F7;}
	.st9{fill:#C3CFD6;}
	.st10{fill:#2253F6;}
	.st11{fill:#B01F1A;}
	.st12{fill:#002E3E;}
	.st13{fill:#037A4A;}
	.st14{fill:#002135;}
	.st15{fill:#F6B695;}
	.st16{fill:#F37C7C;}
	.st17{fill:#DD5A5A;}
	.st18{fill:#FFD1B9;}
	.st19{fill:#662D2D;}
	.st20{fill:#003C51;}
	.st21{fill-rule:evenodd;clip-rule:evenodd;fill:#F6B695;}
	.st22{fill:#B4E7EF;}
</style>
<g>
	<circle class="st0" cx="106.2" cy="76.8" r="32.9"/>
	<path class="st1" d="M127.7,51.8c5,5.8,8,13.3,8,21.5c0,18.2-14.7,32.9-32.9,32.9c-8.2,0-15.7-3-21.5-8c6,7,15,11.4,24.9,11.4
		c18.2,0,32.9-14.7,32.9-32.9C139.2,66.8,134.7,57.9,127.7,51.8z"/>
	<circle class="st2" cx="106.2" cy="76.8" r="24"/>
	<circle class="st3" cx="106.2" cy="76.8" r="11.4"/>
	<path class="st4" d="M119.8,64.2l-10.7,4.6c-1.2,0.5-1.9,1.6-2,2.9l-0.2,3.6c-1.2,0.2-2.1,1.1-2.3,2.3l-3.6,0.2
		c-1.3,0.1-2.4,0.9-2.9,2l-4.6,10.7c-0.4,0.9,0.5,1.9,1.5,1.5l10.7-4.6c1.2-0.5,1.9-1.6,2-2.9l0.2-3.6c1.2-0.2,2.1-1.1,2.3-2.3
		l3.6-0.2c1.3-0.1,2.4-0.9,2.9-2l4.6-10.7C121.7,64.7,120.8,63.8,119.8,64.2z"/>
	<path class="st4" d="M106.2,52.8c-13.2,0-24,10.7-24,24c0,7.3,3.3,13.8,8.4,18.2c-3.6-4.2-5.7-9.6-5.7-15.6c0-13.2,10.7-24,24-24
		c5.9,0,11.4,2.2,15.6,5.7C120.1,56,113.5,52.8,106.2,52.8z"/>
	<path class="st5" d="M118.6,62.9l-10.7,4.6c-1.2,0.5-1.9,1.6-2,2.9l-0.3,4.8c-0.1,1.3,1,2.3,2.3,2.3l4.8-0.3c1.3-0.1,2.4-0.9,2.9-2
		l4.6-10.7C120.4,63.5,119.5,62.5,118.6,62.9z"/>
	<path class="st0" d="M92.4,89.1L97,78.4c0.5-1.2,1.6-1.9,2.9-2l4.8-0.3c1.3-0.1,2.3,1,2.3,2.3l-0.3,4.8c-0.1,1.3-0.9,2.4-2,2.9
		l-10.7,4.6C92.9,91,92,90,92.4,89.1z"/>
	<g>
		<circle class="st6" cx="106.2" cy="76.8" r="2.9"/>
		<path class="st6" d="M105.6,60.5c-0.5,0-1-0.4-1-1v-3c0-0.5,0.4-1,1-1s1,0.4,1,1v3C106.6,60.1,106.1,60.5,105.6,60.5z"/>
		<path class="st6" d="M89,78.4h-3c-0.5,0-1-0.4-1-1s0.4-1,1-1h3c0.5,0,1,0.4,1,1S89.5,78.4,89,78.4z"/>
		<path class="st6" d="M106.9,97.9c-0.5,0-1-0.4-1-1v-3c0-0.5,0.4-1,1-1s1,0.4,1,1v3C107.8,97.5,107.4,97.9,106.9,97.9z"/>
		<path class="st6" d="M126.4,77.1h-3c-0.5,0-1-0.4-1-1s0.4-1,1-1h3c0.5,0,1,0.4,1,1C127.4,76.7,127,77.1,126.4,77.1z"/>
	</g>
	<g class="st7">
		<path d="M110.7,73.3c-0.2,0-0.5-0.1-0.7-0.3c-0.4-0.4-0.4-1,0-1.4l3.5-3.5c0.4-0.4,1-0.4,1.4,0s0.4,1,0,1.4l-3.5,3.5
			C111.2,73.2,110.9,73.3,110.7,73.3z"/>
		<path d="M98.3,85.6c-0.2,0-0.5-0.1-0.7-0.3c-0.4-0.4-0.4-1,0-1.4l3.5-3.5c0.4-0.4,1-0.4,1.4,0c0.4,0.4,0.4,1,0,1.4L99,85.4
			C98.8,85.5,98.6,85.6,98.3,85.6z"/>
	</g>
</g>
<g>
	<g transform="translate(0 -9) translate(116 66)">
		<g transform="translate(.014 .11)">
			<path class="st8" d="M82,132.7c0-3.1,2.6-5.6,5.7-5.6h20.4c3.2,0,5.7,2.5,5.7,5.6H82 M41.6,132.7c0-3.1,2.6-5.6,5.7-5.6h20.4
				c3.2,0,5.8,2.5,5.8,5.6H41.6 M0.2,132.7c0-3.1,2.6-5.6,5.7-5.6h20.4c3.2,0,5.7,2.5,5.7,5.6H0.2"/>
		</g>
	</g>
	<g transform="translate(0 -9) translate(0 121)">
		<ellipse class="st9" cx="337.5" cy="210.5" rx="47.3" ry="7.3"/>
		<ellipse class="st9" cx="115" cy="217.7" rx="42.9" ry="7.3"/>
		<path class="st5" d="M111.7,186.7c0,0,32.8-4.1,31.8,2.2c-1,6.3,9.2,23.4,9.5,29.3c0.3,5.9-68.5,0.5-73.1,0
			c-4.5-0.5-8.3-3.6-4.7-7.5c3.6-3.9,35.8-9.8,38-13.9C115.3,192.5,111.7,186.7,111.7,186.7L111.7,186.7z"/>
		<path class="st10" d="M219.9,103.3c16-5.5,78.5-26.6,84.6-24.2c7,2.8,8.6,20.2,8.6,20.2s-42.9,12.6-57.6,15.3
			c-12.6,2.1-25.4,2.9-38.1,2.2c0.8-2.9,0.7-6-0.1-8.9C216.8,105.9,217.9,103.9,219.9,103.3L219.9,103.3z"/>
		<path class="st11" d="M213.1,96.8c0.1,0.2,0.3,0.4,0.5,0.4c0.2,0,0.5,0,0.7-0.2c3.4-3.2,7.7-5.3,12.2-6.3
			c9.4-2.3,14.4-6.5,13.4-6.7c-2.3,2.3-32,1.5-32,1.5L213.1,96.8L213.1,96.8z"/>
		<path class="st12" d="M232.2,105.7l-18.8,41.9c-0.6,1.3-1.7,2.3-3.2,2.7c-1.4,0.4-2.9,0.1-4.1-0.7l-46.4-32.2
			c0,0-9.5,74.4-18.2,77.4c-8.7,3-27.8-2-27.8-2s-19.5-69.4-4-121.2C123.7,25,212.6,86.7,230.6,99.8
			C232.5,101.1,233.1,103.6,232.2,105.7L232.2,105.7z"/>
		<g>
			<path class="st13" d="M157.3,82.6L157.3,82.6c0,0,0-0.1,0-0.1V82.6L157.3,82.6z"/>
			<path class="st14" d="M159.8,117.1l19.7,14.2c0,0-16.8-21.8-18.8-44.7C161.5,96.8,161.2,107,159.8,117.1z"/>
		</g>
		<path class="st14" d="M131.5,194c-12.1-11.5-6.3-34.3,3.9-42c15.6-11.9,24.7-3.6,24.7-3.6C181.7,158.6,143.7,205.5,131.5,194z"/>
		<path class="st15" d="M136.1-21.3c-0.3,0.7-1,2-1.6,3c-1.4,2.1-1.4,2.1-3.4,4.6c5.3,6.8,59.2,72,59.2,72
			c15.6,14.1,44.2-19.6,26.5-31.1c0,0-47.2-28.3-59.7-41.1c-8.3-8-1.8-14-14.6-24.9c-6.7-3.6-7.4-9.2-11.4-10.7
			c-1.5-0.6-2.4,0.5-2.8,2.1c5,11.9,3.6,9.2,7.1,15.6C135.5-31.7,136.4-22,136.1-21.3z"/>
		<path class="st16" d="M284.4,192.6l0,12.2c0,2.6,2.1,4.8,4.7,4.9c9.4,0.3,31.9,1,60.1,1.4c37.3,0.5,41.4-6.4,28.4-11.5
			c-24.6-8.2-28.8-9.8-42.4-21.5c-13.6-11.7-21.1-5.4-21.1-5.4l-27.2,15.7C285.4,189.2,284.4,190.8,284.4,192.6L284.4,192.6z"/>
		<path class="st17" d="M295.1,184.1c-0.3,0.2-0.5,0.5-0.5,0.8l-1.2,24.5c0,0.3,0.1,0.6,0.3,0.8c0.2,0.2,0.5,0.3,0.7,0.3h3.2
			c0.5,0,1-0.4,1-0.9l3.5-28c0-0.4-0.1-0.8-0.5-1c-0.3-0.2-0.8-0.2-1.1,0L295.1,184.1L295.1,184.1z"/>
		<path class="st18" d="M206.1-36.4l21.4-15.1c2.3-1.6,5.1-2,7.7-1.2c2.6,0.8,4.7,2.8,5.7,5.4l17,45.2c1.6,4.3-0.3,9.1-4.4,11.1
			l-24.2,11.8c-2.3,1.1-5,1.2-7.3,0.2c-2.4-1-4.2-2.9-5-5.3l-14.2-41.9C201.5-30,202.9-34.1,206.1-36.4z"/>
		<path class="st15" d="M209.1-14.2L223.5-30c0.8-0.9,2-3,1.4-3.9l-0.7-0.3L205.8-30c-1.7,0.5-2.8,3.6-2,6.1l2.8,8.7
			C207.2-13.8,208.3-13.3,209.1-14.2z"/>
		<path class="st19" d="M225.9-92.2c0,0-37.1,34.1-43.6,28.5c-6.5-5.6-14-23.1,6.5-36C209.3-112.6,225.9-92.2,225.9-92.2L225.9-92.2
			z"/>
		<path class="st18" d="M235.8-77.6c-6.9-9.4-40-29.5-58.7,14.2c-18.7,43.7,29.1,39.3,29.1,39.3C244.1-25.7,242.6-68.2,235.8-77.6z"
			/>
		<path class="st15" d="M207.2-86.4c14.2,8.6,19.5,31,14.3,29.1c-5.9-2.2-16.7-3.3-24.3-9.6c-7.6-6.3-6.5-14.1-4.7-17.4
			c0.6-1,1.4-1.8,2.4-2.3C198.7-88.9,203.4-88.8,207.2-86.4L207.2-86.4z"/>
		<path class="st0" d="M316.6,119.4c7.7-3.7,14.9-8.2,21.6-13.4c15.6-12.6,35.8-21.9,35.8-21.9c-36.9-10.2-55.5-2.1-65,1.5
			C312.9,96.5,315.5,107.8,316.6,119.4z"/>
		<path class="st20" d="M294,181.8c-22.4-4-153.7-27-161.7-6.8c-1.2,26.3,29.1,40.3,58,45.8c25.3,4.8,88.7-5.3,104.1-8
			c2-0.3,3.4-2.1,3.3-4.1l-0.5-23.1C297.2,183.8,295.8,182.2,294,181.8z"/>
		<path class="st14" d="M153.9,187.1c7.4,5,38.9,6,72.4,2.8c19.3-1.9,37.9-8.2,54.5-18.3c0.2-0.1,0.3-0.4,0.3-0.7
			c-0.1-0.3-0.3-0.4-0.6-0.4C262.3,172.3,146.5,182,153.9,187.1z"/>
		<path class="st20" d="M132.2,180.6c0,8.3,75.5,9.3,144.1-4.3c57.6-11.4,39.6-72.6,32.3-92c-1.3-3.4-4.9-5.3-8.5-4.4
			c-14.8,3.8-51.7,13.5-53.1,17.3c-1.8,4.8-28.9,15.8-71.9,37.5C132.2,156.2,132.2,172.3,132.2,180.6z"/>
		<path class="st18" d="M73.7-30.4C64.9,2.7,97.9,53.1,173.9,77.2c1.4,0.5,2.9,0.2,4.2-0.6c1.2-0.8,2-2.1,2.2-3.6
			c0.9-9.6,2.5-28.5,3.2-37.6c0.1-1.3-0.3-2.6-1.2-3.6c-0.9-1-2.1-1.6-3.4-1.7c-11.7-0.7-42.3-4.8-76.1-27.9
			c-0.2-0.1-0.7-7.7-1.2-11c-2.8-7,0.4-11.8-1.7-15.6s-8.2,3.9-7.9,8.5c0.1,1.9,0,3.8-0.2,5.7c0,0-2.7,6.2-6.1,0.9
			c-10.5-16.9-1.3-27-5-28.5C77-39.2,74.4-33.1,73.7-30.4L73.7-30.4z"/>
		<path class="st21" d="M159.3,34.4l4,36.2c0.1,0.6-0.3,1.6-0.9,1.6C142.7,73.2,158.7,38.2,159.3,34.4L159.3,34.4z"/>
		<path class="st14" d="M299.6,82.8c-38.3-3.2-68.8,31.7-61.3,30.6c7.9-1.2,76.6,2,76.6-7.3c0-4.9-2-10.6-3.9-15
			C309,86.4,304.6,83.2,299.6,82.8L299.6,82.8z"/>
		<path class="st22" d="M160.5,76.3c1.2,1.3,24.6,7.4,46.3,9.1c0.7,0.1,1.3,0.5,1.6,1.1c5.5,11.6,10.1,21.6,9.5,28.1
			c-0.1,0.5,0.1,1.1,0.4,1.5c0.4,0.4,0.9,0.7,1.5,0.7c10.9-0.3,57-4.5,82.7-19.4c22.4-13,54.8-13.3,69.9-12.7c0.9,0,1.7-0.5,2-1.4
			c0.3-0.9-0.1-1.8-0.9-2.3c-15.8-9.5-52.8-32.2-61.5-43.2c-10.3-13.1-62.7-57.6-98.9-35.8v0L213,2.1c-1.9,1.2-3.7,2.5-5.4,3.9
			c0,0-0.1,0.1-0.1,0.1c-7.4,5.2-20.4,13.9-27.9,16.4c-5.9,1.9-12.1,2.9-18.3,2.8c-1.1,0-2.1,0.9-2.1,2
			C158.9,36.6,156.5,72.2,160.5,76.3L160.5,76.3z"/>
		<ellipse class="st14" cx="199.4" cy="-54.6" rx="1.9" ry="1.9"/>
		<ellipse class="st14" cx="183.4" cy="-61.3" rx="1.9" ry="1.9"/>
		<path class="st14" d="M206.8-57.2c-0.1,0-0.2,0-0.3-0.1c-1.1-1-4.4-3.5-6.4-3.3c-0.1,0-0.3,0-0.4-0.1c-0.1-0.1-0.2-0.2-0.2-0.3
			c0-0.3,0.2-0.5,0.4-0.5c2.9-0.2,7,3.4,7.1,3.6c0.1,0.1,0.2,0.3,0.1,0.5C207.2-57.3,207-57.2,206.8-57.2L206.8-57.2z M191.2-65.8
			c-0.1,0-0.3-0.1-0.3-0.2c-0.9-1-3.8-3.7-5.7-3.7c-0.2,0-0.3-0.1-0.4-0.2c-0.1-0.1-0.1-0.3,0-0.5c0.1-0.1,0.3-0.2,0.4-0.2
			c2.7,0.1,6.3,3.9,6.4,4c0.1,0.1,0.1,0.2,0.1,0.3c0,0.1-0.1,0.2-0.2,0.3C191.4-65.8,191.3-65.8,191.2-65.8L191.2-65.8z M183-49.7
			c-0.1-1.6,4.5-5.8,6-7c0.2-0.1,0.4-0.1,0.6,0c0.1,0.1,0.1,0.2,0.1,0.3c0,0.1-0.1,0.2-0.1,0.3c-2.8,2.5-5.7,5.6-5.7,6.4
			c0.1,1.3,1.9,2.3,2.5,2.3c0.2,0,0.4,0.2,0.4,0.4c0,0.2-0.2,0.4-0.4,0.4C184.7-46.9,183.3-48.1,183-49.7z M179.6-43.1
			c2.2,2.7,8.6,4.3,8.6,4.3C178.8-33,179.1-43.4,179.6-43.1z"/>
		<circle class="st15" cx="205.5" cy="-47" r="1.5"/>
		<circle class="st15" cx="200.1" cy="-47.7" r="1.5"/>
		<circle class="st15" cx="201.9" cy="-44.4" r="1.5"/>
		<circle class="st15" cx="180.7" cy="-55.6" r="1.5"/>
		<circle class="st15" cx="177" cy="-58.6" r="1.5"/>
		<circle class="st15" cx="176.8" cy="-55.4" r="1.5"/>
		<path class="st19" d="M239.6-43.8c0,14.9-16.1,13.8-15.5,16.7C252.2,24,279,23,288.3,30c32.4,25.2,27.9,11.4,68.7,17.6
			c12.7,1.9,26.3,2.9,39,0.1c9.4-2.1,18.5-6.7,23.3-15.5c6.4-11.6,3.6-26.4-0.3-38.4c-2.2-7.7-6.7-14.7-12.8-19.9
			c-12.7-10-30.4-8.2-43.7-17.1c-25.7-17.9-55.7-19-85-26.7c-5.6-1.5-11.4-3.4-15.2-7.7c-4.8-5.3-6.7-12.1-12.5-16.7
			c-5-3.8-10.8-6.5-16.9-7.9c-9.5-2.3-22.6-2.9-30.8,3.4c-12,9.2-7.8,30.6,9.4,37.4c17.2,6.8,9.7,17.5,9.7,17.5l2,0.9
			C223.5-46.5,239.6-58.7,239.6-43.8z"/>
	</g>
</g>
</svg>
