<svg xmlns="http://www.w3.org/2000/svg" width="50" height="62" viewBox="0 0 50 62">
    <g fill="none" fill-rule="evenodd">
        <path fill="#00829B" d="M63 7c9.7 0 17.592 7.863 17.592 17.528v11.214h1.71c3.142 0 5.698 2.546 5.698 5.677v21.722c0 3.13-2.556 5.677-5.697 5.677H43.697c-3.141 0-5.697-2.546-5.697-5.677V41.42c0-3.13 2.556-5.677 5.697-5.677h1.71V24.528C45.407 14.863 53.3 7 63 7zm19.303 31.215H43.697c-1.772 0-3.215 1.438-3.215 3.204v21.722c0 1.766 1.443 3.204 3.215 3.204h38.606c1.772 0 3.215-1.438 3.215-3.204V41.42c0-1.766-1.443-3.204-3.215-3.204zm-9.71 5.63c.485-.482 1.27-.482 1.755 0 .484.484.484 1.266 0 1.75l-15.175 15.12c-.233.231-.548.361-.877.361-.33 0-.645-.13-.878-.362l-5.766-5.745c-.484-.482-.484-1.265 0-1.748.485-.483 1.27-.483 1.755 0l4.889 4.87zM63 9.474c-8.332 0-15.11 6.754-15.11 15.055v11.214h30.22V24.528c0-8.301-6.778-15.055-15.11-15.055z" transform="translate(-38 -7)"/>
        <path d="M0 0H126V76H0z" transform="translate(-38 -7)"/>
    </g>
</svg>
