<svg xmlns="http://www.w3.org/2000/svg" xmlns:xlink="http://www.w3.org/1999/xlink" width="454" height="339" viewBox="0 0 454 339">
    <defs>
        <path id="prefix__a" d="M0 0.094L337.988 0.094 337.988 15.161 0 15.161z"/>
        <path id="prefix__c" d="M0 193.927L338.175 193.927 338.175 0 0 0z"/>
        <path id="prefix__d" d="M0 0.323H43V20.323H0z"/>
    </defs>
    <g fill="none" fill-rule="evenodd">
        <path fill="#B4E7EF" fill-rule="nonzero" d="M228.327 37.464c-1.105-.498-1.628-1.792-1.194-2.95 2.426-6.436 9.043-23.418 12.02-25.29 3.682-2.316 32.102 15.784 33.179 18.136 1.023 2.235-13.117 20.222-18.232 29.583-.23.417-.638.703-1.1.775-.464.071-.931-.08-1.265-.41-4.372-4.294-17.501-17.101-23.408-19.844zM168.848 17.538s24.248-9.242 33.744-8.288c-.099.324-.43 16.701.88 17.899 1.308 1.197-25.692 10.206-27.043 11.743-.074.242-9.637-14.63-7.581-21.354z" transform="translate(0 -9)"/>
        <g transform="translate(0 -9) translate(116 66)">
            <g transform="translate(.014 .11)">
                <path fill="#DEDFE4" d="M36.251 0h264.381c4.145 0 7.505 3.36 7.505 7.503v164.7c0 4.144-3.36 7.502-7.505 7.502H36.252c-4.145 0-7.505-3.358-7.505-7.501V7.503C28.747 3.359 32.107 0 36.25 0"/>
                <path fill="#F5F5F7" d="M183.46 6.787c0 1.072-.866 1.94-1.937 1.94-1.07 0-1.938-.868-1.938-1.94 0-1.07.868-1.939 1.938-1.939 1.07 0 1.938.868 1.938 1.94M157.944 6.787c0 1.072-.867 1.94-1.937 1.94s-1.939-.868-1.939-1.94c0-1.07.869-1.939 1.939-1.939s1.937.868 1.937 1.94M174.013 7.757h-11.144c-.579 0-1.049-.434-1.049-.97 0-.535.47-.97 1.05-.97h11.143c.58 0 1.05.435 1.05.97 0 .536-.47.97-1.05.97M39.405 180.675H17.442c0-2.142 1.77-3.879 3.952-3.879h14.058c2.183 0 3.953 1.737 3.953 3.879M67.183 180.675H45.219c0-2.142 1.77-3.879 3.954-3.879H63.23c2.183 0 3.953 1.737 3.953 3.879M95.606 180.675H73.643c0-2.142 1.77-3.879 3.953-3.879h14.058c2.183 0 3.952 1.737 3.952 3.879M123.384 180.675H101.42c0-2.142 1.77-3.879 3.953-3.879h14.057c2.183 0 3.954 1.737 3.954 3.879M151.161 180.675h-21.963c0-2.142 1.77-3.879 3.953-3.879h14.057c2.183 0 3.953 1.737 3.953 3.879M179.585 180.675h-21.964c0-2.142 1.77-3.879 3.954-3.879h14.057c2.183 0 3.953 1.737 3.953 3.879M207.362 180.675H185.4c0-2.142 1.77-3.879 3.953-3.879h14.057c2.183 0 3.953 1.737 3.953 3.879M235.463 180.675h-21.964c0-2.142 1.77-3.879 3.953-3.879h14.057c2.184 0 3.954 1.737 3.954 3.879M263.564 180.675H241.6c0-2.142 1.77-3.879 3.953-3.879h14.058c2.183 0 3.953 1.737 3.953 3.879M291.341 180.675h-21.964c0-2.142 1.77-3.879 3.954-3.879h14.057c2.183 0 3.953 1.737 3.953 3.879M319.442 180.675h-21.964c0-2.142 1.77-3.879 3.953-3.879h14.057c2.183 0 3.954 1.737 3.954 3.879"/>
                <g transform="translate(0 178.736)">
                    <mask id="prefix__b" fill="#fff">
                        <use xlink:href="#prefix__a"/>
                    </mask>
                    <path fill="#CDCFD7" d="M322.943 15.161c8.31 0 15.045-6.746 15.045-15.067H0C0 8.415 6.736 15.16 15.044 15.16h307.9z" mask="url(#prefix__b)"/>
                </g>
            </g>
            <rect width="245.636" height="144.492" x="46.237" y="17.449" fill="#F3F5F8" stroke="#CDCFD8" stroke-width=".5" rx="1"/>
        </g>
        <g transform="translate(0 -9) translate(0 121)">
            <ellipse fill="#C3CFD6" fill-rule="nonzero" style="mix-blend-mode:multiply" cx="59.5" cy="217" rx="32.5" ry="5"/>
            <ellipse fill="#C3CFD6" fill-rule="nonzero" style="mix-blend-mode:multiply" cx="212.5" cy="222" rx="29.5" ry="5"/>
            <path fill="#DE5D5D" fill-rule="nonzero" d="M214.764 200.673s-2.509 4.006-1.039 6.856c1.47 2.85 23.603 6.912 26.105 9.59 2.502 2.677-.086 4.837-3.199 5.182-3.112.345-50.405 4.06-50.233 0 .173-4.06 7.223-15.783 6.508-20.114-.714-4.331 21.858-1.514 21.858-1.514z"/>
            <path fill="#2253F6" fill-rule="nonzero" d="M140.382 143.31c1.325.449 2.079 1.842 1.73 3.195-.558 1.987-.58 4.087-.064 6.085-8.76.463-17.546-.044-26.196-1.512-10.097-1.852-39.576-10.512-39.576-10.512s1.101-11.991 5.944-13.891c4.221-1.657 47.183 12.872 58.162 16.634z"/>
            <path fill="#B01F1A" fill-rule="nonzero" d="M145.017 138.855l3.533-7.758s-20.38.512-21.974-1.037c-.68.176 2.73 3.03 9.215 4.627 3.145.65 6.053 2.145 8.412 4.323.118.116.285.166.448.136.162-.031.3-.14.366-.29z"/>
            <path fill="#002E3E" fill-rule="nonzero" d="M131.903 145.007c-.65-1.449-.195-3.155 1.09-4.089 12.408-9.009 73.517-51.388 83.082-19.365 10.653 35.676-2.78 83.357-2.78 83.357s-13.083 3.422-19.081 1.378c-5.999-2.044-12.535-53.198-12.535-53.198l-31.869 22.119c-.821.57-1.854.745-2.818.477-.963-.268-1.757-.95-2.166-1.863l-12.923-28.816z"/>
            <g fill-rule="nonzero">
                <path fill="#037A4A" d="M15.327 1.52v-.07c0 .03-.008.061-.01.091l.01-.02z" transform="translate(168.056 127.612)"/>
                <path fill="#002135" d="M12.985 4.254C11.652 19.989.072 34.984.072 34.984l13.556-9.75c-.951-6.951-1.167-13.983-.643-20.98z" transform="translate(168.056 127.612)"/>
            </g>
            <path fill="#002135" fill-rule="nonzero" d="M181.492 174.375s6.223-5.701 16.964 2.446c6.995 5.307 11 20.972 2.662 28.88-8.34 7.91-34.462-24.349-19.626-31.326z"/>
            <path fill="#00829B" fill-rule="nonzero" d="M205.752 32.32c.21-1.326 1.417-2.258 2.755-2.126 7.42.75 27.062 2.96 29.859 5.608 3.458 3.275-7.523 38.866-9.684 40.691-2.053 1.735-24.86-8.235-36.098-11.025-.502-.127-.916-.48-1.12-.955-.206-.475-.178-1.018.073-1.47 3.272-5.902 13-23.618 14.215-30.722z"/>
            <path fill="#F6B695" fill-rule="nonzero" d="M191.602 63.047c2.406-4.342 8.291-15.057 11.727-23.257-.248-1.148-.861-1.851-1.892-1.472-2.76 1.019-3.263 4.926-7.852 7.373-8.794 7.482-4.359 11.62-10.058 17.127-8.578 8.843-41.057 28.271-41.057 28.271-12.134 7.87 7.468 31.052 18.225 21.364 0 0 35.344-40.219 38.975-44.88-2.589-.859-4.994-1.598-7.02-2.1-.502-.128-.916-.48-1.121-.955-.206-.476-.178-1.019.073-1.471z"/>
            <path fill="#F37C7C" fill-rule="nonzero" d="M95.996 204.719c0-1.2-.64-2.31-1.681-2.91l-18.73-10.773s-5.146-4.3-14.492 3.72-12.255 9.15-29.148 14.776c-8.91 3.528-6.107 8.258 19.521 7.91 19.331-.263 34.837-.732 41.29-.946 1.812-.06 3.25-1.546 3.249-3.358l-.01-8.42z"/>
            <path fill="#DD5A5A" fill-rule="nonzero" d="M88.658 198.866l-3.803-2.449c-.232-.149-.53-.15-.762-.004-.234.147-.36.415-.326.688l2.426 19.28c.045.354.347.62.704.62h2.188c.194 0 .38-.08.514-.22s.205-.33.195-.524l-.81-16.829c-.012-.228-.133-.437-.326-.562z"/>
            <path fill="#FFD1B9" fill-rule="nonzero" d="M152.135 54.242l-9.782 28.818c-.564 1.662-1.816 3.001-3.437 3.677-1.621.675-3.455.622-5.034-.147l-16.66-8.11c-2.838-1.381-4.157-4.694-3.045-7.646l11.706-31.07c.666-1.769 2.115-3.13 3.923-3.686 1.808-.557 3.772-.246 5.32.842l14.736 10.36c2.22 1.559 3.146 4.394 2.273 6.962z"/>
            <path fill="#F6B695" fill-rule="nonzero" d="M149.415 61.916l1.954-5.985c.578-1.77-.148-3.909-1.345-4.22l-12.592-2.871-.484.197c-.438.615.353 2.045.935 2.658l9.912 10.858c.554.588 1.317.29 1.62-.637z"/>
            <path fill="#662D2D" fill-rule="nonzero" d="M136.222 8.904s11.428-14.008 25.499-5.15c14.07 8.86 8.942 20.863 4.47 24.726-4.471 3.863-29.969-19.576-29.969-19.576z"/>
            <path fill="#FFD1B9" fill-rule="nonzero" d="M149.794 55.76s32.894 3.067 20.017-27.01c-12.876-30.078-35.628-16.224-40.357-9.787-4.729 6.436-5.702 35.674 20.34 36.797z"/>
            <path fill="#F6B695" fill-rule="nonzero" d="M149.112 12.93c2.577-1.637 5.851-1.702 8.492-.171.675.375 1.239.923 1.632 1.587 1.175 2.27 1.942 7.668-3.26 11.97-5.2 4.302-12.65 5.054-16.712 6.585-3.587 1.353.072-14.078 9.848-19.972z"/>
            <path fill="#71BCD6" fill-rule="nonzero" d="M79.19 131.155c-6.53-2.445-19.335-8.003-44.718-1.024 0 0 13.857 6.391 24.578 15.03 4.601 3.602 9.58 6.696 14.849 9.226.747-7.94 2.525-15.75 5.291-23.232z"/>
            <path fill="#003C51" fill-rule="nonzero" d="M87.186 199.967l-.356 15.895c-.03 1.37.95 2.557 2.302 2.787 10.606 1.797 54.19 8.794 71.592 5.467 19.885-3.8 40.737-13.4 39.907-31.492-5.503-13.863-95.816 1.902-111.183 4.686-1.29.236-2.236 1.347-2.262 2.657z"/>
            <path fill="#002135" fill-rule="nonzero" d="M98.698 189.508c-.184.003-.344.127-.394.304-.05.177.022.366.178.464 11.38 6.952 24.185 11.246 37.458 12.56 23.055 2.19 44.735 1.542 49.8-1.923 5.064-3.466-74.562-10.13-87.042-11.405z"/>
            <path fill="#003C51" fill-rule="nonzero" d="M171.09 164.857c-29.57-14.86-48.245-22.46-49.455-25.747-.967-2.622-26.328-9.325-36.487-11.914-2.434-.617-4.94.701-5.81 3.054-5.016 13.392-17.34 55.461 22.24 63.282 47.205 9.33 99.08 8.639 99.08 2.938 0-5.701 0-16.755-29.568-31.613z"/>
            <path fill="#FFD1B9" fill-rule="nonzero" d="M240.902 51.447c-.49-1.854-2.306-6.106-4.842-5.068-2.537 1.038 3.76 7.99-3.458 19.58-2.286 3.669-4.164-.578-4.173-.603-.18-1.3-.23-2.616-.152-3.928.188-3.169-4.026-8.443-5.46-5.875-1.434 2.568.734 5.865-1.163 10.702-.36 2.273-.672 7.453-.811 7.547-23.243 15.847-44.31 18.694-52.33 19.178-.9.054-1.741.468-2.332 1.15-.59.68-.88 1.57-.805 2.469.514 6.257 1.594 19.261 2.23 25.882.098 1.011.65 1.923 1.5 2.482.85.558 1.907.703 2.875.393 52.266-16.565 74.92-51.183 68.921-73.91z"/>
            <path fill="#F6B695" d="M182.013 95.952c.455 2.657 11.444 26.675-2.119 25.987-.423-.022-.644-.7-.6-1.12l2.72-24.867z"/>
            <path fill="#002135" fill-rule="nonzero" d="M85.563 129.22c-3.46.3-6.477 2.471-7.859 5.655-1.324 3.038-2.699 7.006-2.68 10.344.034 6.415 47.23 4.177 52.692 5.016 5.113.786-15.791-23.244-42.153-21.014z"/>
            <path fill="#B4E7EF" fill-rule="nonzero" d="M181.206 124.764c2.761-2.834 1.12-27.294.888-33.694-.03-.773-.675-1.38-1.449-1.363-4.267.07-8.516-.572-12.57-1.903-5.16-1.717-14.076-7.703-19.168-11.294-.023-.017-.045-.034-.067-.053-1.17-.99-2.417-1.889-3.727-2.686l-.068-.05v.007c-24.905-15-60.918 15.597-68.006 24.612-5.938 7.554-31.386 23.22-42.254 29.723-.534.32-.783.96-.603 1.556.18.595.741.993 1.363.964 10.405-.473 32.683-.224 48.064 8.703 17.677 10.265 49.348 13.143 56.832 13.361.381.003.745-.16.997-.448.25-.287.364-.67.309-1.047-.467-4.478 2.745-11.327 6.508-19.315.208-.445.638-.744 1.127-.784 14.896-1.202 30.976-5.418 31.824-6.289z"/>
            <ellipse cx="154.485" cy="34.775" fill="#002135" fill-rule="nonzero" rx="1.277" ry="1.276"/>
            <ellipse cx="165.466" cy="30.189" fill="#002135" fill-rule="nonzero" rx="1.277" ry="1.276"/>
            <path fill="#002135" fill-rule="nonzero" d="M149.338 32.984c-.137-.002-.26-.087-.309-.215-.049-.127-.016-.272.084-.366.12-.112 2.937-2.62 4.914-2.45.183.016.319.175.306.357-.005.089-.046.171-.114.229-.068.058-.156.085-.244.077-1.403-.104-3.664 1.61-4.417 2.284-.06.054-.14.084-.22.084zM160.114 27.102c-.079 0-.155-.03-.212-.083-.063-.056-.1-.136-.104-.22-.003-.084.027-.166.084-.228.102-.112 2.53-2.733 4.4-2.77.117-.008.229.048.291.147.063.1.065.225.007.326-.059.102-.168.162-.286.158-1.33.026-3.3 1.86-3.947 2.566-.06.065-.144.103-.233.104zM163.462 40.241c-.155 0-.28-.125-.28-.28 0-.154.125-.28.28-.28.438 0 1.654-.724 1.719-1.593.041-.54-1.995-2.694-3.904-4.38-.056-.048-.09-.118-.094-.192-.005-.074.02-.147.07-.203.103-.114.279-.125.395-.024.98.865 4.172 3.772 4.092 4.841-.24 1.113-1.15 1.956-2.278 2.111zM162.202 45.651s4.402-1.119 5.895-2.985c.28-.186.533 6.996-5.895 2.985z"/>
            <circle cx="150.275" cy="39.994" r="1" fill="#F6B695" fill-rule="nonzero"/>
            <circle cx="153.988" cy="39.537" r="1" fill="#F6B695" fill-rule="nonzero"/>
            <circle cx="152.751" cy="41.773" r="1" fill="#F6B695" fill-rule="nonzero"/>
            <circle cx="167.316" cy="34.088" r="1" fill="#F6B695" fill-rule="nonzero"/>
            <circle cx="169.829" cy="32.033" r="1" fill="#F6B695" fill-rule="nonzero"/>
            <circle cx="169.959" cy="34.246" r="1" fill="#F6B695" fill-rule="nonzero"/>
            <path fill="#662D2D" fill-rule="nonzero" d="M138.247 42.882l1.372-.653s-5.147-7.366 6.67-12.04c11.817-4.673 14.738-19.411 6.462-25.711-5.668-4.313-14.663-3.9-21.197-2.351-4.224.932-8.192 2.78-11.622 5.413-3.988 3.18-5.252 7.822-8.562 11.478-2.664 2.944-6.633 4.298-10.477 5.3-20.158 5.261-40.774 6.038-58.466 18.341-9.197 6.113-21.369 4.87-30.07 11.774-4.219 3.595-7.286 8.35-8.821 13.673-2.65 8.235-4.58 18.375-.187 26.38 3.29 5.994 9.548 9.202 16.021 10.634 8.73 1.924 18.028 1.243 26.79-.083 28.009-4.241 24.948 5.253 47.205-12.09 6.386-4.84 24.783-4.115 44.153-39.248.358-2.005-10.684-1.193-10.689-11.47-.004-10.278 11.072-1.849 11.418.653z"/>
        </g>
        <g>
            <path fill="#E0E9EF" d="M40.438 10c27.707 28.54 24.911 26.456-11.86 40.933-.577.227-1.526-.152-1.673-.731-3.732-14.68 4.851-27.287 11.684-39.351L40.438 10z" transform="translate(0 -9) rotate(34 -108.48 502.878)"/>
            <path fill="#B4E7EF" fill-rule="nonzero" d="M11.633 22.982c-.673-1.007-.432-2.381.551-3.134C17.651 15.676 32.262 4.78 35.778 4.77c4.35-.013 18.86 30.398 18.527 32.963-.317 2.437-21.84 10.198-31.138 15.426-.417.231-.913.259-1.344.074-.43-.185-.747-.561-.855-1.018-1.432-5.958-5.78-23.776-9.335-29.233z" transform="translate(0 -9) rotate(34 -108.48 502.878)"/>
        </g>
        <g transform="translate(0 -9) translate(253 83.677)">
            <mask id="prefix__e" fill="#fff">
                <use xlink:href="#prefix__d"/>
            </mask>
            <path fill="#B4E7EF" fill-rule="nonzero" d="M41.08.313v12.944c0 2.43-1.97 4.4-4.4 4.4H6.303c-2.43 0-4.4-1.97-4.4-4.4V.434c0-5.851 39.175-5.932 39.175-.121z" mask="url(#prefix__e)"/>
        </g>
        <path fill="#B4E7EF" fill-rule="nonzero" d="M259.304 114.625h30.375c2.43 0 4.4 1.97 4.4 4.4V149.4c0 2.43-1.97 4.4-4.4 4.4h-30.375c-2.43 0-4.4-1.97-4.4-4.4v-30.375c0-2.43 1.97-4.4 4.4-4.4z" transform="translate(0 -9)"/>
        <path fill="#E0E9EF" fill-rule="nonzero" d="M309.335 102.294h47.191c.608 0 1.1.492 1.1 1.1v2.2c0 .292-.116.571-.322.778-.206.206-.486.322-.778.322h-47.19c-.608 0-1.1-.493-1.1-1.1v-2.2c0-.608.492-1.1 1.1-1.1zM309.335 129.6h31.476c.292 0 .572.117.778.323.206.206.322.486.322.778v2.2c0 .292-.116.571-.322.778-.206.206-.486.322-.778.322h-31.476c-.607 0-1.1-.493-1.1-1.1v-2.2c0-.608.493-1.1 1.1-1.1zM304.65 187.414h31.476c.292 0 .572.116.778.323.206.206.322.486.322.777v2.2c0 .292-.116.572-.322.778-.206.207-.486.322-.778.322H304.65c-.608 0-1.1-.492-1.1-1.1v-2.2c0-.607.492-1.1 1.1-1.1zM309.335 115.948h36.7c.608 0 1.1.492 1.1 1.1v2.2c0 .292-.116.571-.322.778-.206.206-.486.322-.778.322h-36.7c-.607 0-1.1-.493-1.1-1.1v-2.2c0-.608.493-1.1 1.1-1.1zM304.65 173.761h36.7c.608 0 1.1.493 1.1 1.1v2.2c0 .292-.116.572-.322.778-.206.207-.486.322-.778.322h-36.7c-.608 0-1.1-.492-1.1-1.1v-2.2c0-.607.492-1.1 1.1-1.1zM349.562 115.948h6.964c.608 0 1.1.492 1.1 1.1v2.2c0 .607-.492 1.1-1.1 1.1h-6.964c-.607 0-1.1-.493-1.1-1.1v-2.2c0-.608.493-1.1 1.1-1.1zM320.835 88.64h35.828c.608 0 1.1.493 1.1 1.1v2.2c0 .293-.116.572-.322.779-.206.206-.486.322-.778.322h-35.828c-.607 0-1.1-.493-1.1-1.1v-2.2c0-.608.493-1.1 1.1-1.1zM309.472 88.64h8.063c.608 0 1.1.493 1.1 1.1v2.2c0 .293-.116.572-.322.779-.206.206-.486.322-.778.322h-8.063c-.607 0-1.1-.493-1.1-1.1v-2.2c0-.608.493-1.1 1.1-1.1z" transform="translate(0 -9)"/>
    </g>
</svg>
